<svg version="1.0" xmlns="http://www.w3.org/2000/svg"
 width="2816.000000pt" height="1536.000000pt" viewBox="0 0 2816.000000 1536.000000"
 preserveAspectRatio="xMidYMid meet">
    <style>
        path {
            stroke: #000000;
            stroke-width: 52px;
            stroke-dasharray: 40000;
            stroke-dashoffset: 40000;
            fill: #000000;
            fill-opacity: 0;
            animation: 
                draw 2s ease-out forwards, 
                fill 0.5s ease-in forwards 1.5s,
                thin_stroke 0.5s ease-in forwards 1.5s;
        }
        @keyframes draw {
            to {
                stroke-dashoffset: 0;
            }
        }
        @keyframes fill {
            to {
                fill-opacity: 1;
            }
        }
        @keyframes thin_stroke {
            to {
                stroke-width: 20px;
            }
        }
    </style>

<metadata>
Created by potrace 1.16, written by Peter Selinger 2001-2019
</metadata>
<g transform="translate(0.000000,1536.000000) scale(0.100000,-0.100000)">
<path d="M8826 14851 c-3 -4 14 -23 37 -41 56 -45 318 -279 492 -440 152 -141
248 -210 468 -335 177 -102 268 -175 447 -358 175 -179 284 -275 494 -433 165
-124 266 -214 266 -239 0 -12 -17 -15 -82 -15 -71 0 -92 -4 -144 -29 -265
-125 -742 -621 -1089 -1131 -43 -63 -93 -136 -111 -161 -19 -26 -34 -50 -34
-54 0 -5 -10 -22 -23 -39 -13 -17 -43 -66 -67 -108 -24 -43 -48 -78 -52 -78
-4 0 -8 -7 -8 -15 0 -8 -14 -37 -31 -66 -46 -78 -119 -256 -126 -306 -4 -30
-15 -53 -32 -69 -26 -24 -26 -24 11 -24 28 0 38 5 43 20 3 10 47 61 98 112 91
92 182 220 323 451 89 146 311 482 379 572 112 150 242 300 349 403 141 135
250 215 475 348 46 27 99 67 117 88 34 39 34 39 100 11 83 -35 113 -60 146
-122 49 -90 62 -190 63 -468 0 -212 -3 -256 -17 -292 -9 -24 -61 -107 -116
-185 -90 -131 -260 -406 -341 -552 -40 -72 -168 -370 -210 -490 -75 -213 -81
-343 -19 -428 24 -33 -3 -32 -64 2 -34 18 -141 81 -237 140 -97 58 -185 111
-196 118 -61 36 -281 134 -350 156 -100 33 -255 63 -360 70 -104 7 -236 12
-780 31 -549 18 -664 28 -765 65 -224 83 -404 190 -780 461 -253 182 -512 348
-1108 708 -24 14 -51 31 -60 36 -93 56 -167 102 -215 133 -31 20 -92 59 -135
86 -184 116 -387 283 -667 550 -99 94 -220 209 -270 256 -290 272 -606 578
-862 836 -160 162 -298 294 -305 294 -43 0 579 -622 1406 -1405 134 -126 268
-252 300 -279 200 -170 421 -323 786 -543 622 -375 929 -574 1250 -808 41 -31
93 -67 115 -81 22 -15 51 -34 64 -43 82 -55 213 -128 303 -167 37 -16 68 -34
68 -40 0 -7 -62 -9 -197 -6 -136 3 -251 -1 -366 -12 -232 -22 -428 -21 -542 4
-102 21 -156 42 -340 130 -209 99 -227 107 -284 125 -33 11 -70 15 -97 12 -48
-5 -109 -44 -119 -77 -3 -11 -13 -20 -22 -20 -12 0 -14 7 -9 33 32 152 3 266
-81 323 -43 29 -197 89 -431 169 -107 36 -247 90 -311 120 -65 30 -125 55
-134 55 -9 0 -18 12 -22 29 -10 47 -61 109 -118 144 -83 53 -438 219 -607 286
-85 33 -252 96 -370 140 -429 159 -619 250 -935 448 -44 28 -174 110 -290 182
-189 119 -588 331 -622 331 -8 0 -33 9 -55 20 -50 24 -45 23 -52 4 -4 -11 11
-23 62 -46 289 -131 461 -225 807 -447 412 -262 640 -379 1010 -514 313 -115
509 -191 605 -235 36 -16 103 -46 150 -67 118 -52 259 -124 294 -148 35 -25
86 -103 86 -133 0 -12 -9 -42 -20 -67 -12 -28 -30 -117 -46 -229 -34 -249 -52
-330 -130 -611 -24 -87 -60 -199 -80 -250 -19 -51 -54 -139 -76 -197 -106
-274 -415 -893 -484 -971 -8 -8 -14 -19 -14 -24 0 -14 -130 -206 -225 -330
-141 -186 -238 -324 -275 -390 -30 -54 -32 -64 -26 -118 6 -58 6 -58 -57 -136
-34 -43 -129 -167 -212 -276 -326 -430 -401 -465 -723 -341 -131 50 -328 148
-497 246 -107 62 -205 107 -530 245 -258 109 -566 256 -669 319 -89 55 -103
28 -18 -36 48 -37 299 -166 459 -237 48 -21 108 -48 133 -59 25 -11 137 -59
250 -106 113 -47 259 -116 325 -152 237 -131 285 -155 376 -195 51 -22 110
-48 133 -58 96 -43 196 -73 262 -78 66 -5 76 -3 137 27 77 38 181 126 265 225
32 39 133 169 223 290 90 120 169 226 175 234 9 12 19 10 68 -13 31 -15 139
-56 239 -90 100 -35 234 -84 297 -109 290 -113 367 -137 451 -137 143 0 237
58 365 225 31 42 205 302 239 360 10 17 23 12 145 -48 131 -65 295 -123 523
-188 325 -91 511 -194 854 -472 322 -262 538 -379 1058 -573 110 -41 268 -101
350 -133 165 -65 267 -91 455 -116 126 -18 189 -36 550 -160 199 -67 284 -90
392 -105 261 -36 493 124 515 355 5 59 3 71 -25 128 -26 53 -88 127 -106 127
-3 0 -57 29 -121 65 -64 36 -120 65 -123 65 -4 1 -25 9 -47 20 -22 11 -43 19
-47 20 -9 0 -102 41 -198 87 -98 48 -150 84 -150 106 0 15 6 16 43 11 101 -16
252 -92 556 -281 51 -32 125 -75 165 -96 39 -22 91 -51 116 -65 133 -79 291
-128 375 -118 99 12 163 44 241 120 103 100 163 226 164 341 0 86 -67 219
-145 288 -11 9 -74 50 -140 89 -130 78 -554 357 -622 410 -79 62 -46 74 88 32
146 -46 338 -138 639 -306 315 -175 395 -216 532 -269 48 -19 88 -39 88 -46 0
-18 -127 -172 -215 -258 -44 -44 -117 -108 -160 -143 -44 -34 -89 -71 -100
-82 -12 -11 -26 -20 -33 -20 -7 0 -12 -4 -12 -8 0 -12 -325 -298 -559 -494
-81 -68 -360 -256 -516 -348 -49 -29 -245 -132 -435 -228 -190 -96 -365 -188
-390 -205 -71 -48 -151 -137 -199 -221 -43 -75 -44 -78 -38 -144 6 -63 4 -72
-30 -138 -48 -98 -53 -149 -19 -217 26 -54 26 -54 -5 -115 -38 -73 -35 -113
14 -169 28 -32 32 -44 33 -97 1 -98 19 -144 75 -202 61 -62 108 -81 165 -65
51 14 54 14 54 -6 0 -30 56 -117 100 -157 81 -73 253 -134 381 -136 107 -1
294 47 412 106 92 46 122 69 258 200 130 124 206 170 334 199 73 17 204 64
267 96 71 36 78 18 15 -40 -199 -183 -547 -434 -794 -571 -327 -182 -744 -304
-1120 -329 -256 -16 -574 28 -827 116 -222 77 -341 168 -410 312 -28 60 -31
75 -30 161 0 86 3 101 32 162 96 200 279 375 612 587 242 155 283 183 344 241
79 74 97 112 92 191 -4 56 -8 67 -35 91 -20 18 -43 28 -64 29 -168 5 -234 -17
-989 -320 -333 -133 -598 -197 -1103 -265 -329 -45 -514 -57 -1200 -81 -656
-22 -934 -19 -2125 27 -383 15 -1653 16 -2060 2 -265 -9 -265 -9 -268 -32 -4
-23 -4 -23 325 -15 473 12 1593 9 1903 -5 146 -7 364 -18 485 -24 308 -18
1832 -17 2100 0 349 22 574 42 780 67 428 53 496 67 910 183 104 29 384 136
530 202 163 74 476 183 576 199 82 14 189 1 189 -22 -1 -31 -94 -89 -425 -267
-674 -362 -918 -572 -1045 -901 -49 -128 -65 -430 -34 -651 41 -295 140 -592
248 -741 114 -159 301 -301 496 -378 244 -96 445 -142 805 -184 309 -36 700
-6 1035 80 129 33 349 104 435 140 277 117 608 336 844 560 40 38 173 189 294
335 385 463 534 598 839 759 123 66 407 174 560 215 176 46 513 118 713 151
581 97 944 191 1269 329 315 134 499 248 667 416 117 116 166 186 215 305 41
99 48 144 39 241 -5 59 -11 77 -24 81 -11 3 -20 23 -28 65 -32 169 -154 307
-363 413 -253 128 -711 218 -872 171 -71 -20 -114 -61 -125 -119 -6 -27 -15
-43 -26 -45 -14 -3 -17 4 -17 36 0 62 -26 199 -85 442 -30 124 -59 268 -65
320 -6 52 -15 129 -20 170 -21 156 -28 373 -19 553 9 190 25 395 36 460 6 40
26 49 43 18 5 -11 38 -41 71 -68 38 -29 96 -93 150 -164 48 -64 114 -145 146
-179 155 -168 429 -382 629 -491 342 -186 500 -267 600 -310 357 -150 589
-303 684 -451 57 -87 66 -131 47 -230 -42 -230 -202 -534 -433 -823 -99 -124
-378 -406 -499 -506 -190 -156 -483 -359 -830 -574 -104 -64 -219 -136 -255
-160 -36 -23 -96 -61 -135 -84 -38 -23 -131 -80 -205 -127 -267 -167 -590
-360 -925 -554 -151 -87 -366 -237 -449 -312 -144 -130 -242 -285 -287 -454
-18 -65 -21 -106 -21 -239 1 -393 118 -841 286 -1094 58 -86 155 -191 247
-266 384 -315 1104 -525 1798 -525 448 0 811 68 1296 245 55 19 114 42 132 50
17 8 34 15 38 15 13 0 354 165 480 233 78 41 206 114 390 221 50 29 169 104
265 167 96 63 197 128 223 145 26 16 67 43 90 60 50 37 391 256 427 274 14 7
56 33 94 58 98 64 346 195 446 236 277 114 361 142 635 219 162 46 190 53 535
132 107 24 227 53 265 64 39 11 158 42 266 70 322 83 650 206 905 341 538 286
911 615 1079 955 106 215 127 372 81 625 -42 226 -100 329 -252 446 -204 156
-442 260 -794 349 -485 122 -963 125 -1496 10 -136 -29 -124 -28 -124 -11 0
27 282 116 495 155 337 62 374 66 680 66 406 0 658 -31 1164 -141 141 -31 294
-64 341 -74 47 -10 202 -47 345 -83 1103 -275 1461 -350 2120 -441 99 -14 225
-30 280 -36 55 -6 136 -15 180 -20 399 -48 1265 -69 1863 -45 142 6 192 18
192 45 0 5 -361 10 -802 13 -804 5 -840 6 -1313 47 -127 12 -393 44 -485 60
-30 5 -118 19 -195 30 -185 28 -602 104 -740 136 -60 14 -141 32 -180 40 -38
8 -196 46 -350 84 -154 38 -320 78 -370 90 -49 11 -207 50 -350 85 -632 155
-992 224 -1340 256 -170 16 -549 16 -695 1 -287 -31 -663 -123 -860 -210 -89
-39 -325 -155 -337 -166 -7 -6 -20 -17 -29 -25 -16 -13 -15 -15 2 -28 22 -16
40 -13 189 33 194 61 262 77 425 103 299 48 650 69 860 52 261 -22 407 -49
700 -130 158 -43 390 -150 524 -241 271 -183 351 -458 216 -735 -48 -99 -169
-252 -291 -370 -327 -315 -751 -515 -1287 -607 -106 -18 -165 -22 -362 -22
-211 0 -265 4 -530 37 -162 21 -338 43 -390 49 -125 15 -503 15 -605 -1 -338
-51 -575 -126 -866 -271 -74 -37 -270 -165 -757 -493 -79 -54 -176 -116 -215
-139 -40 -23 -112 -66 -161 -95 -49 -29 -95 -53 -103 -53 -7 0 -13 -4 -13 -8
0 -14 -300 -163 -490 -245 -459 -196 -805 -294 -1265 -357 -209 -28 -280 -32
-502 -32 -226 1 -305 9 -543 53 -482 90 -836 258 -1018 485 -80 100 -96 149
-97 284 0 113 1 117 38 194 73 154 164 256 352 397 142 106 270 187 593 374
115 67 427 267 572 366 87 60 133 109 110 117 -5 2 -76 -41 -157 -95 -151
-101 -429 -274 -608 -378 -231 -135 -277 -163 -410 -253 -77 -53 -169 -119
-205 -147 -145 -116 -251 -253 -312 -402 -29 -70 -32 -88 -32 -178 0 -84 4
-110 25 -160 81 -195 248 -343 536 -474 407 -185 904 -272 1374 -242 579 38
1094 177 1709 461 152 71 231 112 400 208 42 24 169 99 190 112 8 6 42 27 74
48 58 36 274 180 591 392 261 175 336 217 520 293 349 143 575 187 960 187
223 0 296 -6 700 -55 464 -56 656 -58 955 -6 204 35 328 70 535 152 462 182
867 520 1029 859 20 41 36 82 36 92 0 10 7 18 16 18 41 0 -12 -250 -85 -405
-184 -388 -741 -822 -1391 -1083 -167 -67 -332 -121 -590 -192 -63 -18 -134
-38 -158 -46 -82 -27 -92 -14 -37 47 29 33 35 46 35 86 0 107 -117 183 -383
248 -221 55 -342 69 -587 69 -241 0 -326 -11 -550 -70 -286 -75 -737 -288
-1150 -544 -47 -29 -460 -272 -601 -353 -501 -289 -933 -450 -1529 -571 -224
-45 -357 -62 -605 -77 -560 -32 -1117 52 -1565 236 -205 85 -336 169 -466 300
-156 156 -201 267 -192 470 6 123 35 212 104 316 86 128 157 197 349 333 54
38 492 302 847 511 21 13 288 181 388 245 65 41 316 196 413 254 254 154 724
472 847 575 81 68 288 251 346 307 204 196 455 531 558 746 28 59 57 108 64
108 17 0 15 -10 -12 -83 -80 -213 -265 -483 -478 -699 -95 -95 -491 -461 -654
-603 -50 -44 -145 -118 -210 -164 -309 -219 -538 -406 -613 -502 -79 -99 -163
-187 -276 -289 -66 -59 -215 -201 -331 -316 -175 -173 -217 -219 -240 -269
-82 -172 16 -383 225 -488 99 -50 235 -73 337 -58 72 11 218 63 230 82 9 15
34 10 34 -6 0 -28 49 -113 86 -149 21 -20 62 -48 93 -63 47 -23 69 -28 136
-28 70 0 87 4 141 32 34 18 75 46 92 63 38 38 48 38 56 -1 3 -18 22 -47 43
-67 129 -122 357 -101 495 44 23 24 47 44 54 44 6 0 17 -14 24 -30 14 -33 64
-81 109 -105 68 -34 208 -27 292 15 58 30 137 98 182 156 23 30 47 54 52 53 6
0 24 -21 40 -46 50 -78 148 -101 279 -67 121 31 243 111 389 253 96 93 85 86
267 168 85 38 179 87 209 109 91 66 261 211 487 415 232 208 373 308 689 489
241 137 313 188 420 295 182 182 245 361 216 611 -15 132 -34 206 -126 491
-41 127 -75 236 -75 242 0 17 19 13 53 -13 59 -44 120 -69 183 -74 84 -6 160
27 201 90 27 41 28 49 27 153 0 81 -7 141 -27 230 -15 66 -34 149 -41 185 -8
36 -22 99 -32 140 -17 75 -17 75 20 173 62 165 71 209 69 347 0 91 -9 175 -33
310 -34 200 -34 218 3 355 16 63 21 107 20 210 -1 171 -37 571 -59 663 -18 73
-19 75 -137 198 -66 69 -133 132 -148 140 -37 18 -37 36 -4 220 138 759 174
982 224 1374 71 561 97 997 81 1400 -13 317 -24 426 -81 790 -32 205 -56 322
-163 800 -20 91 -40 181 -44 200 -5 26 -13 36 -29 38 -13 2 -23 0 -23 -4 0 -3
25 -120 55 -258 97 -439 124 -569 139 -661 77 -459 101 -781 93 -1255 -3 -179
-13 -417 -22 -530 -31 -405 -116 -988 -240 -1655 -30 -159 -65 -357 -79 -440
-14 -82 -44 -238 -66 -345 -23 -107 -61 -296 -85 -420 -26 -137 -56 -258 -75
-310 -101 -269 -124 -378 -108 -531 9 -93 4 -596 -7 -789 -6 -89 -4 -102 29
-207 48 -152 60 -229 52 -329 -6 -87 -44 -224 -78 -285 -28 -50 -100 -103
-178 -129 -55 -19 -79 -21 -155 -17 -94 6 -163 -6 -172 -30 -8 -21 17 -71 51
-100 84 -71 204 -101 281 -69 72 31 153 140 219 298 94 227 116 304 116 416 0
56 3 72 14 72 17 0 13 13 70 -220 24 -102 72 -268 105 -370 77 -232 98 -308
116 -412 19 -106 19 -265 0 -346 -27 -115 -114 -254 -216 -346 -58 -52 -248
-180 -334 -225 -191 -99 -413 -243 -560 -364 -33 -27 -143 -124 -244 -216
-256 -230 -348 -309 -407 -347 -63 -40 -352 -184 -370 -184 -16 0 -19 26 -4
35 11 7 50 79 50 91 0 18 -46 -38 -112 -135 -121 -178 -248 -281 -346 -281
-39 0 -39 0 -44 51 -6 56 -28 93 -78 126 -44 30 -79 29 -123 -4 -48 -37 -53
-60 -27 -121 18 -41 31 -55 64 -72 23 -11 48 -20 54 -20 7 0 12 -7 12 -15 0
-11 -11 -13 -52 -8 -109 12 -138 49 -138 173 1 104 21 145 138 265 131 135
150 158 178 218 28 60 30 103 8 135 -20 28 -36 28 -84 -4 -78 -52 -186 -258
-317 -603 -37 -100 -125 -214 -197 -256 -45 -27 -136 -45 -136 -28 0 6 -17 13
-37 17 -94 15 -213 98 -213 149 0 46 43 77 108 77 67 0 122 -65 122 -144 0
-35 20 -50 35 -26 14 23 -16 118 -50 158 -38 44 -107 74 -140 61 -79 -31 -57
12 86 174 88 99 151 203 179 294 25 82 25 104 -1 137 -17 22 -27 26 -47 21
-39 -10 -97 -72 -151 -162 -53 -90 -78 -154 -141 -368 -55 -188 -67 -218 -103
-272 -69 -102 -172 -148 -312 -141 -81 5 -128 21 -166 59 -14 14 -19 33 -19
74 0 30 4 55 9 55 5 0 40 -14 77 -32 57 -27 80 -32 136 -32 46 1 75 7 94 19
24 15 26 22 22 64 -7 69 -34 118 -83 146 -23 14 -53 25 -66 25 -38 -1 -102
-34 -131 -69 -53 -62 -63 -32 -21 63 38 85 77 142 180 259 166 189 210 260
199 322 -9 48 -32 46 -100 -13 -146 -124 -275 -350 -341 -597 -34 -123 -56
-167 -108 -218 -57 -55 -117 -78 -202 -79 -104 -2 -204 52 -239 127 -28 59
-19 186 19 251 15 27 49 87 74 134 83 152 146 236 280 375 184 190 193 201
189 243 -3 32 -7 37 -31 40 -38 5 -103 -36 -189 -116 -128 -121 -173 -192
-240 -381 -48 -135 -157 -363 -190 -398 -100 -103 -295 -138 -493 -87 -85 22
-149 60 -204 120 -72 78 -86 114 -85 209 3 134 1 128 27 122 87 -19 223 -60
259 -78 69 -35 166 -69 199 -69 36 0 78 42 109 107 38 81 22 144 -51 199 -96
73 -192 84 -297 34 -131 -62 -113 -35 116 180 203 191 363 349 537 532 108
114 211 202 369 315 376 269 397 286 761 632 394 374 463 450 602 663 116 179
194 352 252 558 5 19 34 116 64 215 30 99 76 258 103 353 48 174 48 174 91
204 93 63 180 211 202 343 22 124 -8 294 -81 460 -31 70 -31 70 -38 380 -8
322 -20 499 -56 832 -4 34 -1 117 5 185 13 132 5 243 -25 363 -20 78 -62 183
-86 216 -14 18 -24 60 -33 135 -7 60 -25 179 -39 264 -98 596 -99 607 -125
860 -25 244 -38 424 -51 705 -10 211 -18 333 -41 570 -16 176 -64 392 -144
650 -41 132 -93 312 -115 401 -45 174 -52 190 -70 179 -8 -5 -10 -22 -5 -54 9
-61 50 -228 80 -321 63 -201 126 -413 145 -490 52 -219 78 -470 95 -935 6
-155 36 -547 55 -730 14 -129 84 -585 136 -894 25 -145 43 -265 40 -268 -2 -3
-94 22 -203 55 -197 60 -349 103 -577 162 -279 73 -452 133 -569 198 -145 80
-609 381 -674 437 -52 44 -54 63 -19 203 221 873 273 1430 214 2277 -22 313
-29 353 -57 336 -10 -6 -8 -57 5 -237 22 -288 26 -983 6 -1179 -37 -370 -97
-686 -253 -1330 -184 -756 -191 -787 -278 -1251 -70 -369 -125 -712 -156 -959
-8 -71 -22 -182 -30 -245 -48 -384 -55 -760 -20 -1079 16 -143 24 -186 105
-551 78 -352 89 -524 44 -696 -36 -139 -89 -224 -189 -300 -56 -42 -194 -104
-287 -129 -167 -43 -241 -49 -582 -47 -250 2 -346 -1 -439 -14 -473 -64 -822
-251 -1361 -728 -141 -125 -246 -201 -347 -251 -73 -37 -297 -114 -447 -154
-73 -20 -157 -78 -275 -189 -126 -120 -160 -147 -230 -186 -93 -51 -284 -96
-409 -96 -76 0 -196 25 -264 55 -105 47 -174 153 -174 270 0 91 17 106 72 60
61 -52 219 -117 280 -117 71 1 163 55 194 114 18 35 18 62 -2 101 -51 100
-158 151 -247 118 -38 -15 -57 -14 -57 3 0 8 29 25 68 41 86 34 148 75 259
171 129 112 202 183 234 228 35 47 40 86 6 43 -12 -16 -33 -42 -46 -58 -45
-57 -141 -110 -141 -78 0 30 125 175 179 209 23 14 41 30 41 37 0 19 -8 16
-62 -18 -64 -42 -118 -105 -185 -216 -98 -164 -129 -191 -358 -318 -225 -124
-261 -161 -281 -285 -12 -75 -50 -94 -137 -68 -49 15 -97 61 -97 94 0 29 0 29
59 7 46 -16 49 -16 93 6 80 38 99 122 43 190 -14 16 -36 32 -50 35 -14 4 -25
14 -25 22 0 28 218 251 375 384 182 155 207 180 195 200 -12 20 -37 7 -161
-86 -115 -87 -265 -232 -378 -366 -72 -87 -110 -112 -97 -65 19 70 19 95 -3
109 -11 7 -21 20 -21 30 0 18 78 137 125 189 78 86 209 190 301 237 43 22 124
89 124 102 0 4 -7 11 -16 14 -19 7 -197 -93 -285 -160 -78 -60 -194 -186 -259
-282 -36 -53 -62 -81 -74 -82 -17 0 -18 6 -13 72 9 103 47 175 150 281 80 82
214 180 322 234 57 30 125 84 119 95 -11 17 -55 6 -130 -33 -108 -56 -142 -79
-266 -181 -59 -48 -115 -88 -124 -88 -42 0 37 162 115 237 68 66 122 98 386
231 229 114 550 284 604 320 15 9 33 22 42 27 16 10 47 30 162 107 32 21 60
38 63 38 4 0 103 76 137 105 9 8 20 15 23 15 4 0 41 31 83 68 42 37 146 127
231 199 85 73 175 151 200 174 25 22 97 83 161 135 140 113 338 315 394 402
25 38 47 62 58 62 36 0 249 -110 470 -243 309 -186 436 -249 582 -288 218 -58
382 21 448 215 29 85 23 147 -24 245 -36 74 -56 100 -148 191 -69 69 -145 131
-218 180 -62 41 -113 78 -113 82 0 4 -7 8 -15 8 -13 0 -77 32 -100 50 -5 4
-50 29 -100 55 -110 58 -259 151 -296 185 -14 14 -37 31 -50 39 -75 43 -209
144 -209 156 0 23 15 19 98 -26 120 -64 162 -90 162 -100 0 -5 6 -9 14 -9 15
0 119 -67 187 -121 23 -18 98 -70 168 -115 69 -46 131 -87 136 -91 23 -19 214
-106 260 -119 132 -37 200 -38 281 -3 84 35 140 104 165 202 46 185 -218 526
-611 787 -52 35 -96 67 -98 72 -2 4 -8 8 -14 8 -14 0 -121 79 -273 201 -66 52
-151 119 -190 147 -38 29 -75 57 -82 62 -6 5 -32 19 -57 31 -25 13 -47 31 -50
43 -3 12 -6 136 -6 276 0 330 -13 544 -80 1395 -66 835 -85 1292 -85 2068 0
620 -1 677 -16 677 -9 0 -20 -10 -24 -22 -3 -13 -9 -275 -12 -583 -5 -511 1
-802 24 -1227 5 -102 4 -118 -9 -118 -13 0 -17 25 -23 148 -13 289 -58 385
-213 458 -34 16 -61 34 -61 40 -1 23 -77 112 -131 156 -30 25 -131 103 -225
174 -129 98 -222 181 -390 347 -245 244 -328 311 -507 412 -226 127 -353 219
-523 379 -176 165 -459 406 -477 406 -4 0 -9 -4 -12 -9z m2174 -1924 c0 -18
-15 -31 -72 -62 -361 -193 -596 -400 -865 -762 -102 -136 -352 -509 -413 -614
-24 -41 -75 -121 -113 -179 -165 -247 -217 -308 -217 -250 0 22 107 241 173
355 141 243 455 685 625 880 32 36 225 244 283 305 51 53 207 188 274 237 116
84 181 111 268 112 53 1 57 -1 57 -22z m418 -819 c21 -318 41 -607 57 -798 46
-565 75 -1007 75 -1150 1 -63 5 -149 10 -190 4 -41 6 -77 4 -80 -3 -2 -33 10
-67 27 -34 17 -105 50 -157 74 -52 23 -99 46 -105 50 -5 4 -86 46 -180 94 -93
48 -177 92 -185 98 -14 11 -40 27 -85 51 -58 32 -108 73 -122 100 -41 79 -25
239 43 434 114 324 249 584 500 963 70 106 136 215 147 243 13 34 21 87 25
159 3 73 9 107 17 107 8 0 15 -55 23 -182z m-6455 -397 c40 -22 137 -62 217
-89 80 -28 209 -73 287 -101 257 -91 265 -96 289 -199 16 -67 1 -170 -51 -367
-35 -134 -52 -189 -167 -545 -104 -321 -235 -684 -408 -1130 -89 -229 -108
-305 -91 -374 25 -107 26 -106 -26 -186 -205 -320 -311 -444 -404 -475 -39
-13 -72 -16 -133 -12 -89 5 -166 29 -421 127 -88 34 -218 82 -290 106 -195 65
-280 100 -280 115 0 8 70 120 156 249 173 261 275 424 361 577 12 23 53 95 90
160 64 115 225 431 296 583 183 396 298 712 406 1120 47 178 66 294 66 396 0
100 0 101 103 45z m-133 24 c0 -21 -42 -296 -55 -355 -13 -62 -51 -213 -71
-282 -3 -10 -12 -18 -20 -18 -18 0 -18 -8 11 102 14 51 34 158 45 238 36 261
50 320 71 320 10 0 19 -2 19 -5z m9496 -296 c16 -17 55 -47 87 -66 54 -34 71
-60 45 -67 -7 -2 -33 -9 -56 -16 -57 -15 -126 -84 -159 -158 -25 -58 -114
-393 -153 -577 -11 -55 -29 -158 -40 -230 -10 -71 -25 -175 -34 -230 -8 -55
-18 -203 -21 -330 -8 -298 -20 -437 -51 -561 -13 -56 -24 -109 -24 -118 0 -23
-55 -21 -80 4 -11 11 -20 26 -20 33 0 44 105 720 161 1042 99 567 271 1305
304 1305 6 0 24 -14 41 -31z m390 -301 c354 -212 419 -239 859 -358 105 -29
231 -63 280 -77 50 -13 133 -36 185 -49 143 -38 280 -82 306 -98 28 -19 34
-48 74 -346 17 -129 35 -253 40 -275 26 -113 6 -207 -76 -365 -36 -68 -127
-180 -147 -180 -9 0 -12 49 -12 178 0 142 -4 189 -19 237 -24 81 -73 171 -104
191 -24 16 -26 16 -39 -2 -20 -27 -21 -192 -2 -319 40 -263 134 -478 390 -890
104 -169 101 -156 93 -306 -4 -72 -11 -129 -17 -129 -5 0 -25 13 -43 30 -59
51 -111 72 -183 74 -82 1 -141 -26 -218 -101 -69 -67 -97 -129 -90 -196 12
-93 107 -261 168 -292 43 -23 69 -18 129 21 30 20 73 46 96 59 22 12 50 29 62
36 12 7 24 10 28 6 4 -3 -6 -53 -21 -111 -28 -104 -28 -104 -92 -116 -76 -13
-142 -5 -198 23 -51 25 -220 195 -269 270 -57 88 -115 206 -174 357 -60 153
-133 322 -142 330 -3 3 -21 30 -39 60 -32 52 -128 171 -143 178 -5 2 -8 7 -8
11 0 5 -23 32 -50 62 -28 30 -53 63 -56 74 -44 153 -192 584 -217 630 -37 70
-75 97 -102 75 -16 -13 -17 -29 -13 -135 5 -103 11 -136 41 -227 72 -213 136
-314 259 -407 90 -67 106 -104 36 -83 -18 6 -103 27 -188 47 -85 20 -168 42
-185 50 -16 8 -51 23 -77 34 -27 11 -48 25 -48 31 0 5 -8 10 -18 10 -30 0
-138 78 -229 164 -98 93 -173 193 -273 368 -73 126 -87 142 -114 132 -24 -9
-25 -28 -9 -105 50 -244 214 -459 449 -592 185 -104 491 -187 689 -187 103 0
103 0 137 -42 97 -121 146 -218 269 -531 87 -221 199 -398 325 -515 133 -123
220 -156 347 -129 38 8 38 8 31 -30 -3 -21 -28 -114 -54 -208 -27 -93 -54
-194 -61 -222 -17 -69 -35 -68 -41 0 -2 29 -15 74 -27 100 -61 126 -272 297
-517 420 -49 24 -128 61 -177 81 -117 48 -286 134 -583 296 -144 78 -514 338
-514 360 0 6 -4 10 -9 10 -13 0 -151 136 -151 149 0 6 -6 11 -12 12 -7 0 -44
41 -83 91 -38 50 -94 121 -124 157 -29 36 -60 81 -69 98 -17 36 -18 27 28 288
16 91 23 189 30 405 10 344 25 481 96 840 91 459 145 610 242 683 32 25 44 28
88 25 43 -4 79 -22 260 -130z m-8691 21 c22 -6 112 -46 200 -89 199 -97 336
-155 412 -175 115 -30 245 -39 391 -26 321 28 429 33 632 28 118 -4 274 -13
345 -21 133 -16 638 -40 1070 -51 404 -10 567 -29 705 -82 36 -13 90 -34 120
-45 113 -44 348 -173 615 -338 160 -99 255 -150 454 -245 384 -182 456 -218
459 -226 2 -5 10 -9 18 -9 24 0 15 -25 -13 -38 -74 -33 -99 -55 -129 -114 -59
-116 -71 -308 -26 -395 13 -24 26 -43 30 -43 4 0 17 -3 30 -6 18 -5 22 -2 22
18 0 14 14 45 32 69 29 40 112 218 139 297 27 81 79 7 79 -113 0 -119 -45
-218 -110 -245 -23 -9 -26 -15 -17 -25 23 -25 81 20 124 96 51 90 54 215 6
321 -26 59 -26 59 -60 26 -21 -19 -63 -89 -103 -168 -90 -180 -102 -200 -121
-200 -23 0 -29 29 -29 149 0 129 23 204 81 255 54 50 162 75 175 41 4 -9 15
-12 32 -9 23 5 56 -16 207 -130 99 -74 203 -153 230 -175 28 -22 109 -80 180
-130 299 -208 340 -238 405 -298 37 -34 99 -100 139 -146 92 -109 95 -130 10
-83 -24 13 -69 32 -99 41 -74 23 -130 9 -182 -46 -72 -76 -84 -186 -30 -279
33 -58 147 -170 172 -170 12 0 20 -7 20 -16 0 -22 -57 -13 -159 26 -121 47
-389 211 -536 327 -5 5 -39 28 -75 52 -36 24 -67 47 -70 50 -12 15 -407 221
-423 221 -9 0 -288 137 -352 173 -108 60 -364 199 -500 271 -125 66 -216 122
-260 159 -41 34 -227 168 -251 179 -75 38 -114 30 -114 -24 0 -163 351 -394
964 -634 248 -98 356 -146 356 -160 0 -6 -19 -17 -42 -23 -63 -16 -102 -43
-152 -108 -103 -131 -137 -253 -101 -367 10 -31 22 -56 26 -56 5 0 9 -6 9 -12
0 -7 10 -13 23 -14 12 0 30 -4 40 -8 9 -5 17 -4 17 1 0 6 -11 15 -24 21 -49
22 -72 108 -56 207 26 160 146 301 273 322 39 6 107 -20 107 -41 0 -8 -27 -31
-59 -50 -33 -20 -73 -52 -89 -71 -48 -54 -100 -155 -116 -225 -26 -110 -17
-105 35 20 60 143 145 250 197 250 27 0 32 -36 22 -133 -9 -79 -40 -167 -59
-167 -6 0 -11 -6 -11 -13 0 -19 -60 -74 -97 -89 -23 -10 -30 -17 -23 -28 22
-36 144 61 190 150 39 76 51 243 20 274 -19 19 -11 36 18 36 56 0 104 -23 224
-107 179 -126 292 -198 478 -303 194 -110 220 -127 366 -236 121 -91 194 -159
194 -180 0 -20 -14 -18 -73 13 -38 19 -71 27 -127 31 -71 4 -78 2 -121 -27
-61 -41 -100 -112 -107 -197 -4 -54 -1 -71 21 -117 32 -65 125 -170 167 -187
45 -19 40 -43 -7 -34 -82 14 -202 59 -303 111 -130 68 -288 160 -316 185 -11
10 -24 18 -28 18 -5 0 -28 14 -53 30 -24 17 -47 30 -52 30 -4 0 -28 14 -55 30
-76 48 -212 115 -336 165 -140 56 -139 56 -223 94 -37 17 -70 31 -72 31 -2 0
-27 14 -56 30 -28 17 -84 48 -123 69 -39 21 -120 66 -181 101 -60 34 -126 72
-145 83 -50 28 -198 102 -245 122 -219 93 -293 117 -363 118 -65 0 -98 -13
-107 -44 -14 -44 120 -151 320 -255 33 -17 132 -76 220 -131 88 -55 197 -122
243 -149 116 -68 147 -96 182 -168 39 -78 47 -151 26 -229 -51 -193 -173 -312
-333 -325 -147 -11 -275 40 -613 248 -74 46 -283 170 -285 170 -2 0 -37 20
-78 44 -85 50 -237 106 -289 106 -22 0 -42 -7 -53 -20 -16 -18 -16 -23 -4 -57
21 -55 129 -122 356 -222 305 -134 365 -165 411 -215 72 -78 80 -184 22 -302
-63 -129 -197 -192 -389 -181 -141 7 -425 90 -776 227 -27 11 -129 31 -226 45
-201 29 -277 47 -404 97 -49 20 -139 55 -200 77 -60 23 -119 46 -130 50 -11 5
-45 16 -75 26 -311 100 -732 321 -945 496 -264 216 -321 260 -399 308 -164
100 -321 168 -536 230 -263 77 -456 144 -602 212 -29 13 -34 28 -19 57 6 9 66
132 135 272 116 235 222 482 282 655 79 229 171 646 220 1000 18 130 57 323
70 343 30 45 95 61 169 41z m-259 -246 c-4 -21 -20 -121 -36 -223 -74 -466
-181 -861 -329 -1210 -84 -198 -283 -600 -297 -600 -15 0 -24 24 -24 63 0 55
31 157 112 372 125 329 300 813 361 1000 76 232 174 554 182 599 5 23 13 36
22 36 12 0 14 -8 9 -37z m10718 -599 c10 -47 20 -126 23 -175 5 -78 4 -89 -11
-89 -9 0 -16 3 -16 8 0 13 -30 266 -36 305 -4 28 -2 37 9 37 10 0 19 -25 31
-86z m-332 -469 c29 -76 31 -89 35 -267 5 -159 3 -188 -9 -188 -36 0 -122 503
-91 534 18 18 38 -6 65 -79z m-1105 -115 c29 -59 83 -218 143 -420 13 -41 31
-92 41 -112 43 -85 8 -92 -56 -10 -57 72 -107 166 -138 262 -28 84 -57 241
-57 307 0 65 27 54 67 -27z m-5037 41 c19 -10 73 -47 120 -82 260 -194 237
-180 513 -321 97 -50 177 -95 177 -99 0 -5 6 -9 14 -9 16 0 138 -59 146 -70 3
-4 15 -10 28 -14 20 -7 32 -36 15 -36 -19 1 -99 33 -214 87 -68 33 -216 102
-329 153 -264 121 -318 152 -398 225 -74 67 -142 150 -142 171 0 19 29 18 70
-5z m4224 -96 c45 -81 147 -248 156 -255 3 -3 24 -27 45 -54 49 -61 113 -121
188 -178 54 -42 72 -68 44 -68 -28 0 -184 103 -240 158 -115 113 -181 217
-238 377 -34 98 -34 97 -12 93 9 -2 35 -35 57 -73z m2270 -117 c4 -62 13 -192
21 -288 19 -242 25 -520 11 -520 -6 1 -25 24 -42 53 -17 29 -58 95 -91 147
-97 152 -175 300 -180 340 -5 34 -2 40 23 53 16 9 43 28 59 44 33 31 105 128
105 142 0 5 6 14 13 20 8 6 22 35 32 66 29 85 41 71 49 -57z m2483 -183 c101
-110 139 -162 153 -214 13 -47 27 -177 40 -381 6 -91 15 -206 21 -257 9 -83 8
-101 -15 -200 -24 -109 -73 -243 -89 -243 -5 0 -24 16 -43 36 -30 33 -38 36
-71 31 -27 -5 -48 -18 -73 -45 -60 -67 -72 -84 -98 -146 -22 -52 -27 -80 -30
-190 -4 -128 -4 -128 -54 -124 -27 3 -62 14 -76 25 -39 29 -89 117 -103 182
-33 160 41 498 145 665 25 39 70 97 100 128 53 53 70 88 45 88 -10 0 -29 -13
-86 -60 -17 -14 -33 -12 -33 3 0 6 7 44 15 82 33 152 105 521 126 643 8 45 17
72 25 72 7 0 52 -43 101 -95z m-15257 -325 c0 -11 -38 -72 -151 -242 -42 -64
-80 -126 -84 -137 -3 -12 -13 -21 -22 -21 -27 0 -8 65 42 146 26 41 52 80 59
86 6 7 38 50 70 96 51 72 86 102 86 72z m7655 -77 c36 -17 48 -43 20 -43 -26
0 -75 30 -75 45 0 19 11 19 55 -2z m1339 -159 c88 -37 156 -94 175 -147 17
-45 13 -147 -8 -192 -45 -98 -119 -126 -216 -81 -183 83 -267 237 -205 373 40
90 121 105 254 47z m3904 -386 c55 -188 51 -332 -11 -462 -58 -119 -148 -201
-147 -133 1 49 39 190 58 210 11 12 32 42 47 66 27 44 27 45 12 95 -9 28 -19
68 -22 88 -10 51 13 208 30 208 6 0 22 -32 33 -72z m-235 -31 c59 -25 162
-163 130 -174 -8 -3 -13 -22 -13 -47 0 -49 -16 -101 -39 -129 -9 -10 -45 -36
-81 -57 -36 -22 -85 -53 -110 -69 -89 -60 -138 -34 -207 109 -37 76 -52 154
-39 205 10 40 95 125 151 151 58 28 156 32 208 11z m2655 -339 c2 -20 -4 -52
-13 -70 -41 -82 -171 -288 -182 -288 -19 0 -28 126 -14 195 16 74 32 106 84
162 37 40 44 44 81 41 39 -3 41 -4 44 -40z m140 -180 c25 -212 28 -319 11
-400 -20 -98 -60 -219 -75 -225 -7 -3 -27 6 -44 20 -57 48 -111 47 -172 -3
-56 -46 -81 -121 -79 -240 1 -88 20 -180 42 -205 15 -15 10 -44 -11 -65 -24
-24 -107 -27 -149 -6 -58 30 -111 111 -152 231 -9 25 -14 82 -13 155 0 136 18
213 79 350 43 95 43 95 111 100 50 4 78 11 101 28 49 35 109 107 149 180 80
148 157 272 168 272 8 0 19 -65 34 -192z m-6627 146 c30 -16 77 -52 105 -79
47 -47 51 -55 58 -112 11 -95 -14 -165 -78 -221 -58 -51 -142 -55 -230 -11
-53 26 -81 54 -130 128 -44 68 -53 122 -32 193 17 58 47 97 92 122 45 26 147
16 215 -20z m5999 -323 c0 -5 16 -26 35 -47 34 -36 44 -67 26 -78 -5 -4 -22
-38 -37 -76 -43 -110 -54 -95 -54 70 0 118 2 140 15 140 8 0 15 -4 15 -9z
m507 -463 c29 -28 29 -61 -1 -140 -43 -115 -126 -278 -141 -278 -22 0 -46 93
-52 201 -6 110 4 154 49 205 26 29 36 34 76 34 33 0 52 -6 69 -22z m-4677 -83
c342 -41 660 -159 805 -299 93 -91 120 -152 120 -276 0 -88 -3 -100 -34 -165
-88 -178 -338 -343 -641 -423 -159 -42 -205 -50 -357 -62 -211 -17 -449 15
-798 105 -318 82 -496 109 -715 110 -187 0 -305 -19 -496 -80 -234 -74 -391
-156 -648 -339 -222 -158 -256 -189 -699 -623 -464 -456 -736 -660 -1142 -859
-171 -84 -263 -121 -408 -163 -445 -129 -835 -158 -1292 -95 -296 40 -610 150
-770 269 -179 133 -251 254 -270 455 -28 280 227 585 735 880 19 11 51 30 70
42 19 11 139 78 265 147 127 70 248 139 270 154 45 30 65 34 65 12 0 -23 -74
-93 -172 -162 -81 -58 -113 -78 -177 -112 -68 -36 -260 -169 -339 -235 -124
-103 -205 -189 -267 -282 -59 -87 -80 -131 -101 -209 -55 -201 72 -430 301
-547 178 -90 304 -129 550 -168 341 -55 677 -28 1040 82 115 35 315 111 425
161 214 98 569 340 833 566 49 42 108 92 131 111 24 19 96 80 161 135 132 113
226 188 365 293 52 39 100 76 107 82 40 34 278 192 404 268 113 68 280 140
444 190 208 64 420 78 900 58 315 -13 428 5 612 95 85 41 116 63 181 127 135
135 191 280 199 517 5 156 12 186 55 216 58 42 109 46 288 24z m4763 -147 c24
-102 23 -141 -5 -153 -66 -29 -58 -133 22 -289 47 -91 50 -101 40 -132 -16
-48 -70 -74 -152 -74 -83 1 -134 25 -207 97 -58 58 -95 130 -108 211 -6 32 -6
32 43 32 76 0 118 16 158 60 35 39 143 237 159 293 14 48 32 31 50 -45z
m-5155 -150 c-6 -107 -50 -253 -99 -330 -101 -157 -310 -274 -542 -303 -49 -6
-57 -5 -57 9 0 9 8 16 18 16 48 0 187 45 280 91 86 42 117 63 181 127 52 52
87 98 109 142 36 73 82 242 82 301 0 29 4 39 16 39 15 0 16 -11 12 -92z m5210
-135 c32 -151 35 -183 17 -183 -8 0 -22 14 -31 32 -59 115 -73 248 -25 248 14
0 22 -20 39 -97z m-3828 -287 c0 -148 -98 -334 -255 -484 -85 -82 -298 -232
-329 -232 -9 0 -16 -4 -16 -8 0 -25 -390 -191 -576 -246 -49 -15 -98 -31 -109
-36 -66 -30 -558 -139 -632 -140 -24 0 -13 25 22 49 74 50 132 155 120 216
-16 82 -119 174 -255 228 -113 44 -378 87 -538 87 -133 0 -301 -29 -473 -81
-77 -23 -342 -155 -397 -196 -20 -16 -57 -42 -81 -58 -100 -67 -287 -267 -375
-400 -94 -141 -180 -296 -246 -440 -142 -313 -162 -365 -167 -440 -3 -38 -3
-68 0 -65 5 5 64 140 164 374 185 436 371 703 638 915 200 159 472 278 725
316 262 40 612 -2 813 -98 105 -50 137 -93 137 -180 0 -54 -27 -97 -87 -141
-102 -76 -175 -100 -568 -191 -160 -37 -310 -73 -335 -80 -300 -88 -397 -124
-570 -210 -323 -160 -489 -298 -782 -647 -52 -62 -149 -179 -217 -261 -177
-212 -347 -364 -589 -526 -247 -166 -587 -314 -852 -372 -47 -10 -105 -23
-130 -29 -128 -32 -468 -70 -614 -70 -310 1 -798 87 -1046 184 -294 116 -472
276 -589 528 -68 146 -148 478 -170 712 -14 144 -14 156 4 156 8 0 15 -6 15
-14 0 -7 19 -51 42 -97 131 -262 500 -451 1048 -536 180 -28 676 -25 857 5
221 36 357 72 628 167 134 47 419 199 600 320 292 194 445 324 820 694 359
354 515 488 753 648 310 209 620 315 958 330 198 9 421 -26 799 -122 349 -89
570 -117 784 -97 198 19 454 88 606 164 216 109 384 268 427 406 17 56 38 55
38 -2z m3090 -205 c0 -20 -60 -141 -69 -141 -6 0 -13 -11 -17 -25 -16 -63
-112 -106 -205 -91 -78 12 -179 80 -179 119 0 47 11 51 99 37 130 -22 254 9
315 77 27 31 56 43 56 24z m-9834 -812 c-6 -67 -21 -99 -45 -99 -6 0 -8 -12
-4 -30 4 -23 2 -30 -10 -30 -16 0 -21 11 -32 72 -6 39 7 75 48 131 38 50 51
36 43 -44z m157 -215 c21 -72 -49 -127 -132 -104 -33 9 -41 15 -41 34 0 40 88
108 135 104 23 -2 31 -9 38 -34z m532 5 c58 -27 85 -65 85 -119 0 -31 -6 -47
-25 -65 -74 -68 -161 -72 -290 -11 -79 37 -145 88 -145 113 0 14 101 69 165
89 64 20 158 17 210 -7z m5435 -822 c0 -7 -32 -44 -71 -82 -80 -79 -259 -283
-259 -296 0 -5 -7 -9 -15 -9 -67 0 99 242 245 357 54 42 100 56 100 30z m430
-243 c0 -24 -18 -52 -88 -139 -83 -104 -140 -165 -152 -165 -21 0 -9 34 36
103 104 160 204 259 204 201z m535 -51 c-13 -74 -37 -134 -86 -208 -92 -142
-169 -226 -169 -186 0 24 67 195 106 271 53 104 99 160 132 160 21 0 22 -3 17
-37z m645 2 c0 -33 -23 -77 -68 -135 -79 -100 -132 -144 -132 -108 0 21 104
201 136 235 38 40 64 43 64 8z m-2512 -27 c83 -42 101 -112 52 -207 -27 -54
-60 -60 -142 -26 -138 57 -186 75 -255 95 -42 12 -73 26 -73 34 0 16 76 71
127 93 58 25 92 31 172 32 58 1 84 -4 119 -21z m5447 -82 c346 -59 505 -132
505 -231 0 -96 -130 -157 -585 -276 -384 -100 -621 -175 -810 -259 -182 -80
-332 -154 -465 -231 -141 -81 -150 -87 -420 -265 -107 -71 -199 -131 -205
-134 -5 -3 -69 -44 -140 -91 -182 -121 -548 -344 -657 -400 -15 -8 -60 -32
-100 -55 -40 -23 -91 -49 -113 -60 -22 -10 -42 -21 -45 -24 -3 -3 -23 -14 -45
-24 -22 -10 -70 -33 -107 -52 -37 -19 -84 -41 -105 -48 -21 -7 -58 -23 -83
-34 -71 -32 -277 -107 -391 -142 -454 -139 -815 -186 -1249 -161 -231 14 -356
30 -545 71 -434 94 -749 221 -1005 405 -74 53 -196 184 -253 270 -99 151 -135
232 -193 445 -29 103 -84 410 -84 466 0 30 26 11 48 -34 91 -187 358 -383 711
-521 211 -83 515 -152 816 -187 182 -22 659 -25 835 -6 242 26 559 84 780 143
448 119 762 252 1245 524 66 38 149 85 185 105 36 20 167 98 293 173 125 75
229 137 232 137 2 0 46 25 97 56 144 88 458 244 613 306 168 67 321 112 470
138 157 28 167 28 405 25 176 -3 242 -8 365 -29z m-3027 -438 c29 -31 62 -93
62 -119 0 -9 -20 -10 -72 -6 -62 5 -76 10 -95 32 -28 32 -31 92 -5 111 31 24
75 17 110 -18z m-1223 0 c31 -24 55 -74 55 -114 0 -26 0 -26 -92 -22 -110 4
-173 29 -173 69 0 19 13 30 63 56 74 39 109 41 147 11z m437 -250 c26 -12 48
-28 48 -35 0 -16 -14 -16 -59 -3 -35 10 -51 25 -51 48 0 16 6 15 62 -10z"/>
<path d="M11401 9263 c-1 -16 5 -23 17 -23 10 0 13 3 6 8 -6 4 -14 14 -17 22
-4 10 -6 8 -6 -7z"/>
<path d="M11083 8393 c4 -3 10 -3 14 0 3 4 0 7 -7 7 -7 0 -10 -3 -7 -7z"/>
<path d="M8590 5365 c0 -3 2 -5 5 -5 3 0 5 2 5 5 0 3 -2 5 -5 5 -3 0 -5 -2 -5
-5z"/>
<path d="M13550 9045 c0 -3 2 -5 5 -5 3 0 5 2 5 5 0 3 -2 5 -5 5 -3 0 -5 -2
-5 -5z"/>
<path d="M13513 9018 c-62 -69 -83 -140 -83 -283 -1 -83 6 -141 27 -235 21
-97 27 -153 27 -250 1 -117 -1 -131 -33 -220 -58 -163 -147 -320 -183 -320 -5
0 -16 -7 -24 -15 -18 -17 -36 -19 -82 -6 -17 5 -32 6 -32 2 0 -36 96 -42 150
-10 81 49 169 185 231 359 35 100 32 277 -9 465 -51 236 -52 376 -1 447 10 15
19 35 19 46 0 10 5 23 12 30 7 7 10 12 7 12 -3 0 -15 -10 -26 -22z"/>
<path d="M9720 5785 c0 -3 2 -5 5 -5 3 0 5 2 5 5 0 3 -2 5 -5 5 -3 0 -5 -2 -5
-5z"/>
<path d="M14313 3654 c-23 -12 -36 -27 -43 -53 -24 -85 -1 -123 107 -177 59
-29 113 -27 169 7 78 47 63 174 -26 219 -49 25 -160 27 -207 4z m206 -49 c18
-18 25 -38 29 -79 4 -53 3 -56 -22 -66 -72 -27 -168 -1 -220 60 -37 44 -34 68
12 87 89 38 160 37 201 -2z"/>
</g>
</svg>