<svg version="1.0" xmlns="http://www.w3.org/2000/svg"
 width="2816.000000pt" height="1536.000000pt" viewBox="0 0 2816.000000 1536.000000"
 preserveAspectRatio="xMidYMid meet">
    <style>
        path {
            stroke: #000000;
            stroke-width: 52px;
            stroke-dasharray: 40000;
            stroke-dashoffset: 40000;
            fill: #000000;
            fill-opacity: 0;
            animation: 
                draw 2s ease-out forwards, 
                fill 0.5s ease-in forwards 1.5s,
                thin_stroke 0.5s ease-in forwards 1.5s;
        }
        @keyframes draw {
            to {
                stroke-dashoffset: 0;
            }
        }
        @keyframes fill {
            to {
                fill-opacity: 1;
            }
        }
        @keyframes thin_stroke {
            to {
                stroke-width: 20px;
            }
        }
    </style>

<metadata>
Created by potrace 1.16, written by Peter Selinger 2001-2019
</metadata>
<g transform="translate(0.000000,1536.000000) scale(0.100000,-0.100000)">
<path d="M4723 15333 c4 -16 38 -174 77 -353 39 -179 88 -410 110 -515 64
-311 210 -996 315 -1475 60 -275 91 -418 160 -745 24 -115 56 -264 70 -330 15
-66 64 -300 110 -520 46 -220 95 -452 109 -515 114 -526 186 -868 186 -886 0
-16 -8 -23 -31 -28 -48 -9 -86 -42 -105 -92 -16 -43 -16 -48 0 -99 21 -67 47
-101 91 -116 23 -9 35 -19 35 -32 0 -10 11 -33 25 -51 52 -68 55 -89 54 -323
-2 -220 5 -281 42 -370 12 -29 11 -37 -8 -77 -31 -63 -53 -182 -54 -289 -1
-116 7 -170 34 -227 17 -35 28 -46 50 -48 30 -4 32 -9 16 -49 -8 -18 -12 -158
-14 -413 -2 -212 -8 -450 -14 -530 -38 -514 -45 -690 -46 -1186 0 -510 0 -510
-55 -534 -127 -55 -222 -140 -376 -340 -105 -136 -210 -236 -359 -339 -244
-170 -363 -278 -425 -386 -16 -27 -54 -79 -85 -115 -94 -108 -116 -176 -78
-241 16 -27 16 -31 -6 -94 -25 -70 -23 -100 9 -145 15 -21 19 -42 17 -98 -2
-65 0 -73 26 -100 25 -26 28 -35 22 -73 -4 -34 -1 -51 15 -77 21 -35 74 -72
103 -72 14 0 17 -9 17 -44 0 -56 49 -132 102 -161 21 -11 38 -25 38 -31 0 -12
-67 -44 -195 -94 -139 -53 -379 -105 -645 -139 -482 -61 -1381 -87 -2660 -77
-454 3 -955 3 -1113 0 -286 -7 -287 -7 -287 -29 0 -22 0 -22 1097 -28 1700 -9
2388 11 2999 88 308 39 468 78 698 172 232 94 361 195 457 356 50 86 253 302
435 464 205 184 272 236 385 303 51 30 110 71 131 91 32 31 38 43 38 78 0 25
5 41 12 41 6 0 32 -17 57 -38 74 -61 107 -82 168 -104 53 -20 79 -21 318 -22
243 -1 265 0 331 21 45 14 85 35 105 54 30 28 38 31 79 26 57 -8 355 -87 660
-177 506 -149 632 -199 879 -347 206 -124 376 -207 481 -234 137 -35 296 -37
525 -5 105 15 211 30 236 33 46 5 46 5 98 -124 72 -179 98 -283 71 -283 -5 0
-35 16 -66 36 -152 97 -290 97 -422 1 -59 -44 -97 -89 -139 -167 -37 -67 -57
-146 -78 -310 -40 -311 -81 -401 -285 -625 -163 -180 -216 -278 -239 -447 -7
-49 -19 -83 -45 -125 -69 -113 -84 -208 -45 -293 26 -57 44 -77 93 -102 48
-25 101 -19 154 17 42 29 59 30 86 10 28 -21 55 -18 105 10 23 14 59 25 78 25
41 0 83 20 143 70 25 21 60 40 78 44 76 14 149 97 211 242 119 275 219 426
374 562 96 84 170 119 277 133 96 12 291 6 462 -16 62 -8 194 -24 293 -35 220
-26 257 -35 463 -111 90 -33 191 -67 225 -76 82 -21 235 -21 308 0 71 21 199
79 264 120 82 52 317 239 752 600 41 33 51 37 102 37 31 0 86 8 123 18 125 35
201 101 361 315 119 159 158 223 159 258 1 37 -5 43 -35 35 -25 -6 -229 -172
-346 -281 -203 -189 -277 -245 -321 -245 -40 0 -136 59 -212 130 -142 132
-243 289 -332 520 -81 210 -112 257 -194 297 -53 26 -65 28 -169 27 -130 -2
-133 1 -85 77 43 66 103 115 195 158 45 21 96 50 112 65 17 14 34 26 39 26 20
0 115 83 163 142 107 133 196 351 244 601 17 90 119 796 119 825 0 7 6 12 14
12 9 0 16 -18 20 -52 4 -29 23 -101 42 -160 135 -417 439 -933 707 -1201 151
-151 354 -294 470 -331 9 -3 17 -11 17 -18 0 -9 -20 -14 -68 -15 -37 -1 -125
-11 -197 -23 -577 -94 -937 -57 -1340 135 -130 62 -166 72 -185 50 -7 -8 -19
-15 -27 -15 -21 0 -9 -62 23 -115 36 -61 140 -161 230 -221 514 -343 1283
-365 1611 -45 49 47 72 87 81 144 10 57 27 58 157 2 284 -121 368 -106 649
119 146 116 178 134 292 157 198 41 311 96 350 172 18 34 7 59 -36 77 -42 17
-39 40 6 40 50 0 225 37 314 67 86 28 258 112 345 168 147 94 298 228 472 418
244 267 279 304 463 498 294 308 363 391 495 589 67 102 134 196 148 209 33
30 60 26 253 -34 87 -28 159 -45 190 -45 69 0 135 37 238 132 85 79 85 79 178
53 91 -25 233 -57 595 -136 100 -22 230 -56 288 -75 343 -113 429 -123 1245
-134 354 -5 632 -13 670 -19 45 -8 106 -32 195 -76 73 -37 154 -70 184 -75 80
-15 201 -12 336 6 110 15 132 15 254 1 159 -18 217 -9 263 42 98 110 -3 213
-229 236 -88 8 -95 24 -25 55 79 36 272 97 362 114 161 31 225 49 282 77 66
33 93 67 84 103 -12 50 -103 89 -163 71 -42 -13 -25 19 23 44 88 47 107 102
51 145 -38 29 -101 34 -197 16 -118 -22 -148 -22 -174 5 -49 49 -139 44 -343
-18 -61 -19 -156 -53 -210 -75 -54 -22 -156 -59 -228 -83 -127 -43 -133 -44
-260 -43 -108 0 -147 4 -231 27 -195 51 -421 128 -614 207 -452 186 -696 257
-928 267 -144 7 -217 -6 -263 -45 -21 -17 -35 -23 -44 -16 -7 5 -24 18 -39 28
-29 21 -269 98 -437 142 -96 25 -106 30 -142 70 -22 25 -60 57 -85 72 -26 15
-121 73 -210 129 -90 56 -208 123 -262 150 -54 26 -99 53 -99 59 -1 7 27 14
69 18 138 14 252 99 317 236 35 74 98 171 175 269 90 113 143 210 174 320 34
121 30 221 -15 360 -43 131 -43 226 -1 302 102 183 133 266 149 397 5 41 12
76 16 80 3 3 15 1 25 -6 17 -10 23 -7 44 21 73 95 107 357 72 539 -42 212
-165 437 -340 616 -182 188 -604 434 -921 536 -288 93 -624 101 -861 21 -88
-30 -192 -81 -270 -133 -93 -62 -103 -67 -110 -59 -11 10 32 98 94 191 28 44
52 83 52 87 0 21 -25 16 -97 -18 -124 -59 -215 -156 -259 -277 -21 -60 -21
-60 -135 -60 -104 -1 -120 -4 -177 -30 -44 -20 -80 -48 -123 -94 -54 -58 -59
-66 -46 -80 14 -13 26 -13 114 2 123 20 193 21 193 3 0 -8 -23 -29 -51 -47
-198 -128 -346 -352 -400 -605 -60 -279 -36 -659 59 -935 54 -156 174 -389
294 -570 51 -77 74 -101 117 -127 30 -18 58 -34 62 -35 5 -2 11 -17 15 -34 6
-29 3 -32 -35 -48 -56 -22 -67 -21 -136 14 -66 32 -107 36 -199 19 -68 -12
-95 -5 -157 43 -115 87 -266 121 -447 99 -173 -21 -317 -25 -352 -11 -34 14
-36 27 -15 96 23 77 55 250 55 302 0 58 -16 119 -41 154 -25 34 -24 49 5 106
13 26 33 91 45 145 36 164 27 479 -20 679 -11 47 -11 47 44 115 77 96 130 200
166 328 46 164 73 307 196 1030 69 404 157 809 246 1124 23 80 48 159 56 175
8 15 41 54 72 85 94 91 152 226 225 516 44 178 99 428 136 620 40 203 76 382
111 550 35 169 89 455 89 473 0 6 -11 12 -25 12 -20 0 -25 -6 -31 -37 -3 -21
-19 -99 -35 -174 -27 -131 -50 -247 -123 -624 -95 -494 -184 -883 -237 -1041
-38 -113 -99 -228 -124 -233 -16 -3 -17 2 -11 45 3 27 8 87 11 134 5 74 3 92
-17 140 -37 87 -101 118 -185 88 -18 -6 -35 -9 -39 -5 -27 27 192 949 380
1602 14 50 26 93 26 98 0 4 -13 7 -30 7 -20 0 -30 -5 -30 -15 0 -8 -40 -162
-89 -342 -181 -661 -255 -969 -296 -1223 -14 -91 -38 -211 -52 -267 -27 -103
-27 -103 -61 -103 -123 0 -1214 366 -1786 599 -39 16 -174 71 -300 121 -126
50 -248 99 -270 109 -23 11 -80 35 -129 55 -48 20 -106 45 -130 55 -113 51
-205 91 -210 91 -3 0 -38 15 -79 34 -40 18 -121 54 -179 79 -59 26 -147 65
-195 88 -49 22 -116 52 -149 66 -33 14 -93 42 -135 63 -41 21 -101 50 -132 63
-52 23 -57 29 -63 64 -12 64 -53 211 -97 341 -37 110 -43 122 -64 122 -13 0
-24 -3 -24 -7 0 -5 16 -54 35 -110 45 -137 99 -342 91 -350 -3 -4 -50 8 -104
25 -142 45 -148 46 -195 28 -67 -26 -82 -55 -82 -159 0 -57 -4 -87 -11 -87
-12 0 -71 122 -99 205 -22 66 -91 347 -100 408 -7 44 -9 47 -36 47 -25 0 -29
-3 -24 -22 75 -345 127 -512 192 -624 21 -36 44 -76 50 -88 7 -11 13 -49 13
-82 0 -69 65 -450 111 -649 125 -545 403 -1452 624 -2030 153 -403 147 -379
161 -570 47 -630 60 -763 95 -920 20 -89 20 -98 5 -142 -22 -64 -20 -99 9
-191 25 -79 123 -280 170 -350 31 -45 31 -51 -1 -81 -62 -59 -87 -156 -73
-282 16 -137 79 -259 134 -259 38 0 46 27 35 121 -20 170 -11 240 34 271 20
14 131 9 153 -7 30 -21 63 -78 63 -109 0 -14 4 -26 9 -26 13 0 20 -22 42 -130
13 -62 34 -124 61 -178 23 -45 39 -85 35 -88 -3 -3 -32 3 -64 14 -64 22 -250
56 -388 72 -49 5 -263 19 -475 30 -394 21 -457 26 -713 60 -267 36 -302 47
-478 157 -65 40 -173 100 -240 134 -107 53 -136 73 -210 145 -50 48 -95 84
-106 84 -30 0 -70 -36 -83 -75 -13 -40 -22 -43 -52 -15 -31 28 -163 94 -238
118 -101 33 -398 93 -466 95 -69 2 -104 -15 -129 -63 -13 -26 -14 -34 -1 -64
8 -18 28 -42 45 -52 17 -10 31 -24 31 -32 0 -10 -17 -12 -82 -6 -188 15 -296
-44 -257 -138 19 -47 79 -84 159 -99 78 -14 93 -34 33 -44 -94 -15 -163 -59
-163 -104 0 -27 30 -62 67 -77 19 -8 98 -21 176 -29 160 -17 289 -33 330 -41
48 -10 31 -31 -35 -43 -119 -23 -200 -54 -240 -92 -42 -39 -47 -62 -22 -98 33
-46 64 -51 300 -44 288 7 263 13 674 -165 199 -86 320 -102 475 -62 136 35
134 35 480 -99 88 -35 255 -96 370 -138 116 -41 266 -95 335 -120 577 -208
796 -261 1170 -283 165 -10 288 -33 628 -115 149 -36 192 -50 192 -63 0 -14
34 -96 79 -191 9 -19 45 -63 80 -98 42 -41 61 -68 57 -78 -13 -34 -90 -138
-139 -187 -78 -79 -136 -106 -280 -129 -67 -11 -152 -27 -190 -35 -38 -9 -71
-14 -73 -11 -10 10 -98 247 -163 442 -71 209 -123 325 -163 362 -13 12 -40 29
-61 38 -70 29 -146 -13 -183 -100 -11 -28 -43 -136 -74 -252 -6 -26 -17 -43
-25 -43 -8 0 -15 4 -15 9 0 20 -141 347 -165 383 -33 50 -82 80 -107 67 -10
-5 -25 -24 -34 -41 -19 -37 -56 -206 -84 -389 -21 -135 -86 -448 -118 -569
-17 -65 -17 -65 -147 -72 -205 -11 -373 -56 -564 -152 -162 -82 -223 -126
-410 -295 -138 -126 -190 -215 -146 -251 9 -8 64 -15 138 -19 123 -7 124 -7
195 -50 78 -47 176 -144 235 -233 21 -32 64 -112 96 -178 37 -76 61 -115 65
-105 9 26 -5 76 -49 165 -97 199 -221 337 -380 426 -43 23 -65 28 -152 32 -58
2 -103 9 -103 14 0 32 184 209 325 313 221 164 460 250 728 262 135 6 140 6
134 -13 -3 -10 -26 -86 -52 -169 -25 -82 -85 -271 -132 -420 -174 -545 -253
-818 -253 -871 0 -15 -6 -24 -16 -24 -13 0 -15 9 -12 50 1 28 0 50 -4 50 -5 0
-8 7 -8 15 0 8 -4 15 -9 15 -4 0 -13 15 -19 33 -10 32 -10 32 -12 -18 -1 -27
-2 -58 -1 -67 3 -29 -22 -21 -60 18 -46 49 -113 98 -239 174 -234 143 -360
253 -360 316 0 22 19 17 123 -36 55 -28 101 -50 103 -50 2 0 4 7 4 15 0 18
-64 66 -135 102 -27 14 -95 55 -150 91 -55 36 -127 76 -159 89 -54 22 -63 23
-110 12 -90 -21 -239 -122 -344 -233 -29 -31 -60 -56 -69 -56 -8 0 -61 -11
-117 -24 -55 -13 -137 -31 -181 -40 -205 -44 -333 -105 -438 -208 -74 -74 -94
-84 -81 -40 18 57 9 193 -18 278 -111 340 -423 864 -992 1666 -59 84 -248 369
-344 520 -29 46 -98 173 -152 284 -99 201 -99 201 -80 240 11 21 20 55 20 75
0 110 -130 338 -245 429 -55 44 -56 46 -49 85 20 119 -27 266 -182 577 -35 70
-64 136 -64 147 0 11 -6 21 -12 23 -10 4 -6 19 12 58 21 45 25 68 24 139 -1
94 9 68 -194 561 -40 96 -85 211 -102 255 -41 110 -127 458 -192 776 -30 145
-71 341 -91 434 -20 94 -54 265 -76 380 -67 349 -171 848 -259 1245 -27 118
-67 303 -90 410 -44 203 -177 734 -280 1120 -33 124 -60 228 -60 233 0 4 -11
7 -25 7 -21 0 -25 -4 -20 -22 16 -75 52 -216 118 -463 75 -281 100 -384 222
-896 104 -444 188 -834 315 -1469 66 -327 130 -646 145 -709 14 -63 25 -127
25 -143 0 -46 -26 -34 -40 20 -34 127 -109 392 -176 627 -77 267 -195 689
-244 875 -16 58 -56 209 -90 335 -35 127 -71 268 -82 315 -10 47 -25 108 -33
135 -27 94 -163 720 -183 840 -11 66 -30 208 -42 315 -27 244 -26 240 -51 240
-19 0 -20 -4 -14 -72 32 -366 97 -729 210 -1185 148 -599 155 -627 241 -938
24 -88 64 -234 89 -325 168 -617 356 -1266 493 -1701 96 -305 120 -396 197
-749 19 -91 38 -175 41 -187 9 -34 -14 -29 -51 11 -36 40 -63 39 -95 -2 -25
-31 -27 -111 -4 -218 29 -145 52 -201 99 -250 43 -45 44 -46 97 -41 29 3 65 8
79 12 19 5 28 3 32 -8 3 -9 -1 -98 -9 -199 -24 -293 -28 -418 -15 -478 13 -61
59 -170 72 -170 13 0 11 -39 -5 -92 -8 -25 -20 -98 -26 -161 -12 -123 -4 -220
40 -474 55 -317 46 -872 -25 -1682 -36 -403 -81 -768 -105 -851 -29 -100 -54
-119 -175 -131 -112 -12 -115 -10 -115 62 0 25 -9 95 -20 155 -58 325 -213
757 -510 1429 -92 209 -234 535 -315 725 -150 353 -175 411 -186 420 -4 3 -9
15 -13 28 -4 12 -12 22 -17 22 -5 0 -7 17 -5 38 18 156 18 179 2 240 -36 138
-130 292 -227 374 -27 23 -49 44 -49 48 0 3 -27 55 -59 114 -77 141 -91 199
-91 375 0 160 -11 223 -51 301 -32 63 -94 134 -125 144 -12 4 -24 17 -27 29
-2 12 -23 103 -45 202 -22 99 -55 250 -72 335 -18 85 -51 243 -75 350 -24 107
-69 317 -100 465 -31 149 -76 360 -100 470 -24 110 -58 268 -75 350 -17 83
-44 213 -61 290 -16 77 -45 214 -65 305 -19 91 -48 228 -65 305 -16 77 -45
212 -64 300 -19 88 -48 223 -65 300 -17 77 -58 267 -90 423 -33 156 -75 354
-95 440 -19 86 -48 222 -64 302 -17 80 -46 222 -66 315 -20 94 -38 185 -42
203 -5 28 -10 32 -36 32 -27 0 -29 -2 -24 -27z m7477 -476 c95 -32 95 -32 95
-119 0 -70 -3 -90 -19 -107 -33 -37 -51 -27 -80 47 -36 90 -87 158 -125 167
-34 7 -91 -17 -91 -40 0 -8 -7 -15 -15 -15 -10 0 -15 10 -15 34 0 75 91 87
250 33z m-116 -91 c29 -28 86 -140 86 -167 0 -17 -5 -18 -42 -13 -81 11 -149
115 -119 180 14 31 45 31 75 0z m386 -20 c41 -18 192 -86 335 -151 267 -120
589 -261 730 -320 44 -18 168 -70 275 -115 107 -44 247 -102 310 -126 63 -25
176 -70 250 -99 172 -68 319 -124 445 -169 55 -19 188 -67 295 -106 284 -104
637 -217 880 -284 125 -34 125 -34 125 -77 0 -59 -13 -60 -167 -10 -218 71
-574 171 -931 262 -191 48 -396 102 -455 118 -59 17 -206 58 -327 91 -723 202
-1874 587 -1937 649 -9 9 -22 43 -29 76 -12 60 -12 60 28 100 43 42 63 93 63
158 0 47 11 47 110 3z m-490 -230 c0 -8 12 -21 28 -29 170 -89 228 -121 233
-129 25 -40 246 -1022 343 -1529 56 -291 116 -670 136 -859 6 -58 16 -127 21
-154 12 -63 12 -66 -5 -66 -7 0 -20 19 -29 43 -149 400 -249 688 -327 942 -27
88 -65 212 -85 275 -154 491 -321 1195 -341 1438 -6 72 -5 82 10 82 9 0 16 -6
16 -14z m227 -10 c1 0 4 -13 8 -29 9 -34 -7 -35 -70 -5 -64 31 -61 52 8 43 28
-4 53 -8 54 -9z m308 -246 c275 -105 1003 -348 1335 -445 69 -20 136 -40 150
-45 27 -9 181 -52 535 -149 233 -63 409 -109 725 -190 344 -88 592 -160 755
-219 66 -25 81 -34 84 -53 10 -69 -44 -543 -90 -779 -25 -131 -157 -672 -188
-771 -27 -84 -90 -348 -137 -570 -37 -172 -38 -176 -38 -415 -1 -240 -1 -240
-83 -329 -102 -110 -117 -139 -110 -216 3 -31 1 -61 -3 -66 -14 -15 -58 -166
-70 -246 -8 -46 -11 -116 -7 -172 5 -94 5 -94 -28 -115 -154 -95 -284 -409
-272 -658 2 -48 7 -96 11 -107 7 -20 2 -21 -119 -32 -102 -9 -138 -17 -182
-38 -54 -27 -54 -27 -176 -10 -368 51 -641 120 -849 214 -44 20 -47 24 -76
104 -16 45 -37 114 -46 152 -10 39 -24 95 -31 125 -8 30 -23 91 -34 135 -27
114 -57 186 -97 239 -42 55 -108 96 -155 96 -35 0 -35 0 -36 61 -3 78 -27 211
-60 321 -26 87 -26 87 -7 125 14 28 19 58 18 113 -2 145 -51 301 -242 770
-173 427 -156 372 -187 620 -68 547 -114 832 -201 1266 -31 153 -59 290 -61
304 -33 171 -165 772 -202 917 -12 45 -21 93 -21 108 0 32 -18 36 195 -45z
m3870 -650 c43 -16 58 -69 52 -180 -3 -52 -14 -126 -24 -165 -18 -70 -18 -70
-78 -73 -33 -1 -82 4 -110 11 -50 13 -50 13 -53 60 -3 42 0 48 21 56 30 12 37
29 37 91 0 88 18 146 56 180 37 32 57 36 99 20z m-150 -465 c33 -8 77 -15 98
-15 32 0 37 -3 37 -24 0 -13 -14 -68 -30 -122 -77 -248 -179 -717 -259 -1195
-105 -621 -167 -935 -209 -1060 -25 -73 -54 -129 -123 -236 -7 -13 -19 -23
-25 -23 -19 0 -24 37 -24 180 0 199 34 402 124 755 24 94 76 296 115 450 131
512 211 964 211 1199 0 63 8 106 19 106 3 -1 33 -7 66 -15z m2035 -1610 c285
-41 557 -149 870 -348 152 -96 183 -120 289 -222 104 -100 155 -166 215 -276
93 -172 127 -301 128 -484 0 -114 -28 -275 -48 -275 -9 0 -12 25 -12 103 1
116 -19 194 -79 309 -61 117 -90 124 -113 25 -7 -29 -25 -92 -41 -142 -32
-100 -95 -195 -171 -257 -47 -39 -153 -98 -174 -98 -23 0 -16 28 17 76 108
157 155 370 111 499 -14 42 -21 50 -41 50 -20 0 -27 -8 -38 -45 -58 -184 -159
-308 -335 -411 -72 -42 -187 -88 -220 -89 -20 0 -25 34 -8 45 6 4 25 34 42 68
42 83 49 178 20 256 -29 75 -83 161 -102 161 -9 0 -21 5 -28 12 -23 23 -43
-16 -67 -128 -56 -265 -130 -372 -331 -480 -187 -100 -236 -153 -284 -307 -63
-203 -93 -257 -144 -257 -34 0 -62 37 -136 180 -70 134 -134 214 -202 248
-128 66 -285 31 -368 -81 -56 -76 -74 -140 -74 -257 0 -92 5 -117 33 -199 18
-51 43 -116 57 -143 21 -41 24 -55 16 -77 -18 -48 -22 -93 -11 -133 12 -46 9
-52 -20 -43 -64 20 -187 191 -305 425 -130 257 -176 409 -195 643 -35 417 14
682 164 892 57 79 108 128 235 222 114 85 124 102 77 137 -31 23 -118 28 -209
12 -69 -12 -64 13 9 49 64 31 187 44 260 27 53 -12 64 -1 98 97 34 100 107
201 147 201 23 0 23 -15 -1 -48 -19 -28 -45 -96 -55 -144 -5 -20 -1 -33 14
-48 25 -25 40 -18 112 44 203 177 555 259 898 211z m-5356 -393 c27 -70 64
-163 82 -207 57 -137 131 -338 153 -416 25 -83 41 -269 23 -269 -5 0 -25 15
-44 34 -42 42 -94 58 -144 44 -20 -5 -37 -8 -38 -6 -1 2 -10 46 -19 98 -21
115 -41 298 -62 565 -8 110 -18 219 -21 243 -5 32 -3 42 7 42 9 0 33 -51 63
-128z m-5055 -729 c8 -21 45 -112 84 -203 67 -159 70 -169 75 -262 7 -146 -12
-132 -72 55 -59 185 -126 414 -126 433 0 29 26 13 39 -23z m10759 -60 c22 -48
26 -72 26 -138 0 -98 -26 -156 -114 -256 -50 -56 -57 -69 -47 -83 11 -16 18
-15 98 4 214 50 357 127 476 253 56 59 133 171 133 194 0 7 7 13 16 13 15 0
16 -9 10 -67 -4 -38 -18 -103 -32 -145 -27 -81 -114 -231 -166 -285 -18 -18
-27 -36 -23 -43 20 -32 218 34 312 104 116 85 188 185 226 313 11 40 26 73 32
73 32 0 56 -356 36 -526 -16 -139 -44 -222 -115 -349 -61 -110 -61 -110 -61
-200 0 -77 5 -103 35 -185 31 -85 34 -105 34 -195 0 -89 -4 -109 -34 -185 -37
-96 -67 -145 -172 -280 -41 -52 -99 -140 -130 -195 -80 -142 -102 -172 -153
-204 -102 -64 -218 -65 -460 -1 -246 64 -340 101 -369 142 -8 12 -69 76 -134
142 -66 67 -161 170 -211 229 -55 64 -107 115 -128 125 -34 16 -35 16 -55 -8
-26 -33 -21 -106 13 -175 75 -153 359 -347 627 -426 53 -16 40 -36 -29 -42
-46 -4 -65 -11 -81 -29 -60 -67 -129 -204 -169 -335 -28 -89 -42 -116 -92
-170 -50 -54 -79 -70 -144 -79 -93 -12 -189 31 -304 134 -149 134 -253 341
-359 712 -66 234 -101 338 -121 363 -26 34 -24 44 10 61 42 22 76 68 101 132
18 49 19 64 10 106 -13 62 -13 108 0 108 6 0 36 -26 68 -58 67 -68 147 -111
224 -119 71 -7 119 9 159 54 30 35 31 39 27 105 -7 91 -53 185 -125 253 -29
28 -53 58 -53 66 0 8 14 34 30 59 40 60 41 117 1 191 -83 157 -247 177 -339
42 -49 -72 -35 -233 32 -375 34 -73 66 -90 171 -93 65 -2 94 -8 139 -29 64
-31 86 -63 86 -130 0 -61 -31 -86 -108 -86 -76 0 -132 30 -222 120 -125 125
-186 255 -197 420 -10 153 37 271 128 317 58 30 175 31 236 4 50 -23 111 -98
160 -196 56 -111 119 -203 152 -219 97 -51 173 25 231 229 15 55 30 111 34
125 11 50 87 118 195 176 177 94 247 158 311 283 27 54 81 212 95 279 11 53
41 43 73 -25z m-2929 -105 c37 -218 38 -432 1 -600 -21 -98 -58 -181 -82 -186
-29 -6 -30 36 -4 126 49 171 58 227 63 370 6 142 6 142 -18 142 -12 0 -34 -11
-48 -24 -15 -14 -43 -28 -63 -31 -37 -7 -38 -6 -38 21 1 60 39 131 114 212 46
50 62 43 75 -30z m-2620 17 c30 -15 41 -33 41 -67 0 -18 -4 -20 -37 -15 -66
11 -117 97 -58 97 15 0 39 -7 54 -15z m-90 -99 c25 -26 97 -48 145 -44 28 3
31 0 48 -55 21 -69 44 -202 53 -308 7 -76 7 -76 -41 -82 -27 -3 -49 -4 -50 -4
0 1 -25 47 -56 102 -69 124 -113 225 -133 301 -28 107 -15 142 34 90z m-5197
-23 c43 -46 67 -90 111 -208 49 -129 53 -151 28 -164 -22 -12 -70 -14 -95 -5
-40 15 -81 138 -106 311 -15 112 1 129 62 66z m7852 -205 c-8 -86 -51 -269
-82 -350 -24 -63 -28 -68 -57 -68 -16 0 -40 -3 -52 -6 -23 -6 -23 -6 -23 119
0 132 8 191 41 294 20 62 20 62 67 66 123 9 112 15 106 -55z m-9755 -54 c21
-15 23 -23 19 -80 -6 -100 -58 -137 -98 -71 -22 35 -27 115 -10 148 13 24 57
25 89 3z m156 -117 c39 -79 39 -79 41 -265 0 -178 2 -190 28 -257 14 -38 47
-105 71 -147 25 -43 45 -82 45 -87 0 -5 -26 -12 -57 -16 -50 -6 -63 -13 -95
-46 -21 -21 -41 -39 -47 -39 -5 0 -17 42 -26 93 -14 75 -16 122 -10 259 6 156
5 170 -15 214 -11 27 -28 78 -36 115 -13 59 -13 71 -1 96 8 15 18 59 22 96 9
90 27 87 80 -16z m4117 -97 c221 -37 350 -75 491 -144 133 -64 133 -64 145
-124 15 -72 71 -160 134 -213 42 -35 45 -40 56 -115 18 -116 77 -232 161 -314
93 -92 155 -123 256 -128 75 -4 84 -2 156 32 42 20 81 36 87 36 17 0 15 -26
-3 -44 -8 -8 -15 -19 -15 -25 0 -21 -49 -42 -156 -66 -121 -28 -289 -34 -372
-14 -26 7 -139 51 -252 99 -324 139 -303 134 -585 135 -232 0 -240 1 -240 20
0 43 240 95 441 95 52 0 65 3 74 19 14 28 15 27 -46 60 -123 66 -227 89 -519
115 -88 8 -172 19 -187 25 -96 36 61 83 287 85 128 1 131 0 225 -37 140 -55
209 -60 210 -14 0 13 -144 76 -256 113 -117 37 -171 49 -337 70 -142 17 -184
33 -193 69 -4 16 -2 31 5 38 17 17 320 15 436 -2 106 -15 156 -36 296 -123 57
-36 109 -68 116 -71 6 -4 19 -4 28 -1 14 6 12 11 -12 36 -98 104 -237 184
-426 247 -95 32 -136 51 -162 76 -40 37 -44 62 -12 75 32 13 43 12 169 -10z
m3225 -49 c80 -58 106 -108 148 -286 14 -60 35 -147 46 -192 22 -96 24 -133 6
-133 -14 0 -67 142 -91 244 -24 104 -72 199 -122 245 -29 26 -44 48 -44 64 0
14 -3 39 -6 56 -8 40 9 41 63 2z m-123 -12 c10 -51 7 -59 -18 -59 -55 0 -66
15 -43 63 18 39 53 37 61 -4z m4084 -53 c45 -31 72 -74 72 -115 0 -25 -5 -32
-27 -37 -45 -11 -116 -50 -142 -78 -19 -20 -23 -32 -18 -62 3 -20 14 -42 24
-49 16 -12 18 -10 24 31 5 46 20 64 52 64 9 0 17 6 17 14 0 16 37 32 48 21 4
-3 -1 -20 -11 -36 -31 -54 -23 -81 38 -134 30 -25 55 -53 55 -62 0 -16 1 -17
-90 15 -96 34 -100 35 -100 18 0 -9 7 -16 15 -16 8 0 15 -7 15 -15 0 -10 -11
-15 -35 -15 -21 0 -35 5 -35 13 0 7 -9 18 -20 25 -46 29 -100 182 -100 284 0
144 108 210 218 134z m-4169 7 c35 -20 40 -39 13 -47 -61 -20 -96 -122 -86
-248 6 -67 4 -78 -9 -78 -20 0 -37 76 -44 195 -5 84 -3 95 21 143 30 58 51 65
105 35z m-5047 -133 c104 -227 118 -269 118 -363 0 -84 0 -84 -50 -91 -41 -5
-55 -13 -77 -41 -16 -19 -33 -35 -40 -35 -18 0 -51 100 -59 176 -4 36 -1 160
6 276 11 180 15 208 29 206 9 -2 39 -55 73 -128z m2844 53 c62 -69 79 -82 172
-126 57 -26 177 -92 266 -146 90 -53 192 -107 228 -119 129 -42 564 -94 943
-112 473 -22 632 -38 819 -81 133 -30 260 -71 286 -92 27 -21 169 -196 186
-230 26 -49 31 -174 8 -233 -25 -68 -43 -94 -65 -94 -12 0 -23 10 -29 26 -12
31 -12 153 0 214 8 45 -4 80 -21 63 -12 -12 -29 -137 -29 -215 0 -78 12 -111
47 -127 52 -24 118 49 147 162 26 98 -7 213 -90 323 -35 45 -42 64 -24 64 6 0
65 -18 131 -40 223 -75 509 -133 734 -149 90 -6 90 -6 131 -102 51 -119 69
-188 89 -349 15 -123 20 -374 9 -417 -8 -29 -32 -29 -105 -4 -30 11 -95 27
-144 37 -50 9 -207 45 -350 80 -317 77 -395 90 -600 104 -362 24 -563 73
-1120 275 -71 26 -206 74 -300 107 -93 33 -193 68 -222 78 -72 26 -336 131
-348 140 -5 3 -29 12 -52 20 -51 16 -54 29 -12 54 35 20 63 77 54 107 -16 49
-76 64 -135 34 -101 -52 -207 -57 -296 -14 -58 29 -155 123 -183 177 -21 40
-61 154 -61 172 0 17 19 11 54 -15 38 -29 52 -31 59 -11 6 16 -80 105 -169
174 -89 70 -133 152 -134 245 0 121 32 126 126 20z m4619 -63 c0 -30 -31 -38
-76 -20 -32 14 -41 46 -10 37 10 -2 25 -1 32 4 26 17 54 6 54 -21z m-181 4
c11 -29 6 -42 -40 -90 -48 -52 -165 -278 -178 -344 -26 -139 -84 -249 -70
-132 31 258 109 464 206 546 47 39 72 45 82 20z m266 -70 c22 -58 0 -324 -27
-324 -10 0 -13 23 -13 103 0 56 -5 130 -10 165 -6 35 -8 67 -5 72 12 20 46 10
55 -16z m-135 -38 c29 -1 30 -3 36 -61 4 -33 7 -117 8 -186 2 -187 31 -263
109 -275 53 -8 59 -34 6 -34 -19 0 -92 -9 -162 -19 -70 -11 -174 -25 -232 -30
-58 -6 -124 -14 -147 -17 -51 -6 -59 12 -15 37 23 13 34 37 75 170 55 175 130
336 182 393 32 36 37 38 72 31 21 -5 52 -9 68 -9z m-9278 -391 c8 -22 2 -25
-40 -18 -49 8 -50 33 -2 33 23 0 38 -6 42 -15z m100 -52 c98 -112 163 -266
163 -389 0 -45 -26 -46 -35 -1 -12 57 -107 271 -141 318 -53 73 -42 133 13 72z
m1936 13 c42 -17 118 -102 163 -182 84 -151 108 -264 54 -264 -12 0 -23 18
-39 65 -53 163 -132 283 -210 320 -41 20 -51 41 -29 63 15 15 21 15 61 -2z
m-93 -11 c0 -8 -9 -15 -20 -15 -11 0 -20 7 -20 15 0 8 9 15 20 15 11 0 20 -7
20 -15z m-1997 -6 c42 -11 47 -29 17 -59 -25 -25 -78 -26 -119 -2 -29 16 -41
49 -24 65 10 10 83 8 126 -4z m10147 -89 c42 -13 90 -37 133 -69 81 -59 118
-68 210 -53 37 7 85 12 107 12 45 0 48 -9 30 -85 -8 -33 -2 -79 36 -265 119
-590 219 -845 415 -1054 166 -178 351 -248 520 -197 249 76 377 307 414 744 7
79 7 79 43 94 117 49 426 -54 766 -256 321 -191 366 -221 366 -251 0 -9 -19
-41 -41 -71 -36 -47 -349 -663 -349 -687 0 -14 -102 -111 -150 -143 -43 -29
-98 -49 -135 -49 -22 0 -158 32 -242 56 -29 9 -53 21 -53 27 0 7 35 30 77 52
156 82 384 271 399 332 4 13 1 36 -5 50 -10 22 -16 25 -49 21 -53 -8 -123 -57
-233 -167 -117 -117 -144 -173 -41 -85 37 32 92 81 122 109 78 73 109 95 136
95 27 0 33 -27 9 -36 -8 -4 -15 -12 -15 -19 0 -24 -240 -215 -289 -230 -15 -5
-26 -3 -32 6 -6 10 -9 11 -9 2 0 -7 -7 -13 -15 -13 -17 0 -20 31 -6 46 5 5 31
61 57 124 147 360 182 581 101 648 -11 9 -18 7 -35 -9 -36 -33 -59 -89 -151
-367 -106 -320 -179 -514 -220 -586 -42 -73 -89 -114 -361 -317 -711 -530
-1233 -833 -1676 -972 -109 -35 -318 -74 -434 -82 -180 -13 -424 29 -574 99
-159 73 -312 205 -406 348 -140 214 -396 868 -340 868 6 0 46 -23 88 -50 99
-65 255 -142 357 -176 58 -20 108 -28 182 -32 92 -4 106 -2 155 20 128 59 192
156 213 323 15 119 -30 434 -81 576 -13 37 -24 69 -24 73 0 15 40 3 113 -35
125 -65 214 -65 351 2 324 158 620 613 643 989 6 110 -17 295 -48 373 -39 99
-130 212 -198 246 -45 23 -74 16 -37 -8 68 -45 173 -194 192 -273 12 -52 -23
-31 -60 36 -40 71 -107 136 -176 171 -25 12 -89 33 -142 46 -54 13 -98 29 -98
35 0 13 187 29 220 19 11 -3 20 -2 20 4 0 5 8 12 18 14 32 10 167 -4 232 -23z
m-8160 5 c104 -15 161 -86 225 -283 19 -59 35 -113 35 -119 0 -6 -31 -12 -73
-15 -56 -4 -88 -12 -141 -38 -87 -43 -106 -67 -106 -137 0 -100 28 -179 164
-466 31 -65 56 -120 56 -122 0 -2 18 -41 39 -87 49 -104 271 -607 271 -613 0
-2 13 -33 29 -67 75 -164 194 -460 340 -843 51 -132 105 -274 121 -315 102
-263 214 -630 197 -646 -9 -10 -129 41 -252 106 -266 141 -521 231 -772 271
-113 18 -165 21 -300 17 -172 -5 -192 1 -137 37 37 24 83 130 99 230 21 125
62 493 79 695 44 519 50 655 51 1150 0 495 0 495 -30 640 -24 123 -29 169 -29
300 -1 134 15 285 31 313 3 5 17 6 31 3 15 -3 47 -8 72 -11z m-2146 -14 c21
-23 97 -51 139 -51 20 0 40 11 64 35 19 19 39 35 45 35 12 0 98 -185 128 -275
13 -38 29 -79 36 -90 8 -11 14 -32 14 -47 0 -31 -24 -37 -62 -17 -40 21 -120
13 -229 -25 -57 -20 -116 -36 -131 -36 -21 0 -25 -4 -21 -20 4 -13 0 -20 -10
-20 -44 0 -65 311 -31 461 16 73 28 83 58 50z m9929 -96 c128 -33 241 -114
314 -223 26 -39 44 -56 56 -54 12 2 17 -3 17 -17 0 -12 -6 -21 -12 -21 -10 0
-10 -2 -1 -8 7 -4 17 -28 22 -52 26 -113 1 -314 -58 -465 -101 -260 -323 -525
-527 -630 -65 -34 -86 -39 -160 -43 -97 -5 -143 8 -234 67 -30 19 -64 40 -75
46 -11 6 -42 24 -70 40 -42 25 -62 30 -142 33 -103 5 -111 11 -63 57 37 36
105 173 126 256 22 89 30 377 14 488 -13 88 -42 187 -79 274 -25 59 -121 155
-162 164 -28 5 -42 33 -16 33 142 3 525 41 742 74 56 8 250 -3 308 -19z m977
-157 c16 -35 54 -154 85 -265 87 -317 152 -485 249 -636 81 -126 199 -238 313
-294 134 -66 265 -45 357 58 44 48 87 137 141 292 25 70 43 107 52 107 17 0
15 -19 -18 -185 -37 -186 -73 -269 -155 -355 -127 -134 -309 -162 -482 -77
-77 38 -207 160 -269 252 -88 131 -158 299 -213 512 -25 97 -110 474 -135 600
-8 39 -1 53 26 53 15 0 28 -16 49 -62z m-2047 38 c18 -8 55 -34 83 -59 43 -38
56 -59 82 -129 52 -140 65 -223 65 -413 0 -264 -44 -427 -146 -532 -46 -48
-83 -58 -74 -20 48 201 50 220 51 437 0 297 -38 518 -115 659 -16 30 -29 58
-29 63 0 13 47 9 83 -6z m2801 8 c9 -4 63 -61 121 -128 104 -122 178 -198 248
-257 36 -30 49 -59 25 -59 -15 0 -128 63 -198 111 -119 80 -230 227 -230 307
0 32 6 37 34 26z m-11189 -258 c11 -8 16 -20 12 -29 -3 -9 -2 -17 3 -19 5 -2
13 -65 16 -140 6 -123 5 -138 -10 -138 -12 0 -16 10 -16 43 0 70 -19 165 -45
224 -14 30 -25 59 -25 64 0 14 44 11 65 -5z m1984 -162 c118 -333 430 -1110
569 -1419 27 -60 71 -159 97 -220 145 -338 429 -923 532 -1095 65 -109 103
-146 164 -164 43 -13 55 -13 97 -1 27 8 70 31 95 50 68 52 82 44 53 -26 -41
-96 -499 -273 -666 -257 -29 2 -36 8 -38 28 -16 123 -120 456 -239 760 -35 91
-91 235 -123 320 -143 378 -490 1183 -702 1630 -112 235 -158 364 -158 442 0
29 6 41 28 56 36 26 97 52 147 62 84 17 75 27 144 -166z m37 154 c54 -171 366
-685 701 -1155 398 -559 680 -1031 812 -1361 57 -140 74 -215 68 -294 -6 -86
-29 -126 -91 -156 -64 -30 -185 -41 -208 -18 -47 46 -201 318 -303 531 -167
352 -362 787 -505 1125 -11 25 -42 99 -71 165 -143 336 -439 1121 -439 1167 0
25 27 23 36 -4z m-2256 -1 c0 -12 -60 -37 -89 -37 -27 0 -7 29 27 38 52 14 62
14 62 -1z m-110 -32 c0 -8 -7 -15 -15 -15 -8 0 -15 7 -15 15 0 8 7 15 15 15 8
0 15 -7 15 -15z m263 -52 c34 -145 51 -318 67 -703 33 -792 43 -992 65 -1320
14 -201 30 -421 36 -490 5 -69 14 -172 19 -230 36 -431 140 -785 287 -978 50
-65 122 -122 155 -122 10 0 18 -6 18 -14 0 -17 -110 -26 -320 -26 -268 0 -320
17 -452 151 -66 68 -95 106 -123 164 -67 140 -71 316 -11 515 82 271 80 261
65 304 -20 58 -87 98 -177 105 -67 6 -67 6 -66 531 1 500 6 635 44 1225 5 77
9 303 10 503 0 362 0 362 38 362 49 0 132 22 224 59 40 16 80 29 89 30 11 1
20 -17 32 -66z m157 22 c0 -8 -7 -15 -15 -15 -8 0 -15 7 -15 15 0 8 7 15 15
15 8 0 15 -7 15 -15z m10 -140 c0 -8 -7 -15 -15 -15 -8 0 -15 7 -15 15 0 8 7
15 15 15 8 0 15 -7 15 -15z m78 -162 c33 -76 87 -203 120 -283 33 -80 115
-269 182 -420 309 -695 436 -1029 525 -1373 29 -116 65 -321 65 -377 0 -23 3
-22 -251 -45 -199 -19 -242 -16 -264 18 -7 12 -34 114 -59 227 -25 113 -75
311 -111 440 -136 488 -166 609 -190 745 -32 186 -53 394 -65 655 -5 117 -14
259 -19 315 -19 189 -20 235 -6 235 7 0 40 -62 73 -137z m-118 -48 c0 -33 -4
-45 -15 -45 -11 0 -15 12 -15 45 0 33 4 45 15 45 11 0 15 -12 15 -45z m6665
-134 c18 -37 134 -304 169 -392 14 -36 26 -81 26 -100 0 -35 -48 -287 -70
-368 -14 -55 -54 -96 -106 -110 -40 -11 -284 -16 -284 -5 0 3 11 49 24 102 14
53 50 237 81 407 61 335 79 429 95 469 13 36 45 34 65 -3z m-6655 -11 c0 -11
-7 -20 -15 -20 -8 0 -15 9 -15 20 0 11 7 20 15 20 8 0 15 -9 15 -20z m7169
-26 c49 -41 75 -96 145 -303 36 -106 91 -260 122 -342 31 -82 55 -151 53 -152
-2 -2 -55 -25 -118 -51 -63 -26 -137 -65 -166 -87 -28 -21 -57 -39 -62 -39
-14 0 -24 23 -128 284 -48 121 -90 236 -92 255 -10 74 87 392 134 438 30 31
74 29 112 -3z m1026 -59 c131 -24 125 -22 125 -58 0 -71 -46 -192 -77 -204
-24 -10 -87 66 -108 129 -9 29 -25 67 -36 84 -24 39 -24 64 -1 64 9 0 53 -7
97 -15z m-8185 -100 c0 -60 -3 -75 -15 -75 -12 0 -15 15 -15 75 0 60 3 75 15
75 12 0 15 -15 15 -75z m10 -195 c0 -73 -3 -90 -15 -90 -12 0 -15 17 -15 90 0
73 3 90 15 90 12 0 15 -17 15 -90z m12030 -39 c0 -133 -69 -345 -193 -588 -69
-138 -107 -183 -92 -110 4 17 11 34 16 35 5 2 9 12 9 22 0 10 18 69 40 131 21
63 65 195 96 294 74 233 94 285 110 285 11 0 14 -17 14 -69z m1040 -36 c240
-69 335 -98 362 -111 26 -14 26 -14 30 -156 6 -176 22 -235 83 -295 54 -54 91
-58 129 -12 21 25 26 41 26 87 0 99 -53 245 -119 326 -37 46 -39 62 -8 70 63
17 311 -1 471 -34 138 -28 260 -70 601 -205 330 -130 355 -139 595 -209 292
-85 355 -86 570 -11 588 205 660 225 660 191 0 -9 -7 -16 -15 -16 -20 0 -230
-85 -261 -105 -22 -14 -34 -55 -16 -55 4 0 97 27 207 60 353 105 660 137 523
55 -59 -35 -130 -55 -353 -100 -121 -25 -230 -49 -242 -55 -22 -9 -31 -44 -15
-54 4 -2 77 4 162 15 85 10 242 22 348 26 194 6 194 6 190 -17 -4 -30 -62 -51
-228 -85 -64 -13 -159 -36 -211 -50 -98 -28 -314 -110 -338 -129 -8 -6 -47
-11 -88 -10 -70 1 -73 0 -73 -22 0 -39 79 -67 296 -104 177 -29 204 -42 204
-98 0 -43 -20 -47 -259 -47 -130 0 -274 -6 -338 -14 -90 -11 -129 -11 -193 -2
-87 13 -201 55 -245 90 -43 33 -149 61 -270 71 -60 6 -281 10 -490 10 -590 0
-917 22 -1115 74 -52 14 -151 43 -220 66 -69 22 -215 58 -325 80 -331 67 -347
70 -442 97 -69 19 -93 30 -93 42 0 9 27 43 61 76 156 154 253 343 266 518 7
93 -1 91 173 42z m-223 9 c10 -27 -12 -144 -42 -219 -42 -105 -101 -195 -193
-295 -81 -88 -112 -108 -112 -72 0 23 267 550 293 580 24 26 45 28 54 6z
m-4382 -13 c187 -8 194 -13 239 -154 28 -84 61 -246 76 -367 32 -267 -14 -424
-145 -493 -49 -25 -195 -35 -275 -18 -102 22 -250 88 -398 179 -138 86 -131
78 -132 153 0 78 28 179 72 259 18 33 75 99 142 165 75 74 131 141 171 203 55
84 62 92 85 86 14 -3 88 -9 165 -13z m-8441 -208 c25 -222 53 -353 152 -713
121 -439 150 -553 184 -724 33 -161 57 -219 102 -238 15 -7 28 -21 28 -30 0
-16 -9 -17 -107 -12 -99 6 -209 27 -274 52 -24 10 -27 17 -33 84 -9 108 -25
339 -36 538 -5 96 -18 333 -29 525 -31 553 -34 675 -18 675 10 0 18 -40 31
-157z m6881 50 c8 -33 73 -212 109 -300 14 -35 26 -67 26 -71 0 -5 -30 -22
-67 -38 -49 -20 -87 -46 -133 -91 -35 -35 -68 -63 -73 -63 -14 0 3 135 29 229
20 71 73 327 74 354 0 20 29 3 35 -20z m6645 -33 c11 -11 38 -56 60 -100 37
-74 40 -86 40 -163 0 -114 -22 -135 -80 -74 -52 53 -62 89 -68 230 -4 113 -3
127 12 127 9 0 25 -9 36 -20z m-5660 -150 c0 -6 -20 -52 -45 -103 -28 -59 -50
-123 -61 -179 -9 -49 -21 -88 -25 -88 -4 0 -34 17 -67 37 -59 37 -59 37 -96
143 -20 58 -39 112 -42 121 -6 18 32 31 141 50 39 6 88 15 110 19 59 12 85 11
85 0z m-360 -160 c18 -45 30 -83 27 -86 -3 -3 -27 2 -54 11 -63 22 -184 45
-234 45 -61 0 -48 23 24 45 34 10 87 29 117 41 30 13 62 23 71 24 10 0 27 -27
49 -80z m-806 -92 c-15 -128 -36 -244 -53 -296 -39 -115 -51 -181 -51 -274 0
-164 -151 -1135 -206 -1325 -81 -282 -191 -433 -384 -533 -81 -41 -222 -90
-262 -90 -18 0 -6 23 47 93 105 136 145 260 145 440 -1 119 -15 225 -41 311
-41 132 -15 250 221 986 48 151 102 327 120 390 61 220 91 310 103 311 7 1 62
2 122 3 70 2 125 9 150 18 22 9 53 16 68 17 28 1 28 1 21 -51z m726 -3 c80
-21 116 -39 131 -67 6 -12 49 -130 94 -262 197 -573 299 -811 453 -1065 103
-168 173 -260 286 -379 206 -213 517 -381 768 -413 145 -19 148 -19 148 -34 0
-8 -12 -18 -27 -21 -15 -4 -79 -28 -143 -54 -250 -101 -265 -103 -458 -49
-264 73 -503 235 -706 479 -272 325 -427 656 -812 1728 -49 138 -51 148 -26
156 33 10 229 -3 292 -19z m-383 -24 c-3 -13 1 -21 10 -23 16 -3 24 -22 143
-348 259 -711 408 -1041 589 -1308 252 -371 523 -592 849 -688 56 -17 92 -33
92 -41 0 -7 -8 -13 -17 -13 -9 0 -66 -16 -127 -35 -180 -56 -416 -115 -486
-121 -126 -11 -274 59 -401 193 -120 126 -275 359 -393 593 -65 127 -193 440
-240 585 -150 460 -166 949 -37 1155 15 25 15 25 -7 6 -39 -34 -81 -110 -99
-181 -21 -86 -24 -383 -5 -520 48 -342 179 -729 372 -1100 96 -186 144 -266
226 -374 64 -85 76 -111 50 -111 -21 0 -224 214 -307 325 -248 329 -453 741
-538 1084 -56 221 -59 264 -27 393 14 59 34 158 45 221 21 125 40 165 107 228
67 61 131 97 178 98 23 1 27 -2 23 -18z m4723 -96 c0 -14 -29 -35 -49 -35 -17
0 -13 21 7 36 23 18 42 17 42 -1z m-4065 -35 c38 -24 38 -23 64 -133 37 -154
159 -469 256 -662 147 -290 327 -464 591 -572 149 -60 245 -77 449 -77 188 0
263 11 445 63 171 50 477 174 615 250 390 216 838 512 1223 809 44 34 86 62
91 62 52 0 -117 -212 -408 -513 -97 -100 -271 -286 -387 -412 -290 -316 -391
-410 -564 -525 -117 -79 -286 -160 -405 -195 -123 -36 -282 -44 -389 -21 -43
10 -80 15 -83 12 -4 -3 0 -6 8 -6 26 0 119 -44 119 -56 0 -14 -49 -12 -194 7
-138 18 -359 113 -506 217 -88 62 -268 245 -352 359 -177 239 -356 600 -476
959 -22 65 -65 192 -96 280 -31 89 -56 164 -56 168 0 12 23 6 55 -14z m-2829
-585 c28 -8 71 -29 97 -46 40 -26 54 -45 88 -116 66 -139 139 -201 459 -393
203 -121 210 -128 209 -199 0 -31 -4 -78 -9 -106 -5 -27 -17 -99 -27 -159 -14
-87 -21 -110 -35 -114 -20 -5 -30 -37 -59 -182 -42 -207 -108 -341 -201 -405
-88 -61 -202 -57 -549 21 -174 39 -216 45 -285 42 -65 -3 -90 -9 -127 -31 -88
-52 -119 -133 -75 -196 12 -19 35 -43 49 -54 28 -20 164 -57 212 -57 16 0 27
-5 27 -14 0 -9 -15 -16 -47 -18 -27 -3 -110 -20 -186 -37 -90 -22 -150 -31
-172 -27 -38 8 -145 96 -258 214 -275 290 -449 668 -450 977 0 61 5 122 11
138 12 28 9 27 382 205 91 43 169 90 318 190 99 66 122 77 195 93 186 39 251
84 311 213 38 84 41 85 122 61z m-140 -37 c-9 -53 -88 -118 -172 -145 -83 -27
-84 -27 -84 -9 0 17 70 75 164 138 87 57 101 60 92 16z m-556 -301 c0 -27
-536 -317 -585 -317 -25 0 -17 26 23 77 93 116 195 175 392 223 132 32 170 36
170 17z m-4625 -127 c34 -32 33 -84 -4 -202 -35 -111 -57 -196 -66 -260 -8
-64 -30 -63 -44 2 -16 75 -39 262 -47 384 -7 108 -7 108 64 104 58 -3 76 -8
97 -28z m-221 -87 c17 -246 84 -533 200 -858 26 -71 45 -138 44 -149 -2 -10
-16 -26 -33 -35 -138 -75 -248 -154 -430 -310 -134 -115 -361 -343 -463 -466
-107 -128 -229 -255 -262 -272 -40 -21 -112 -17 -139 8 -42 40 -53 99 -23 134
9 12 46 37 82 57 68 38 172 137 184 176 9 27 -8 52 -34 52 -23 0 -78 -41 -178
-134 -77 -71 -85 -76 -126 -76 -52 0 -76 19 -76 58 0 23 12 34 80 75 85 51
200 150 200 173 0 7 -9 18 -19 23 -16 9 -32 0 -95 -49 -102 -81 -135 -100
-174 -100 -38 0 -55 30 -45 81 6 33 8 34 130 112 98 62 133 101 111 123 -12
12 -28 6 -119 -51 -110 -69 -153 -80 -164 -45 -17 55 32 133 95 150 51 14 131
69 150 103 14 26 14 29 -5 43 -28 21 -62 12 -147 -41 -92 -57 -102 -58 -93 -2
10 56 29 92 65 119 16 12 58 64 92 117 99 151 142 190 470 426 108 78 276 245
365 365 92 123 193 221 267 259 32 17 64 31 71 31 8 0 14 -30 19 -97z m2313
-38 c261 -25 466 -89 763 -238 102 -52 215 -104 253 -118 37 -13 67 -29 67
-36 0 -6 -24 -19 -52 -29 -109 -35 -221 -130 -233 -197 -12 -63 47 -137 108
-137 111 0 240 155 240 287 0 53 0 53 55 53 60 0 312 58 312 71 0 5 7 9 15 9
20 0 216 92 254 119 16 12 33 21 38 21 5 0 9 -51 10 -113 2 -188 52 -360 169
-587 94 -182 178 -293 352 -469 140 -142 165 -171 145 -171 -5 0 -60 -9 -123
-20 -190 -34 -430 -70 -459 -70 -28 0 -36 11 -136 194 -48 88 -144 323 -175
428 -38 126 -68 284 -76 398 -6 102 -12 130 -23 130 -13 0 -13 -214 0 -290 36
-219 116 -439 260 -720 38 -74 69 -140 69 -146 0 -6 -21 -14 -47 -17 -27 -4
-93 -13 -147 -22 -420 -65 -615 -29 -948 172 -330 201 -430 244 -838 363 -468
136 -625 179 -694 191 -42 7 -76 16 -76 20 0 4 19 35 42 69 79 119 169 411
212 690 22 145 22 145 82 153 64 8 286 23 374 26 30 0 123 -6 207 -14z m-1437
-41 c60 -10 130 -15 192 -12 54 2 98 0 98 -5 0 -5 -23 -35 -52 -66 -92 -100
-157 -282 -144 -401 11 -91 65 -222 120 -287 43 -51 33 -65 -28 -39 -86 36
-155 140 -214 326 -45 143 -101 406 -102 483 0 21 12 21 130 1z m750 -4 c0
-11 -9 -78 -20 -148 -62 -395 -182 -702 -274 -702 -15 0 -49 11 -78 25 -28 14
-60 25 -70 25 -10 0 -18 6 -18 14 0 8 -6 16 -14 19 -19 7 -79 118 -102 187
-12 38 -18 84 -18 150 0 83 4 105 32 176 38 95 87 162 149 203 47 32 70 37
248 56 165 18 165 18 165 -5z m4838 -213 c2 -21 -10 -98 -27 -170 -17 -73 -47
-215 -66 -316 -42 -213 -77 -314 -139 -393 -58 -73 -124 -105 -326 -159 -227
-59 -294 -69 -478 -69 -180 0 -278 16 -334 54 -28 18 -33 28 -36 67 -2 34 2
52 18 72 62 79 172 82 463 13 205 -48 349 -65 440 -52 64 10 152 77 204 154
53 79 98 206 118 329 9 54 21 103 29 108 7 6 20 30 29 55 21 56 57 236 57 283
0 48 9 69 29 65 11 -2 17 -16 19 -41z m76 -169 c9 -40 20 -120 23 -178 10
-196 -47 -361 -170 -496 -33 -36 -67 -64 -78 -64 -25 0 -24 8 5 61 14 24 39
94 56 154 32 116 110 506 110 554 0 15 3 31 7 34 18 19 31 1 47 -65z m-3114
-24 c0 -18 -35 -123 -48 -144 -60 -97 -153 -139 -202 -90 -42 42 -13 119 62
167 75 47 188 88 188 67z m-2310 -445 c72 -27 110 -50 110 -66 0 -17 -15 -16
-70 3 -60 21 -110 52 -110 70 0 18 5 18 70 -7z m8960 -50 c0 -16 -17 -28 -72
-54 -74 -34 -178 -65 -217 -65 -47 0 -16 27 67 59 48 19 105 42 127 51 83 36
95 37 95 9z m-491 -181 c-1 -29 -284 -240 -359 -269 -79 -30 -176 -23 -297 22
-95 35 -115 54 -65 64 112 23 307 77 467 130 190 63 256 76 254 53z m-2631
-138 c173 -85 385 -145 602 -171 177 -20 505 0 799 50 31 5 84 13 119 16 53 6
62 5 62 -9 0 -9 -4 -16 -9 -16 -15 0 -148 -109 -248 -204 -93 -87 -93 -87
-180 -102 -258 -42 -613 14 -883 138 -84 39 -223 122 -278 166 -53 42 -142
148 -142 168 0 27 54 15 158 -36z m-548 -4 c0 -8 -5 -18 -11 -22 -17 -10 -75
-106 -88 -145 -6 -19 -46 -81 -89 -136 -42 -55 -106 -140 -141 -188 -82 -113
-187 -224 -218 -231 -16 -4 -43 2 -76 18 -115 56 -224 78 -383 78 -195 0 -358
-45 -616 -169 -137 -66 -244 -102 -350 -116 -53 -7 -47 -16 -63 109 -7 55 -52
187 -96 285 -16 35 -29 71 -29 80 0 14 32 23 188 50 103 18 254 44 336 59 145
25 150 25 180 8 157 -92 300 -146 406 -153 129 -9 271 50 535 222 28 18 96 71
152 118 99 83 104 86 183 102 45 9 96 23 113 30 42 18 67 19 67 1z m-360 -58
c-1 -15 -177 -149 -272 -207 -110 -66 -225 -121 -291 -137 -72 -19 -167 -15
-242 11 -113 38 -255 100 -255 111 0 6 24 14 58 17 31 4 104 19 162 35 120 33
249 59 365 72 88 9 370 74 419 96 39 17 56 17 56 2z m2580 -94 c0 -8 -13 -29
-30 -46 -16 -16 -30 -33 -30 -37 0 -17 -70 -72 -135 -105 -122 -63 -139 -42
-37 45 179 152 232 185 232 143z m-1988 -86 c55 -16 96 -69 137 -174 60 -154
156 -348 220 -441 56 -84 208 -243 231 -243 5 0 10 -7 10 -15 0 -26 -24 -16
-126 52 -159 106 -204 144 -332 280 -206 218 -358 428 -369 512 -5 40 -5 40
33 44 54 7 149 -1 196 -15z m-268 -92 c42 -85 177 -270 292 -400 44 -48 85
-97 93 -108 22 -30 242 -211 305 -252 75 -48 161 -91 225 -111 31 -11 51 -23
49 -30 -3 -12 -344 -295 -386 -320 -9 -6 -28 -20 -42 -32 -169 -149 -385 -296
-505 -344 -53 -21 -76 -24 -200 -24 -159 1 -189 7 -378 86 -177 74 -234 87
-537 119 -96 10 -240 26 -320 35 -263 31 -442 10 -580 -67 -80 -45 -121 -80
-208 -182 -124 -143 -159 -201 -296 -486 -57 -118 -107 -190 -132 -190 -18 0
-18 18 0 61 16 40 11 59 -14 59 -24 0 -33 -13 -64 -90 -28 -69 -79 -130 -108
-130 -23 0 -23 5 7 64 28 55 33 121 11 129 -21 8 -43 -21 -86 -119 -44 -100
-84 -144 -130 -144 -46 0 -47 23 -5 91 29 47 35 63 24 69 -19 13 5 60 31 60
25 0 37 42 21 76 -15 34 -29 30 -77 -21 -41 -45 -83 -130 -104 -212 -19 -77
-101 -117 -158 -77 -37 26 -56 73 -56 145 0 68 3 77 78 216 16 30 31 80 37
120 19 139 59 215 195 366 226 254 275 354 320 671 39 269 69 346 167 432 120
106 276 96 440 -26 31 -24 57 -49 57 -55 0 -7 -15 -19 -32 -26 -51 -21 -169
-145 -203 -214 -24 -48 -30 -73 -30 -123 0 -59 2 -66 33 -93 36 -33 60 -36
102 -14 80 42 170 246 170 387 0 54 1 56 31 62 17 3 51 6 74 6 59 0 181 42
305 105 275 139 445 183 669 172 204 -10 406 -85 334 -125 -47 -27 -156 -152
-188 -216 -44 -86 -45 -127 -6 -166 37 -38 58 -32 121 37 73 80 150 254 150
339 0 24 5 34 19 39 47 15 230 233 371 443 30 45 60 81 66 82 6 0 27 -33 48
-74z m1586 -467 c0 -22 -126 -185 -200 -260 -78 -78 -126 -108 -191 -116 -50
-7 -50 8 -2 50 130 112 246 219 297 274 55 57 96 80 96 52z m-2150 -97 c0 -26
-94 -216 -119 -241 -12 -12 -30 -21 -41 -21 -17 0 -20 7 -20 40 0 60 20 99 90
173 63 68 90 82 90 49z m-1470 -136 c0 -89 -87 -310 -134 -341 -26 -17 -64
-13 -78 9 -11 15 -10 85 1 123 15 52 79 140 133 183 53 42 78 50 78 26z"/>
<path d="M6390 8410 c-12 -8 -11 -10 8 -10 12 0 22 5 22 10 0 13 -11 13 -30 0z"/>
<path d="M15640 4675 c0 -3 2 -5 5 -5 3 0 5 2 5 5 0 3 -2 5 -5 5 -3 0 -5 -2
-5 -5z"/>
<path d="M15670 4665 c0 -3 2 -5 5 -5 3 0 5 2 5 5 0 3 -2 5 -5 5 -3 0 -5 -2
-5 -5z"/>
<path d="M15700 4646 c0 -8 11 -13 28 -12 15 0 38 -3 52 -8 14 -5 22 -5 18 -2
-3 4 -27 14 -52 21 -38 11 -46 12 -46 1z"/>
</g>
</svg>