<svg version="1.0" xmlns="http://www.w3.org/2000/svg"
 width="1024.000000pt" height="1024.000000pt" viewBox="0 0 1024.000000 1024.000000"
 preserveAspectRatio="xMidYMid meet">
    <style>
        path {
            stroke: #000000;
            stroke-width: 15px;
            stroke-dasharray: 40000;
            stroke-dashoffset: 40000;
            fill: #000000;
            fill-opacity: 0;
            animation: 
                draw 2s ease-out forwards, 
                fill 0.5s ease-in forwards 1.5s,
                thin_stroke 0.5s ease-in forwards 1.5s;
        }
        @keyframes draw {
            to {
                stroke-dashoffset: 0;
            }
        }
        @keyframes fill {
            to {
                fill-opacity: 1;
            }
        }
        @keyframes thin_stroke {
            to {
                stroke-width: 10px;
            }
        }
    </style>

<metadata>
Created by potrace 1.16, written by Peter Selinger 2001-2019
</metadata>
<g transform="translate(0.000000,1024.000000) scale(0.100000,-0.100000)">
<path d="M1736 6709 c-42 -12 -83 -56 -103 -108 -23 -65 -27 -68 -88 -76 -113
-14 -238 -102 -319 -224 -58 -86 -91 -175 -113 -298 -17 -94 -17 -96 3 -112
11 -9 18 -23 16 -32 -4 -24 40 -82 78 -102 32 -16 60 -18 300 -15 242 3 263 2
235 -12 -28 -14 -30 -20 -33 -75 -4 -71 15 -223 34 -279 10 -28 11 -42 3 -46
-5 -4 -9 -25 -7 -46 3 -35 7 -40 38 -51 31 -10 32 -12 9 -12 -56 -2 -86 -61
-113 -226 -29 -171 -40 -362 -40 -700 0 -279 3 -353 17 -413 32 -142 94 -211
209 -230 97 -17 1001 -24 1293 -11 138 6 309 10 380 8 72 -2 294 -4 495 -4
325 0 372 2 424 18 106 33 153 108 177 283 6 49 15 92 19 97 3 4 24 1 46 -6
67 -24 325 -87 429 -105 100 -17 100 -17 124 -77 13 -33 26 -81 29 -107 4 -44
1 -52 -37 -102 -44 -57 -46 -82 -6 -92 25 -6 73 15 95 41 7 9 22 21 33 27 16
8 12 -4 -18 -60 -33 -60 -36 -73 -26 -86 28 -34 132 -9 146 34 4 11 23 41 42
67 36 47 46 94 25 115 -6 6 -7 22 -1 41 5 18 9 73 9 123 0 100 3 104 60 104
15 0 47 7 71 15 23 9 46 12 49 8 4 -5 19 -64 34 -133 48 -220 22 -196 220
-203 257 -10 875 -8 1010 3 65 6 135 15 155 21 30 9 48 8 91 -6 72 -23 368
-33 466 -16 126 22 208 74 244 155 17 36 24 41 92 62 40 13 73 24 73 24 1 0 1
-30 2 -67 1 -89 30 -178 58 -178 11 0 24 10 30 23 16 36 101 34 277 -4 117
-26 117 -26 225 6 146 43 155 48 256 124 56 43 89 62 92 54 3 -7 6 -56 7 -108
3 -95 3 -95 591 -98 393 -1 586 1 582 8 -4 7 -207 10 -586 10 -579 0 -579 0
-579 93 0 98 -14 147 -41 147 -9 0 -19 9 -22 20 -5 19 -36 28 -50 14 -4 -4
-21 -8 -39 -9 -33 -3 -33 -3 -6 11 30 15 155 178 188 243 42 84 27 157 -39
182 -57 22 -149 -49 -172 -133 -21 -79 -30 -94 -80 -144 -57 -56 -65 -50 -14
12 40 48 65 102 65 137 0 61 -79 104 -136 74 -47 -25 -80 -67 -139 -176 -57
-106 -63 -140 -26 -161 28 -16 -6 -12 -81 11 -109 34 -181 18 -299 -66 -37
-26 -47 -30 -55 -19 -7 12 -22 10 -86 -12 -75 -25 -77 -27 -103 -80 -32 -65
-73 -96 -170 -127 -61 -19 -92 -22 -245 -22 -216 1 -336 23 -302 57 32 32 -7
81 -43 54 -13 -10 -17 -21 -12 -43 6 -30 4 -31 -41 -43 -76 -19 -467 -29 -895
-23 -349 6 -399 8 -406 22 -5 9 -23 81 -41 161 -17 80 -36 150 -41 156 -6 8
-24 6 -61 -6 -65 -21 -138 -31 -138 -19 0 5 18 9 40 9 58 0 129 30 209 90 48
36 73 62 77 79 3 14 10 44 17 66 7 22 12 68 12 102 0 55 2 63 23 72 28 13 44
55 38 95 -3 17 3 7 12 -21 10 -29 23 -58 29 -64 7 -7 6 -21 -3 -47 -14 -40
-18 -92 -7 -92 3 0 14 7 24 16 19 17 21 14 31 -50 8 -49 73 -42 97 11 15 32
13 60 -5 108 -9 22 -15 58 -14 80 1 47 -40 197 -71 258 -50 98 -152 257 -182
284 -19 16 -56 35 -83 42 -27 7 -55 15 -62 17 -19 6 -32 49 -23 81 8 28 8 28
21 -2 24 -58 26 -60 72 -63 55 -4 78 15 78 62 0 35 -23 63 -67 81 -25 10 -26
13 -24 94 2 72 -1 90 -24 137 -34 69 -82 107 -144 112 -25 2 -64 5 -86 8 -56
7 -140 -37 -179 -93 -31 -45 -45 -126 -31 -180 7 -26 8 -26 15 -8 8 17 9 16 9
-8 1 -28 1 -28 -46 -1 -27 15 -60 36 -75 46 -30 21 -38 22 -38 8 0 -6 21 -20
46 -30 75 -33 101 -56 109 -97 10 -56 52 -154 77 -180 20 -21 24 -22 34 -8 7
9 18 13 28 9 27 -10 18 -19 -30 -32 -69 -19 -107 -62 -128 -147 -27 -107 -55
-172 -100 -234 -56 -76 -96 -155 -96 -189 0 -31 25 -72 44 -72 14 0 36 41 36
68 0 9 5 24 10 32 8 12 10 9 8 -10 -4 -36 23 -32 42 6 8 17 40 55 70 85 56 54
56 54 55 -38 0 -93 0 -93 -74 -125 -40 -18 -82 -43 -92 -56 -19 -24 -19 -24
-131 3 -62 16 -151 41 -197 57 -47 15 -88 28 -93 28 -4 0 -16 -17 -27 -37 -10
-21 -36 -55 -56 -76 -20 -21 -34 -41 -30 -45 9 -9 81 74 96 110 14 33 19 34
95 8 32 -12 133 -39 224 -61 241 -59 261 -66 255 -92 -2 -12 -9 -49 -15 -82
-23 -124 -28 -135 -58 -135 -49 0 -365 59 -487 90 -265 69 -287 86 -318 240
-18 89 -44 337 -57 540 -9 145 -9 145 -5 -40 4 -191 34 -464 60 -557 19 -64
52 -105 109 -131 112 -53 704 -178 728 -154 6 6 19 39 28 74 17 57 19 60 19
26 1 -36 1 -37 59 -48 93 -19 102 -22 102 -32 0 -10 -59 -5 -117 9 -35 8 -39
-19 -20 -152 10 -66 17 -130 17 -141 0 -31 -103 -114 -141 -114 -39 0 -38 22
6 73 19 22 37 54 40 71 5 27 -16 104 -49 186 -5 12 2 15 39 12 44 -4 46 -3 60
32 17 41 18 46 6 46 -5 0 -11 -13 -14 -30 -4 -17 -13 -31 -22 -31 -8 -1 -21
-2 -27 -2 -61 -4 -277 38 -486 95 -97 26 -156 38 -162 32 -6 -6 -14 -45 -20
-87 -18 -141 -53 -229 -105 -263 -59 -39 -123 -44 -576 -44 -240 0 -451 3
-468 6 -31 7 -31 7 -31 258 0 183 -3 255 -12 264 -9 9 -83 12 -269 12 -195 0
-260 3 -266 13 -4 6 -8 116 -8 243 0 181 -3 234 -14 247 -12 15 -43 17 -265
17 -183 0 -255 3 -264 12 -9 9 -12 75 -12 236 0 135 -4 231 -10 243 -9 16 -22
19 -83 19 -58 1 -68 3 -52 12 27 15 75 60 75 70 0 5 -20 53 -45 108 -46 99
-46 99 -36 215 10 108 9 124 -14 223 -29 123 -46 166 -74 184 -20 12 -20 12 0
35 13 12 23 41 26 67 5 40 2 48 -25 76 -23 22 -40 30 -67 30 -47 0 -122 -37
-106 -53 6 -6 11 -37 11 -68 0 -32 5 -61 10 -64 6 -3 10 -12 10 -20 0 -11 -8
-11 -47 2 -32 11 -63 34 -100 72 -29 31 -53 51 -53 46 -1 -6 -7 5 -16 24 -8
19 -12 36 -10 38 2 3 -9 43 -25 90 -16 48 -27 88 -26 90 2 2 12 -6 22 -17 23
-26 40 -25 97 2 29 14 51 33 58 50 7 15 27 39 46 53 46 35 46 77 2 136 -55 71
-104 95 -162 78z m113 -44 c52 -47 74 -95 61 -129 -5 -14 -12 -26 -14 -26 -3
0 -3 6 0 13 6 17 -39 41 -65 34 -12 -3 -27 3 -37 14 -27 30 -70 25 -91 -11
-18 -31 -37 -37 -62 -21 -22 14 12 92 55 131 50 44 101 42 153 -5z m-66 -106
c11 -15 23 -20 47 -17 50 5 58 -18 24 -72 -19 -30 -43 -53 -73 -68 -25 -12
-49 -22 -53 -22 -8 0 -118 145 -118 154 0 3 16 -2 36 -12 37 -17 37 -17 67 21
35 42 50 46 70 16z m-176 -96 c42 -41 52 -60 74 -133 26 -85 26 -85 -35 -106
-34 -12 -64 -19 -67 -15 -3 3 -11 31 -18 61 -15 70 -26 89 -42 73 -10 -10 -9
-24 3 -68 15 -55 15 -55 -20 -55 -20 0 -44 -7 -54 -17 -25 -22 -24 -93 3 -144
28 -56 20 -69 -39 -69 -51 0 -161 -25 -176 -40 -19 -19 6 -24 67 -11 34 7 79
19 99 26 65 22 41 -4 -37 -42 -52 -24 -94 -37 -138 -40 -86 -7 -107 5 -107 61
0 115 81 318 164 412 70 79 189 151 253 153 13 1 41 -18 70 -46z m-2 37 c3 -6
-1 -7 -9 -4 -18 7 -21 14 -7 14 6 0 13 -4 16 -10z m30 -30 c3 -5 4 -10 1 -10
-3 0 -8 5 -11 10 -3 6 -4 10 -1 10 3 0 8 -4 11 -10z m-87 -215 c1 -20 1 -20
-8 0 -5 11 -8 31 -8 45 0 25 0 25 8 0 4 -14 8 -34 8 -45z m540 -50 c26 -31 28
-55 7 -95 -19 -38 -34 -38 -32 -2 2 22 -2 27 -21 26 -15 0 -32 11 -48 32 -15
20 -31 31 -40 27 -25 -10 -15 16 14 32 37 21 91 12 120 -20z m-418 10 c0 -3
-2 -5 -5 -5 -3 0 -5 2 -5 5 0 3 2 5 5 5 3 0 5 -2 5 -5z m-97 -24 c4 -4 -7 -27
-25 -51 -18 -23 -43 -56 -54 -72 -22 -29 -22 -29 -38 12 -36 90 -13 136 63
125 25 -4 49 -10 54 -14z m67 14 c0 -3 -2 -5 -5 -5 -3 0 -5 2 -5 5 0 3 2 5 5
5 3 0 5 -2 5 -5z m90 -47 c10 -42 25 -64 69 -108 71 -70 131 -139 131 -151 0
-5 18 -18 40 -29 42 -21 63 -51 42 -58 -7 -2 -10 -13 -6 -28 7 -28 2 -30 -31
-8 -28 18 -67 77 -63 94 2 7 -44 38 -102 70 -58 32 -113 69 -123 82 -48 58
-93 184 -63 172 7 -3 23 0 37 5 46 19 55 14 69 -41z m261 -10 c13 -18 29 -41
36 -53 12 -19 12 -18 13 10 0 21 3 26 11 18 8 -8 8 -17 0 -31 -14 -26 -7 -45
22 -57 12 -6 30 -26 39 -45 15 -31 72 -271 66 -275 -2 -1 -40 -8 -86 -17 -78
-14 -84 -14 -92 3 -15 27 -12 39 10 39 50 0 45 90 -8 129 -27 19 -27 19 3 26
63 13 80 21 95 48 13 24 13 30 -1 55 -12 22 -22 27 -52 27 -31 0 -36 3 -31 18
5 16 2 18 -16 12 -44 -14 -76 52 -54 109 9 23 17 20 45 -16z m-356 -66 c32
-62 50 -84 90 -110 50 -34 50 -34 5 -28 -25 3 -93 9 -153 13 -107 6 -107 6
-133 -23 -71 -80 -101 -134 -72 -134 19 0 85 77 98 114 11 34 14 36 55 36 76
0 268 -30 305 -48 62 -30 65 -47 52 -306 -6 -126 -15 -233 -20 -238 -5 -5 -29
-8 -53 -6 -44 3 -44 3 -45 143 0 77 -4 158 -8 180 -7 38 -6 42 18 53 25 11 35
35 19 45 -5 2 -3 2 4 1 16 -4 26 13 13 21 -6 4 -30 -3 -53 -15 -38 -19 -63
-22 -257 -27 -243 -6 -284 0 -324 48 -46 54 -37 66 53 71 64 4 93 11 145 37
65 32 116 85 116 121 0 8 20 40 45 70 25 30 45 59 45 64 0 17 15 -5 55 -82z
m165 12 c11 -12 49 -35 85 -50 69 -30 85 -54 36 -54 -47 0 -173 117 -171 159
0 3 7 -3 15 -14 8 -11 24 -30 35 -41z m196 -75 c10 -17 -13 -36 -27 -22 -12
12 -4 33 11 33 5 0 12 -5 16 -11z m95 -30 c7 -14 5 -25 -6 -43 -23 -35 -41
-38 -59 -11 -21 32 -20 42 4 55 11 6 18 15 15 20 -3 4 4 6 15 3 11 -3 25 -14
31 -24z m-64 14 c-4 -3 -10 -3 -14 0 -3 4 0 7 7 7 7 0 10 -3 7 -7z m-58 -30
c24 5 30 2 34 -15 8 -29 1 -38 -29 -38 -33 0 -58 14 -77 44 -17 25 -17 25 14
14 16 -6 43 -8 58 -5z m-609 -9 c-30 -7 -59 -12 -65 -10 -12 4 71 24 100 24
11 0 -5 -6 -35 -14z m-90 -19 c0 -3 -2 -5 -5 -5 -3 0 -5 2 -5 5 0 3 2 5 5 5 3
0 5 -2 5 -5z m171 -58 c-23 -38 -51 -65 -51 -50 0 13 62 95 67 89 3 -3 -4 -20
-16 -39z m529 8 c0 -3 -2 -5 -5 -5 -3 0 -5 2 -5 5 0 3 2 5 5 5 3 0 5 -2 5 -5z
m1 -135 c5 0 9 -13 9 -28 0 -57 18 -66 109 -58 82 7 82 7 75 -81 -6 -88 -6
-88 40 -183 46 -95 46 -95 11 -127 -46 -44 -69 -45 -48 -3 19 39 14 59 -38
148 -22 39 -54 108 -69 154 -16 46 -29 75 -29 65 -1 -10 11 -53 25 -95 21 -61
27 -98 28 -177 1 -97 0 -100 -22 -103 -13 -2 -30 -1 -38 2 -13 5 -13 9 -1 26
10 15 11 34 5 82 -5 35 -12 113 -17 173 -4 61 -9 94 -10 75 -4 -56 -2 -108 11
-213 14 -124 10 -130 -70 -101 -49 18 -57 24 -55 45 0 13 4 126 8 251 8 228 8
228 37 188 17 -22 34 -40 39 -40z m-204 3 c-4 -3 -10 -3 -14 0 -3 4 0 7 7 7 7
0 10 -3 7 -7z m-19 -248 c0 -77 -2 -91 -8 -60 -14 69 -23 232 -14 246 13 20
22 -64 22 -186z m3792 5 c13 -8 12 -13 -6 -37 -11 -15 -38 -37 -60 -49 -43
-23 -135 -107 -153 -139 -9 -17 -10 -14 -11 21 0 49 43 138 81 166 27 20 94
47 119 47 8 1 22 -4 30 -9z m97 -15 c52 -22 72 -42 99 -100 28 -59 35 -156 9
-135 -8 7 -22 10 -30 6 -8 -3 -15 -2 -15 2 0 4 -29 43 -65 87 -62 76 -73 103
-59 139 8 20 15 20 61 1z m-32 -124 c61 -72 88 -111 81 -118 -4 -4 -12 -1 -18
5 -7 7 -27 12 -46 12 -45 0 -84 24 -113 71 -13 22 -29 39 -35 39 -7 0 -19 -17
-27 -38 -18 -44 -29 -55 -74 -70 -29 -10 -33 -9 -33 7 0 19 114 124 146 135
11 3 32 18 45 32 24 26 24 26 27 1 2 -13 23 -48 47 -76z m-3444 -40 c7 -18 5
-31 -10 -56 -14 -24 -16 -36 -8 -44 8 -8 -9 -11 -62 -11 -45 0 -70 4 -66 10 3
6 21 10 40 10 41 0 45 9 45 113 1 82 1 82 26 42 14 -22 30 -51 35 -64z m3443
-71 c30 -6 60 -18 66 -25 7 -8 16 -12 21 -9 5 3 9 -5 10 -18 1 -19 3 -17 11
10 13 38 28 42 28 6 0 -34 -20 -71 -30 -55 -4 8 -16 -11 -30 -48 -25 -68 -79
-125 -129 -136 -76 -17 -147 43 -181 151 -29 96 -27 108 19 126 29 12 45 27
61 58 22 43 22 43 61 -3 33 -38 48 -47 93 -57z m-3766 63 c-10 -2 -26 -2 -35
0 -10 3 -2 5 17 5 19 0 27 -2 18 -5z m6 -15 c21 9 34 8 72 -8 25 -11 50 -20
56 -20 11 0 42 -29 37 -35 -8 -7 -235 -9 -247 -1 -12 7 -17 58 -6 68 3 3 18 1
34 -5 21 -8 35 -8 54 1z m456 -108 c12 -8 16 -51 20 -252 5 -243 5 -243 265
-248 143 -3 266 -9 273 -13 9 -6 12 -66 12 -242 0 -128 3 -240 6 -249 5 -14
38 -16 263 -16 141 0 262 -4 270 -9 11 -7 14 -58 14 -257 1 -248 1 -248 -33
-258 -21 -6 -328 -9 -783 -9 -747 1 -747 1 -805 29 -69 35 -104 83 -129 174
-16 57 -18 113 -18 465 0 399 6 505 41 704 23 132 44 164 119 182 45 11 468
10 485 -1z m3048 -46 c-3 -14 -5 -12 -10 9 -3 19 -2 25 4 19 6 -6 8 -18 6 -28z
m452 1 c54 -28 65 -75 24 -101 -32 -22 -49 -7 -49 44 0 29 -4 37 -20 40 -19 4
-19 3 -3 -10 14 -10 16 -22 12 -51 -5 -30 -9 -35 -20 -26 -8 6 -14 19 -14 28
0 9 -8 27 -17 41 -15 21 -15 23 0 17 11 -4 18 1 22 14 8 23 26 24 65 4z m-431
-70 c0 -5 -4 -3 -9 5 -5 8 -9 22 -9 30 0 16 17 -16 18 -35z m50 -79 c6 -4 11
-12 11 -18 0 -16 -29 11 -46 43 -21 41 -17 49 5 13 11 -18 24 -35 30 -38z
m291 -17 c0 -3 -14 -18 -30 -34 -25 -24 -40 -30 -93 -33 -43 -2 -68 1 -81 11
-26 19 -12 37 28 37 31 0 104 42 121 70 5 8 15 3 31 -16 13 -16 23 -32 24 -35z
m89 -11 c24 -9 24 -9 -2 -36 -33 -35 -47 -72 -47 -126 0 -49 35 -106 92 -149
18 -14 42 -41 53 -59 19 -33 19 -33 -5 -15 -14 9 -35 24 -48 33 -28 21 -146
31 -157 15 -10 -17 23 -51 49 -51 12 0 27 -4 35 -9 24 -15 -23 -23 -119 -19
-80 3 -91 1 -104 -17 -18 -24 -19 -32 -6 -40 6 -4 8 -10 5 -15 -3 -4 15 -29
38 -54 56 -59 109 -78 205 -74 63 2 75 0 84 -16 17 -30 -3 -39 -53 -25 -24 7
-82 11 -130 10 -68 -2 -101 3 -165 23 -43 14 -94 26 -112 26 -33 0 -33 0 -27
78 3 42 11 118 17 168 12 98 4 174 -20 182 -11 3 -12 -9 -6 -64 14 -122 2
-174 -53 -235 -41 -45 -46 -46 -80 -19 -18 14 -33 18 -52 13 -25 -6 -25 -5
-10 13 9 10 32 40 52 66 35 47 35 47 71 27 43 -23 56 -24 56 -4 0 22 -45 48
-71 40 -19 -6 -21 -5 -14 11 4 11 18 55 30 99 32 112 40 129 70 154 39 30 97
45 107 27 13 -24 75 -39 126 -31 38 6 55 15 87 50 41 44 45 45 104 23z m157
-187 c40 -68 83 -149 95 -180 24 -64 52 -191 45 -199 -3 -3 -20 -6 -38 -7 -18
-1 -40 -5 -49 -9 -13 -6 -20 8 -40 76 -18 63 -39 107 -91 184 -86 129 -90 141
-77 205 6 28 8 53 5 56 -3 4 1 15 11 25 16 18 17 18 41 -4 13 -13 57 -79 98
-147z m-170 55 c-7 -56 4 -93 43 -141 11 -14 8 -13 -11 4 -50 44 -69 110 -48
165 16 42 23 30 16 -28z m76 -253 c52 -38 58 -49 62 -127 3 -46 0 -58 -17 -73
-20 -16 -20 -16 -8 0 17 21 8 22 -24 1 -37 -24 -123 -29 -188 -10 -31 9 -58
20 -61 25 -3 5 11 3 32 -5 43 -15 92 -18 92 -5 0 5 -24 12 -52 15 -48 7 -146
51 -135 62 2 2 24 -4 48 -15 50 -21 139 -35 139 -22 0 5 -30 14 -67 21 -70 12
-119 34 -128 58 -4 10 0 12 12 7 61 -26 93 -34 133 -34 50 1 46 3 -65 29 -85
19 -80 33 10 26 87 -6 150 8 150 34 0 9 -13 17 -35 20 -80 13 -81 41 -2 33 44
-4 68 -14 104 -40z m-527 27 c3 -6 -1 -7 -9 -4 -18 7 -21 14 -7 14 6 0 13 -4
16 -10z m602 -107 c-4 -3 -7 0 -7 7 0 7 3 10 7 7 3 -4 3 -10 0 -14z m-707 -28
c0 -3 -2 -5 -5 -5 -3 0 -5 2 -5 5 0 3 2 5 5 5 3 0 5 -2 5 -5z m-9 -15 c20 -11
27 -64 9 -75 -5 -3 -10 3 -10 14 0 34 -20 35 -33 2 -7 -19 -17 -29 -24 -27 -9
4 -13 -5 -13 -27 -1 -32 -1 -32 -16 -4 -18 33 -13 63 17 100 22 29 39 33 70
17z m849 -80 c0 -5 -8 -10 -17 -10 -15 0 -16 2 -3 10 19 12 20 12 20 0z m36
-45 c7 -19 13 -56 13 -82 -2 -36 -3 -40 -7 -18 -4 30 -4 30 -17 -10 -13 -40
-13 -40 -14 -7 -1 17 -5 32 -11 32 -5 0 -10 -15 -11 -32 -1 -32 -1 -32 -15 11
-18 59 -30 70 -49 45 -18 -24 -19 -4 -1 46 11 30 18 36 52 41 21 3 40 7 42 8
2 0 10 -15 18 -34z m-939 8 c-4 -3 -7 0 -7 7 0 7 3 10 7 7 3 -4 3 -10 0 -14z
m348 -38 c-11 9 -29 22 -40 30 -13 10 0 8 39 -5 33 -11 69 -20 80 -21 12 0 -4
-8 -34 -18 -66 -21 -152 -64 -168 -84 -10 -12 -8 -14 13 -14 14 0 33 9 43 22
24 31 132 71 227 85 66 10 90 10 135 -2 51 -13 55 -17 58 -45 4 -43 -21 -89
-61 -110 -39 -20 -122 -22 -157 -3 -25 14 -25 14 10 22 59 15 90 30 90 44 0
22 -20 27 -109 25 -66 -2 -99 -8 -146 -27 -87 -37 -132 -45 -138 -25 -4 16
-95 51 -130 51 -10 0 -17 4 -17 8 0 17 36 40 110 73 41 18 76 36 78 40 1 3 33
-9 70 -28 37 -19 58 -27 47 -18z m3562 3 c49 -46 23 -128 -87 -274 -52 -70
-80 -97 -119 -117 -62 -33 -88 -34 -118 -5 -38 35 -29 61 42 132 36 36 72 79
79 96 13 31 13 31 31 4 25 -38 29 -91 11 -149 -18 -57 -13 -73 8 -24 8 19 34
56 59 83 82 89 124 205 87 240 -45 42 -105 15 -141 -63 -26 -54 -45 -68 -34
-23 23 97 125 153 182 100z m-19 -20 c32 -32 3 -118 -69 -208 -44 -54 -44 -54
-51 -5 -4 28 -10 64 -13 81 -8 37 22 104 57 128 27 19 59 21 76 4z m-247 -27
c28 -22 29 -71 4 -122 -18 -35 -133 -159 -148 -159 -15 0 56 83 85 99 15 9 28
20 28 24 0 5 -5 5 -10 2 -6 -3 1 15 15 41 14 26 25 56 25 67 0 28 -29 57 -56
57 -27 0 -85 -48 -126 -104 -15 -21 -28 -36 -28 -32 0 14 35 62 74 104 33 35
47 42 77 42 21 0 47 -8 60 -19z m-32 -10 c18 -12 17 -61 -2 -98 -25 -47 -60
-72 -115 -83 -59 -11 -82 -21 -102 -45 -11 -13 -6 -13 26 4 21 11 57 23 78 27
39 7 39 7 5 -41 -41 -57 -69 -73 -103 -57 -41 18 -29 57 46 159 68 91 119 143
141 143 7 0 18 -4 26 -9z m-3329 -26 c0 -3 -2 -5 -5 -5 -3 0 -5 2 -5 5 0 3 2
5 5 5 3 0 5 -2 5 -5z m-20 -9 c0 -3 -5 -8 -12 -12 -7 -4 -8 -3 -4 4 7 12 16
16 16 8z m310 -5 c0 -10 -41 -25 -97 -36 -45 -9 -41 -29 7 -49 51 -20 110 -20
157 -1 20 8 38 13 41 11 10 -11 -49 -55 -89 -67 -52 -15 -78 -34 -37 -27 65
12 -27 -43 -107 -63 -37 -9 -65 -9 -130 1 -46 7 -87 16 -92 19 -4 3 -7 41 -5
84 3 69 6 77 23 77 11 0 38 9 61 21 23 12 62 25 87 29 66 11 181 12 181 1z
m-369 -173 c-9 -33 -9 -33 -10 2 0 19 3 53 7 75 7 40 7 40 10 -2 2 -22 -1 -56
-7 -75z m3350 -57 c-31 -74 80 -141 159 -96 14 8 32 14 40 15 25 0 -93 -68
-140 -80 -63 -18 -186 -16 -240 2 -45 16 -45 16 61 17 91 1 108 4 123 20 10
11 15 24 12 29 -10 16 -73 42 -103 42 -28 1 -28 1 2 14 17 8 43 28 59 45 34
36 44 33 27 -8z m-229 -41 c40 -11 92 -20 116 -20 81 0 148 -48 90 -64 -13 -3
-69 -6 -125 -6 -82 0 -103 -3 -103 -14 0 -18 117 -46 187 -46 78 0 167 27 238
70 88 54 113 50 61 -8 -68 -74 -126 -110 -230 -139 -53 -15 -96 -31 -96 -36 0
-9 6 -8 125 30 82 25 120 48 190 113 44 40 71 54 80 40 7 -12 -106 -102 -175
-138 -61 -33 -222 -82 -268 -82 -16 0 -81 12 -143 26 -75 17 -133 24 -170 22
-57 -4 -57 -4 -62 35 -3 22 -17 62 -32 90 -26 51 -26 51 -3 69 13 10 50 32 82
48 72 36 134 39 238 10z m-2984 -17 c25 -6 26 -16 16 -148 -7 -81 -7 -81 -47
-82 -47 -2 -70 -19 -47 -34 8 -5 26 -7 40 -4 52 12 55 11 58 -19 3 -19 -4 -36
-21 -55 -14 -14 -34 -45 -46 -68 -21 -43 -39 -54 -91 -55 -48 -2 -52 12 -19
65 53 85 60 136 38 268 -27 164 -30 153 39 144 31 -3 67 -9 80 -12z m2663
-216 c23 -32 22 -60 -3 -65 -13 -2 -20 12 -32 67 -9 38 -16 85 -15 103 0 28 2
25 15 -22 8 -30 24 -68 35 -83z m-1 87 c21 -47 27 -96 11 -78 -7 7 -41 107
-41 121 0 15 14 -5 30 -43z m-970 -73 c0 -11 -5 -23 -11 -27 -15 -9 -33 12
-26 30 9 23 37 20 37 -3z m-1717 -48 c-7 -2 -21 -2 -30 0 -10 3 -4 5 12 5 17
0 24 -2 18 -5z"/>
<path d="M5910 4425 c0 -3 2 -5 5 -5 3 0 5 2 5 5 0 3 -2 5 -5 5 -3 0 -5 -2 -5
-5z"/>
<path d="M8784 4138 c-4 -7 -3 -8 4 -4 7 4 12 9 12 12 0 8 -9 4 -16 -8z"/>
<path d="M8558 6629 c-21 -12 -24 -49 -6 -67 7 -7 10 -13 8 -13 -3 -1 -167 -5
-365 -8 -360 -6 -360 -6 -363 -29 -4 -28 14 -52 39 -52 16 0 18 -5 13 -27 -5
-17 -2 -30 8 -37 8 -6 56 -105 108 -221 51 -115 116 -257 143 -315 40 -83 50
-114 48 -147 -2 -36 2 -47 29 -74 19 -20 39 -56 51 -93 10 -34 36 -92 58 -129
22 -37 38 -73 35 -80 -2 -7 14 -36 35 -65 61 -81 66 -171 15 -268 -13 -25 -22
-49 -20 -52 2 -4 -29 -45 -70 -92 -41 -47 -74 -90 -74 -97 0 -6 -30 -38 -66
-70 -36 -32 -87 -88 -114 -124 -26 -37 -71 -86 -99 -109 -56 -47 -66 -83 -33
-113 26 -24 48 -21 69 8 64 90 90 119 137 152 30 21 93 66 140 101 70 51 89
61 104 53 16 -8 27 -2 62 34 25 25 47 45 51 45 4 0 9 -28 11 -62 3 -35 10 -64
16 -66 22 -7 13 -69 -13 -100 -14 -17 -35 -52 -46 -79 -12 -26 -33 -60 -46
-75 -20 -21 -24 -33 -19 -55 4 -15 11 -47 15 -70 10 -54 28 -75 60 -71 26 3
26 4 23 76 -4 72 -4 72 53 135 76 83 114 143 121 189 4 20 11 36 18 35 14 -3
28 207 15 240 -8 22 -7 24 11 18 11 -3 20 -5 21 -3 1 2 9 86 18 188 17 180 18
187 49 232 18 26 32 54 32 63 0 9 20 57 44 108 25 51 50 115 57 142 7 28 23
63 37 80 20 24 23 36 18 70 -3 23 -1 46 3 51 11 11 228 535 237 570 3 13 12
28 20 35 8 6 14 24 14 39 0 16 7 30 16 34 10 4 14 16 12 38 -3 33 -3 33 -343
38 -218 3 -339 9 -338 15 1 6 4 18 8 27 4 10 -1 24 -14 37 -24 24 -29 25 -53
10z m50 -37 c4 -28 -24 -40 -45 -19 -21 21 -9 49 19 45 15 -2 24 -11 26 -26z
m670 -67 c21 -8 13 -35 -13 -45 -15 -6 -301 -10 -714 -10 -726 0 -722 0 -705
44 5 14 45 16 363 18 433 4 1051 -1 1069 -7z m-1328 -104 c0 -10 -9 -17 -25
-17 -20 -2 -25 3 -25 21 0 13 6 25 13 28 16 6 37 -12 37 -32z m652 21 c10 -10
10 -15 -2 -22 -25 -16 -40 -11 -40 12 0 17 -3 19 -12 10 -9 -9 -9 -17 0 -34 7
-15 12 -152 15 -405 4 -367 3 -383 -15 -389 -54 -17 -88 -130 -56 -188 7 -13
22 -39 32 -57 18 -32 16 -31 -35 16 -66 61 -76 74 -119 150 -18 33 -41 71 -51
84 -11 14 -19 40 -19 63 0 31 -6 46 -28 66 -19 18 -57 93 -110 212 -44 102
-106 241 -137 310 -97 212 -124 192 245 188 244 -2 322 -6 332 -16z m593 -14
c-2 -18 -57 -170 -124 -337 -97 -245 -126 -310 -152 -333 -25 -23 -30 -35 -27
-59 7 -45 -81 -209 -156 -290 -50 -55 -72 -68 -28 -17 8 10 17 46 20 86 4 66
3 70 -27 104 -17 20 -42 39 -55 42 -24 6 -24 6 -26 328 0 178 -3 346 -6 374
-4 31 -2 59 5 72 8 16 9 28 1 42 -11 20 -8 20 284 20 294 0 294 0 291 -32z
m63 -2 c-4 -26 -27 -28 -42 -3 -8 13 -8 20 3 26 21 14 42 1 39 -23z m-653 -26
c-3 -5 -11 -10 -16 -10 -6 0 -7 5 -4 10 3 6 11 10 16 10 6 0 7 -4 4 -10z
m-530 -275 c53 -121 107 -244 121 -274 28 -62 29 -71 10 -71 -8 0 -55 92 -116
228 -158 349 -164 363 -148 373 16 10 13 16 133 -256z m1150 255 c3 -5 -42
-126 -101 -267 -58 -142 -112 -273 -120 -290 -13 -34 -42 -48 -30 -15 58 155
232 582 238 582 4 0 10 -4 13 -10z m-622 -242 c11 -376 9 -468 -6 -468 -11 0
-15 47 -20 227 -11 363 -9 483 6 483 11 0 15 -50 20 -242z m377 -388 c10 -24
10 -36 0 -60 -13 -32 -35 -42 -26 -12 16 52 17 70 5 78 -9 5 -11 2 -6 -9 3 -9
2 -19 -3 -22 -11 -7 -13 15 -4 39 9 24 20 19 34 -14z m-750 15 c0 -3 -2 -5 -5
-5 -3 0 -5 2 -5 5 0 3 2 5 5 5 3 0 5 -2 5 -5z m50 -76 c0 -59 -18 -55 -22 5
-2 43 0 52 10 44 6 -6 12 -28 12 -49z m642 25 c-3 -24 0 -40 9 -46 12 -8 11
-9 -1 -5 -16 4 -28 87 -13 87 5 0 7 -16 5 -36z m-688 20 c9 -3 16 -11 16 -16
0 -6 -7 -8 -15 -4 -18 6 -18 2 -6 -42 11 -38 -1 -43 -17 -7 -13 29 -15 58 -5
68 8 8 8 8 27 1z m716 -38 c0 -3 -4 -8 -10 -11 -5 -3 -10 -1 -10 4 0 6 5 11
10 11 6 0 10 -2 10 -4z m-703 -28 c-3 -8 -6 -5 -6 6 -1 11 2 17 5 13 3 -3 4
-12 1 -19z m363 -28 c0 -5 -4 -10 -9 -10 -6 0 -13 5 -16 10 -3 6 1 10 9 10 9
0 16 -4 16 -10z m317 -7 c9 -23 -12 -95 -54 -185 -35 -75 -56 -98 -69 -76 -4
7 -3 8 4 4 19 -12 14 6 -10 31 -19 21 -20 24 -6 40 8 10 37 60 63 111 47 92
60 106 72 75z m-570 -102 c20 -36 44 -75 54 -86 18 -20 18 -21 -6 -50 -25 -30
-25 -30 -41 -10 -26 33 -71 127 -88 184 -13 43 -13 56 -4 63 16 10 38 -16 85
-101z m310 67 c23 -11 53 -64 53 -91 0 -30 -18 -26 -39 8 -23 39 -35 43 -58
19 -11 -11 -26 -14 -45 -10 -23 4 -35 0 -54 -19 -14 -14 -27 -25 -29 -25 -10
0 -4 42 9 68 34 66 93 84 163 50z m-9 -77 c7 -4 20 -26 27 -47 8 -21 14 -33
15 -26 0 6 4 12 9 12 5 0 7 -9 4 -20 -3 -11 -9 -20 -13 -20 -4 0 -11 -11 -14
-25 -10 -40 -42 -65 -80 -65 -49 0 -86 49 -86 113 0 50 10 62 50 59 15 -1 35
5 46 13 22 17 25 17 42 6z m-148 -72 c0 -6 -4 -7 -10 -4 -5 3 -10 11 -10 16 0
6 5 7 10 4 6 -3 10 -11 10 -16z m-16 -85 c28 -25 60 -54 71 -65 25 -23 72 -25
97 -2 10 9 18 19 18 23 0 9 73 90 81 90 3 0 20 -19 37 -43 31 -43 31 -43 -5
-94 -35 -51 -35 -51 -45 -219 -6 -93 -14 -173 -18 -177 -4 -5 -36 -1 -71 8
-59 15 -240 74 -247 80 -2 1 7 22 20 46 19 36 23 60 23 129 0 84 -1 86 -37
131 -21 25 -38 49 -38 53 0 9 52 86 58 86 3 0 28 -21 56 -46z m154 -61 c-6 -7
-21 -13 -33 -13 -12 0 -27 6 -33 13 -8 9 -1 12 33 12 34 0 41 -3 33 -12z
m-151 -389 c-5 -5 -57 13 -57 20 0 3 14 0 31 -6 16 -6 28 -12 26 -14z m-22
-13 c61 -24 105 -37 203 -57 21 -4 22 -9 22 -98 0 -120 -3 -129 -38 -110 -15
8 -53 14 -84 14 -58 0 -58 0 -58 38 0 27 8 48 31 75 17 20 28 41 25 46 -12 19
-46 -3 -96 -60 -28 -32 -61 -64 -73 -70 -12 -7 -19 -8 -15 -5 8 9 -56 67 -95
88 -28 14 -28 14 38 91 37 42 67 77 68 77 1 0 34 -13 72 -29z m110 -11 c48
-17 52 -19 20 -14 -39 6 -109 32 -90 33 6 0 37 -8 70 -19z m92 -26 c-3 -3 -12
-4 -19 -1 -8 3 -5 6 6 6 11 1 17 -2 13 -5z m-117 -69 c0 -2 -10 -9 -22 -15
-22 -11 -22 -10 -4 4 21 17 26 19 26 11z m-228 -74 c32 -28 32 -28 2 -56 -33
-31 -218 -166 -251 -183 -16 -9 -24 -9 -29 0 -5 7 -3 8 5 3 10 -5 10 -3 0 12
-10 17 -6 27 24 69 20 28 68 79 107 113 71 63 71 63 108 37 46 -31 67 -35 26
-4 -45 33 -49 38 -36 38 6 0 26 -13 44 -29z m218 -91 c0 -5 -4 -10 -10 -10 -5
0 -10 5 -10 10 0 6 5 10 10 10 6 0 10 -4 10 -10z m83 -7 c-13 -2 -33 -2 -45 0
-13 2 -3 4 22 4 25 0 35 -2 23 -4z m36 -29 c2 -2 -1 -21 -7 -42 -13 -43 -62
-113 -125 -179 -38 -39 -41 -41 -63 -27 -22 15 -22 15 3 72 13 30 35 68 47 83
13 15 26 45 30 68 6 40 6 40 59 34 28 -3 54 -7 56 -9z m-646 -197 c-21 -31
-42 -56 -47 -57 -16 0 -46 32 -46 51 0 9 21 35 48 57 45 39 48 40 65 23 18
-17 17 -20 -20 -74z m417 -57 c0 -6 11 -15 25 -20 21 -8 25 -16 25 -54 0 -24
2 -50 5 -58 3 -7 0 -20 -5 -28 -14 -23 -42 -1 -52 41 -5 19 -13 50 -19 70 -11
36 -7 59 12 59 5 0 9 -5 9 -10z m30 -5 c0 -3 -2 -5 -5 -5 -3 0 -5 2 -5 5 0 3
2 5 5 5 3 0 5 -2 5 -5z"/>
<path d="M5077 6180 c-115 -29 -215 -133 -252 -264 -13 -43 -16 -84 -13 -149
5 -98 13 -87 -125 -171 -65 -40 -86 -130 -47 -206 11 -22 20 -46 20 -54 0 -9
-9 -20 -20 -26 -11 -6 -20 -20 -20 -31 0 -19 3 -18 58 11 143 76 209 155 197
235 -3 21 -14 58 -25 82 -17 38 -18 83 -1 83 3 0 14 -14 23 -30 9 -17 24 -30
32 -30 17 0 14 -34 -11 -135 -22 -90 -38 -121 -69 -138 -47 -24 -214 -117
-287 -159 -61 -36 -70 -45 -102 -108 -46 -92 -65 -104 -160 -98 -40 3 -79 2
-85 -2 -6 -4 -18 -50 -27 -103 -9 -54 -18 -96 -20 -94 -2 3 -15 89 -29 193
-24 183 -35 224 -53 195 -9 -14 -9 -14 -46 -395 -14 -143 -27 -261 -29 -263
-12 -12 -25 158 -46 607 -6 118 -13 236 -16 263 -6 45 -20 62 -29 35 -4 -12
-55 -496 -55 -528 -1 -26 -16 9 -30 68 -6 28 -16 54 -21 57 -9 6 -23 -42 -34
-115 -8 -48 -24 -88 -25 -60 -1 54 -33 267 -41 275 -14 14 -26 -8 -33 -66 -11
-80 -10 -79 -87 -79 -39 0 -69 -4 -69 -10 0 -6 30 -10 70 -10 79 0 86 6 97 85
5 42 23 74 23 43 0 -28 30 -257 36 -272 13 -33 23 -13 39 80 19 102 24 104 45
17 11 -50 22 -64 34 -45 5 8 27 191 47 402 16 154 24 129 33 -102 11 -248 35
-630 42 -655 7 -24 19 -30 29 -13 4 6 19 142 35 303 29 288 38 362 45 356 1
-2 13 -83 25 -179 33 -257 46 -276 75 -110 9 52 19 98 21 102 3 4 46 8 95 8
82 0 92 2 115 25 13 13 34 46 45 72 28 66 51 88 149 140 47 25 104 57 128 70
42 24 42 24 36 -17 -5 -30 1 -73 21 -155 28 -112 28 -112 5 -160 -18 -37 -21
-57 -17 -97 4 -28 11 -56 16 -62 6 -7 29 -49 51 -94 27 -54 56 -94 86 -121 46
-40 46 -40 21 -52 -21 -10 -29 -9 -43 5 -21 22 -48 17 -52 -10 -4 -26 22 -38
48 -24 10 6 27 10 38 10 11 0 30 9 44 19 13 11 43 22 66 24 22 3 46 8 51 12
16 9 13 31 -5 46 -14 11 -20 8 -44 -21 -16 -19 -31 -33 -34 -30 -3 3 0 26 5
50 6 26 8 75 4 115 -4 39 -9 87 -11 108 -4 38 -35 109 -62 140 -8 9 -32 22
-53 27 -34 9 -40 16 -58 65 -22 60 -45 184 -39 212 3 14 9 9 22 -17 10 -19 39
-68 64 -107 42 -68 49 -74 98 -88 28 -8 79 -36 113 -61 60 -45 61 -46 95 -152
44 -137 46 -142 57 -142 24 0 3 122 -38 219 -26 62 -26 64 -10 110 10 25 17
62 17 82 0 49 -30 146 -39 130 -11 -17 -21 10 -21 55 0 29 5 36 38 53 65 34
135 119 167 204 10 27 24 51 31 54 6 2 12 14 12 26 0 12 5 47 12 77 18 75 9
100 -55 170 -30 33 -55 69 -55 79 0 28 -21 37 -33 15 -26 -47 -64 -69 -146
-86 -91 -19 -140 -48 -167 -100 -16 -31 -16 -31 -33 -10 -24 31 -67 39 -80 14
-6 -12 -11 -30 -11 -41 0 -11 -5 -23 -12 -27 -8 -5 -10 15 -5 81 14 195 138
341 300 353 77 6 112 -10 132 -60 23 -58 5 -83 -72 -97 -123 -24 -187 -42
-219 -62 -33 -20 -92 -104 -81 -115 3 -3 15 12 26 34 35 68 97 99 248 122 94
15 127 39 120 87 -8 46 9 33 18 -14 8 -47 18 -59 67 -84 57 -29 78 -78 78
-184 0 -59 -5 -96 -16 -116 -22 -43 -10 -49 16 -8 58 95 66 249 17 345 -48 94
-123 148 -172 126 -15 -7 -25 -8 -25 -2 0 31 -117 56 -183 40z m287 -69 c61
-41 116 -157 116 -245 0 -23 -6 -63 -13 -91 -13 -50 -13 -50 -13 25 1 101 -21
150 -84 189 -39 24 -49 37 -59 73 -7 23 -15 49 -17 56 -9 19 37 15 70 -7z
m-99 -175 c-17 -26 -62 -47 -150 -71 -33 -9 -78 -28 -100 -42 -38 -25 -39 -25
-20 -3 25 29 84 55 158 70 39 8 69 21 90 41 39 35 42 36 22 5z m96 -63 c45
-48 49 -56 49 -102 0 -90 -72 -261 -143 -338 -73 -80 -127 -92 -193 -45 -84
61 -126 126 -139 215 -6 37 -11 47 -26 47 -25 0 -39 30 -39 84 0 35 5 48 20
56 15 8 21 8 24 -2 16 -53 14 -52 51 -19 47 41 94 64 184 91 87 25 113 40 131
75 13 24 15 24 23 8 6 -10 32 -41 58 -70z m-481 -67 c0 -3 -5 -8 -12 -12 -7
-4 -8 -3 -4 4 7 12 16 16 16 8z m-23 -63 c-3 -10 -5 -4 -5 12 0 17 2 24 5 18
2 -7 2 -21 0 -30z m-44 -100 c-3 -10 -30 -43 -59 -74 -67 -71 -73 -95 -44
-165 18 -45 20 -57 9 -70 -15 -19 -69 -47 -76 -41 -2 3 5 8 16 12 27 8 26 21
-4 87 -47 100 -26 153 90 224 39 24 71 43 72 44 1 0 0 -8 -4 -17z m36 -62 c17
-51 13 -112 -8 -147 -17 -28 -79 -84 -93 -84 -11 0 -38 81 -38 115 0 29 10 47
58 99 31 34 60 60 63 57 4 -3 11 -21 18 -40z m177 -170 c29 -27 69 -55 88 -61
32 -10 34 -14 29 -44 -3 -21 2 -48 16 -79 21 -47 27 -116 15 -189 -6 -37 -6
-37 -44 10 -20 26 -79 86 -130 132 -51 47 -105 104 -121 126 -28 41 -28 41 -9
79 10 20 27 67 36 104 18 68 18 68 42 20 13 -27 48 -71 78 -98z m-214 -84
c-17 -18 -22 -35 -22 -78 1 -102 47 -244 83 -254 59 -17 89 -48 116 -118 15
-40 4 -33 -13 8 -36 85 -112 113 -156 58 -19 -24 -21 -36 -16 -88 4 -49 3 -56
-6 -40 -20 34 -15 111 10 145 27 36 27 32 -3 136 -30 104 -34 204 -8 234 10
11 22 20 27 20 5 0 0 -10 -12 -23z m58 -33 c13 -20 62 -71 109 -113 86 -78
195 -201 186 -210 -3 -2 -20 9 -38 26 -51 47 -90 71 -138 83 -40 10 -49 18
-90 83 -62 95 -82 136 -75 153 8 22 19 17 46 -22z m331 -220 c-7 -22 -9 -10
-9 51 0 77 1 78 9 29 5 -28 4 -63 0 -80z m-278 -134 c14 -11 31 -37 38 -58 6
-20 18 -45 26 -54 10 -11 17 -47 20 -105 5 -93 -4 -154 -26 -161 -19 -6 -95
79 -126 142 -25 52 -38 115 -38 190 0 32 33 66 63 66 9 0 29 -9 43 -20z m306
-110 c12 -41 19 -75 17 -77 -4 -4 -66 179 -66 193 1 21 31 -49 49 -116z m-139
-245 c0 -8 -4 -15 -9 -15 -13 0 -22 16 -14 24 11 11 23 6 23 -9z m-200 -65 c0
-5 -7 -10 -15 -10 -8 0 -15 5 -15 10 0 6 7 10 15 10 8 0 15 -4 15 -10z"/>
<path d="M4900 5785 c0 -3 2 -5 5 -5 3 0 5 2 5 5 0 3 -2 5 -5 5 -3 0 -5 -2 -5
-5z"/>
<path d="M5761 5774 c-40 -28 -20 -88 47 -141 23 -18 45 -33 50 -33 16 0 91
87 98 113 14 60 -57 97 -94 49 -9 -12 -15 -14 -20 -5 -15 24 -58 33 -81 17z
m74 -30 c23 -24 23 -25 30 -5 7 22 46 38 64 26 25 -15 11 -65 -30 -110 -41
-45 -41 -45 -84 -9 -51 41 -74 86 -55 109 19 22 48 18 75 -11z"/>
<path d="M1005 5705 c-25 -24 -25 -24 -25 -1035 0 -1010 0 -1010 -485 -1010
-317 0 -485 -3 -485 -10 0 -7 170 -10 489 -10 437 0 490 2 495 16 3 9 6 469 6
1024 0 927 1 1009 17 1021 13 11 78 14 331 13 292 -2 317 -3 329 -20 10 -13
13 -70 13 -229 0 -193 2 -214 19 -233 10 -12 21 -22 24 -22 10 0 -6 34 -20 43
-10 6 -13 55 -13 222 0 202 -1 216 -20 235 -19 19 -33 20 -335 20 -316 0 -316
0 -340 -25z"/>
<path d="M1057 5624 c-9 -10 2 -24 19 -24 8 0 14 7 14 15 0 15 -21 21 -33 9z"/>
<path d="M1150 5615 c0 -13 18 -15 122 -13 86 2 123 7 126 16 3 9 -26 12 -122
12 -106 0 -126 -2 -126 -15z"/>
<path d="M1317 5488 c-68 -51 -68 -51 -118 -2 -71 70 -61 36 14 -44 62 -67 62
-67 -50 -70 -184 -4 -134 -22 62 -22 110 0 175 4 175 10 0 6 -22 10 -49 10
-42 0 -52 4 -69 27 -20 27 -20 27 49 77 62 44 83 67 62 66 -5 0 -39 -24 -76
-52z"/>
<path d="M5945 5492 c-21 -21 31 -102 65 -102 10 0 30 14 44 31 46 54 32 76
-46 76 -32 0 -60 -2 -63 -5z m47 -19 c17 -15 19 -15 32 2 14 19 36 13 36 -10
0 -8 -11 -27 -24 -42 -24 -28 -24 -28 -50 -4 -14 14 -26 35 -26 48 0 27 7 29
32 6z"/>
<path d="M1195 5258 c-11 -6 -26 -18 -32 -26 -20 -24 -16 -90 7 -122 20 -28
20 -28 0 -23 -14 4 -20 0 -20 -11 0 -14 17 -16 125 -16 69 0 125 4 125 9 0 14
-39 21 -113 21 -59 0 -71 3 -92 25 -32 31 -34 84 -4 111 17 15 40 20 115 22
52 2 94 8 94 13 0 13 -181 11 -205 -3z"/>
<path d="M6505 5235 c-123 -39 -199 -127 -188 -218 7 -48 51 -87 99 -87 23 0
34 -5 34 -14 0 -8 14 -26 32 -41 27 -23 38 -26 74 -21 39 5 45 3 71 -28 15
-18 33 -41 38 -50 6 -10 19 -18 30 -19 16 -2 20 4 20 26 -1 22 3 26 18 21 29
-9 74 15 87 46 7 16 17 31 24 33 19 7 46 70 46 106 0 16 -9 55 -21 86 -16 44
-33 66 -80 105 -35 29 -70 50 -84 50 -13 0 -26 4 -30 9 -8 14 -123 11 -170 -4z
m83 -7 c18 -18 14 -55 -8 -86 -22 -29 -28 -75 -16 -104 7 -15 3 -18 -23 -18
-35 0 -56 29 -47 66 4 13 2 24 -3 24 -18 0 -20 -55 -3 -74 16 -17 16 -19 -5
-33 -13 -9 -23 -21 -23 -28 0 -7 -7 -18 -15 -25 -19 -16 -89 5 -81 25 2 7 -2
12 -12 11 -9 0 -18 7 -20 17 -3 13 2 16 20 13 13 -3 26 -5 31 -5 4 -1 6 -7 5
-13 -2 -8 9 -14 25 -16 26 -3 27 -2 15 18 -12 18 -10 23 12 40 20 16 22 20 8
20 -10 0 -23 -9 -30 -20 -19 -31 -25 -24 -19 23 5 33 10 43 28 45 13 2 20 8
17 17 -6 15 5 23 46 35 27 8 29 7 20 -10 -16 -30 -12 -35 10 -12 11 12 20 26
20 31 0 6 7 14 16 19 15 8 14 11 -5 25 -16 11 -19 16 -9 20 22 9 33 8 46 -5z
m82 -6 c3 -2 -1 -7 -8 -9 -10 -4 -10 -8 -2 -19 9 -10 5 -25 -16 -64 -15 -27
-24 -53 -21 -56 4 -4 11 4 17 17 6 13 19 40 29 59 10 19 17 40 14 46 -9 25 19
24 63 -1 41 -24 56 -55 23 -46 -8 2 -23 6 -33 9 -12 3 -17 1 -12 -6 3 -6 1
-14 -4 -17 -7 -4 -8 -19 -5 -36 6 -24 3 -31 -20 -41 -21 -9 -28 -9 -35 1 -6
11 -9 11 -16 -1 -13 -21 -44 -30 -60 -17 -22 18 -16 65 12 98 16 19 25 41 24
58 -1 16 -2 32 -1 36 1 8 41 0 51 -11z m-141 -11 c11 -7 7 -13 -17 -25 -17 -9
-38 -16 -46 -16 -9 0 -21 -9 -28 -20 -14 -22 -62 -28 -56 -7 6 16 98 77 118
77 8 0 21 -4 29 -9z m292 -78 c8 -10 21 -30 28 -45 12 -23 12 -29 -3 -44 -21
-21 -38 -7 -41 33 -1 15 -5 38 -9 51 -9 26 5 29 25 5z m-44 -5 c6 -7 13 -36
16 -65 6 -50 4 -54 -26 -78 -30 -24 -31 -25 -8 -23 13 2 26 -3 28 -10 4 -10
-4 -13 -28 -10 -21 2 -33 8 -31 16 3 15 -10 16 -26 0 -8 -8 -15 -9 -22 -2 -14
14 -2 44 16 44 8 0 14 5 14 11 0 12 -16 4 -47 -24 -12 -11 -28 -17 -36 -14 -8
3 -21 -3 -30 -14 -13 -15 -22 -17 -41 -9 -32 12 -38 3 -19 -26 16 -26 39 -33
30 -10 -4 9 7 18 32 26 30 10 49 10 99 -1 33 -8 61 -18 62 -24 1 -14 -76 -25
-132 -18 -40 5 -48 3 -48 -11 0 -27 -66 -21 -95 9 -30 29 -31 45 -7 74 16 21
32 27 152 55 107 26 121 36 100 76 -8 15 -6 21 7 29 24 14 29 13 40 -1z m-392
-45 c-2 -21 -4 -41 -4 -45 -1 -5 -12 -8 -26 -8 -29 0 -32 17 -10 60 23 44 45
39 40 -7z m490 -72 c7 -33 -8 -71 -29 -71 -24 0 -60 36 -53 53 5 13 49 43 69
46 3 1 9 -12 13 -28z m-32 -81 c20 0 20 -1 5 -16 -19 -19 -58 -10 -58 13 0 10
6 13 16 9 9 -3 25 -6 37 -6z m-46 -36 c-3 -3 -12 -4 -19 -1 -8 3 -5 6 6 6 11
1 17 -2 13 -5z m-127 -44 c0 -10 6 -23 14 -29 8 -6 16 -21 19 -31 8 -32 -21
-24 -39 11 -9 18 -27 42 -40 54 -33 30 -30 35 11 22 22 -6 35 -17 35 -27z
m145 19 c3 -4 -3 -17 -15 -29 -27 -27 -95 -28 -110 -1 -11 22 -5 29 38 40 30
8 80 3 87 -10z"/>
<path d="M6670 4925 c0 -3 2 -5 5 -5 3 0 5 2 5 5 0 3 -2 5 -5 5 -3 0 -5 -2 -5
-5z"/>
<path d="M6493 4903 c9 -2 23 -2 30 0 6 3 -1 5 -18 5 -16 0 -22 -2 -12 -5z"/>
<path d="M6176 5188 c-25 -39 -39 -115 -32 -179 6 -57 38 -139 55 -139 4 0 -4
23 -18 52 -34 68 -35 171 -3 237 24 49 23 67 -2 29z"/>
<path d="M7020 5173 c45 -84 47 -192 5 -273 -9 -17 -11 -30 -6 -30 5 0 19 26
31 58 17 44 21 71 17 123 -4 65 -38 159 -58 159 -5 0 0 -17 11 -37z"/>
<path d="M6210 5129 c-26 -62 -5 -209 29 -209 5 0 0 17 -10 37 -23 45 -25 120
-5 168 8 19 11 35 7 35 -5 0 -14 -14 -21 -31z"/>
<path d="M6980 5118 c24 -53 25 -105 4 -158 -9 -23 -14 -44 -10 -47 11 -12 36
67 36 116 0 51 -25 131 -41 131 -4 0 1 -19 11 -42z"/>
<path d="M4540 5093 c0 -10 36 -58 79 -106 101 -112 109 -136 121 -348 5 -91
11 -172 14 -180 2 -8 7 -27 11 -43 5 -23 8 -27 16 -15 21 33 2 347 -27 449
-24 83 -71 165 -125 215 -50 47 -89 59 -89 28z m89 -45 c39 -39 111 -169 111
-199 -1 -8 -12 9 -25 36 -13 28 -54 82 -90 122 -36 39 -65 74 -65 77 0 18 33
1 69 -36z m118 -250 c-3 -7 -5 -2 -5 12 0 14 2 19 5 13 2 -7 2 -19 0 -25z m27
-243 c4 -78 3 -101 -4 -80 -5 17 -12 93 -14 170 -6 162 8 94 18 -90z"/>
<path d="M6256 5088 c-10 -40 -6 -84 9 -104 14 -18 15 -17 8 11 -9 38 -9 64 1
93 4 12 3 22 -2 22 -5 0 -12 -10 -16 -22z"/>
<path d="M6931 5088 c7 -13 9 -44 6 -77 -5 -53 -4 -55 9 -26 7 17 13 37 14 46
0 25 -21 79 -31 79 -5 0 -4 -10 2 -22z"/>
<path d="M1220 4996 c-39 -14 -80 -67 -80 -103 0 -49 31 -95 78 -115 55 -25
101 -18 144 21 24 22 32 37 35 77 6 56 -16 114 -42 114 -21 0 -19 -14 5 -35
32 -29 28 -99 -9 -136 -16 -16 -39 -29 -50 -29 -20 0 -21 5 -21 110 0 120 1
118 -60 96z m40 -111 c0 -54 -4 -95 -10 -95 -48 0 -96 68 -85 120 7 33 48 70
76 70 17 0 19 -9 19 -95z"/>
<path d="M6622 4713 c-18 -67 -51 -114 -110 -152 -61 -39 -183 -71 -276 -72
-39 -1 -82 -5 -96 -10 -49 -17 194 0 262 19 122 34 217 119 234 208 10 55 -1
60 -14 7z"/>
<path d="M1215 4706 c-71 -31 -93 -98 -51 -158 24 -36 24 -38 6 -38 -11 0 -20
-4 -20 -10 0 -6 67 -10 180 -10 113 0 180 4 180 10 0 6 -32 10 -75 10 -74 0
-74 0 -49 38 69 100 -51 211 -171 158z m132 -31 c49 -33 52 -93 6 -140 -20
-20 -36 -25 -74 -25 -86 0 -136 71 -98 141 25 47 112 59 166 24z"/>
<path d="M1150 4393 c0 -10 24 -13 89 -13 87 0 90 -1 115 -31 28 -33 35 -89
13 -107 -7 -6 -60 -13 -118 -14 -137 -4 -130 -23 8 -23 93 0 105 2 125 22 29
29 29 83 0 122 -21 29 -21 30 -1 33 11 2 20 7 19 11 0 5 -56 9 -125 10 -94 2
-125 -1 -125 -10z"/>
<path d="M4710 4370 c-75 -40 -120 -118 -51 -87 39 17 101 73 101 92 0 19 -7
18 -50 -5z m40 -4 c0 -7 -93 -76 -103 -76 -6 0 -2 10 9 21 28 32 94 71 94 55z"/>
<path d="M1148 4113 c-3 -36 -5 -38 -41 -41 -46 -4 -39 -22 9 -22 30 0 34 -3
34 -25 0 -14 5 -25 10 -25 6 0 10 11 10 25 0 25 0 25 95 25 82 0 98 3 115 20
21 21 28 80 10 80 -5 0 -10 -11 -10 -24 0 -45 -23 -56 -121 -56 -89 0 -89 0
-89 34 0 48 -18 55 -22 9z"/>
<path d="M1257 3944 c-18 -17 -31 -48 -42 -97 -9 -40 -24 -80 -32 -89 -38 -42
-103 1 -103 69 0 39 22 88 45 96 18 8 20 27 2 27 -28 0 -60 -49 -65 -100 -6
-66 12 -109 54 -126 63 -26 105 12 119 108 10 67 38 108 73 108 39 0 63 -30
69 -84 7 -58 -11 -103 -49 -122 -16 -8 -26 -19 -23 -24 10 -16 63 18 81 52 12
22 15 48 12 91 -4 52 -9 64 -36 88 -40 36 -72 37 -105 3z"/>
</g>
</svg>