<svg version="1.0" xmlns="http://www.w3.org/2000/svg"
 width="2816.000000pt" height="1536.000000pt" viewBox="0 0 2816.000000 1536.000000"
 preserveAspectRatio="xMidYMid meet">
    <style>
        path {
            stroke: #000000;
            stroke-width: 52px;
            stroke-dasharray: 40000;
            stroke-dashoffset: 40000;
            fill: #000000;
            fill-opacity: 0;
            animation: 
                draw 2s ease-out forwards, 
                fill 0.5s ease-in forwards 1.5s,
                thin_stroke 0.5s ease-in forwards 1.5s;
        }
        @keyframes draw {
            to {
                stroke-dashoffset: 0;
            }
        }
        @keyframes fill {
            to {
                fill-opacity: 1;
            }
        }
        @keyframes thin_stroke {
            to {
                stroke-width: 20px;
            }
        }
    </style>

<metadata>
Created by potrace 1.16, written by Peter Selinger 2001-2019
</metadata>
<g transform="translate(0.000000,1536.000000) scale(0.100000,-0.100000)">
<path d="M23775 13259 c-44 -5 -188 -22 -320 -39 -132 -16 -355 -43 -495 -60
-140 -17 -286 -35 -325 -40 -96 -14 -357 -46 -615 -75 -212 -24 -564 -67
-1215 -146 -288 -35 -473 -58 -790 -99 -114 -15 -452 -55 -715 -85 -124 -14
-331 -39 -460 -54 -129 -16 -282 -34 -340 -41 -228 -24 -389 -63 -468 -114
-144 -91 -224 -220 -271 -432 -30 -139 -37 -212 -86 -944 -9 -129 -25 -345
-36 -480 -10 -135 -24 -306 -29 -380 -5 -74 -18 -261 -29 -415 -11 -154 -25
-354 -31 -445 -6 -91 -15 -217 -21 -280 -5 -63 -9 -157 -9 -207 0 -73 -3 -93
-14 -93 -27 0 -68 64 -163 254 -151 301 -217 382 -284 346 -72 -39 -86 -234
-45 -620 44 -420 49 -499 48 -715 -1 -266 -25 -425 -67 -441 -49 -19 -110 107
-288 596 -175 480 -328 784 -537 1065 -267 361 -548 625 -926 871 -146 96
-141 93 -262 153 -166 84 -228 109 -396 166 -212 71 -340 93 -437 76 -132 -24
-151 -76 -48 -131 32 -17 61 -35 64 -40 3 -4 42 -26 88 -48 136 -66 299 -142
303 -142 14 0 274 -133 274 -140 0 -6 7 -10 16 -10 18 0 125 -61 209 -121 143
-100 311 -244 460 -394 321 -320 556 -685 742 -1150 106 -266 184 -569 228
-885 22 -160 31 -622 16 -787 -22 -223 -91 -515 -152 -634 -48 -96 -119 -138
-140 -83 -40 107 -68 266 -113 654 -48 407 -92 631 -177 915 -68 225 -189 496
-296 661 -69 107 -199 267 -231 285 -12 7 -32 28 -43 46 -12 19 -23 32 -26 30
-11 -12 50 -118 93 -162 67 -69 196 -266 269 -411 94 -185 190 -469 249 -734
46 -205 65 -329 106 -675 53 -451 66 -516 116 -617 44 -88 96 -98 171 -33 88
75 170 301 219 600 22 136 31 609 15 798 -51 597 -271 1235 -591 1712 -156
232 -389 500 -570 659 -107 93 -324 266 -334 266 -4 0 -33 18 -65 39 -82 56
-309 172 -561 287 -202 92 -271 128 -278 146 -2 4 -10 8 -18 8 -8 0 -14 7 -14
17 0 14 11 15 98 9 302 -20 673 -167 1046 -415 138 -93 131 -87 246 -181 425
-345 766 -797 978 -1295 73 -172 131 -321 188 -485 57 -166 154 -396 191 -457
32 -52 83 -93 118 -93 29 0 62 37 85 97 62 164 60 499 -6 1083 -36 323 -32
610 9 610 30 0 93 -95 196 -298 108 -213 157 -286 215 -318 18 -10 19 -16 8
-170 -16 -220 -40 -567 -51 -764 -6 -91 -18 -264 -27 -385 -21 -289 -15 -526
14 -608 28 -78 84 -168 128 -206 80 -71 164 -97 434 -136 508 -72 918 -128
1205 -165 176 -22 478 -63 670 -90 193 -27 453 -63 579 -80 127 -17 236 -36
243 -42 21 -17 102 -171 133 -251 108 -283 36 -525 -177 -592 -87 -28 -284
-17 -508 28 -688 137 -1069 103 -1895 -168 -107 -35 -269 -87 -360 -115 -91
-28 -178 -55 -195 -60 -121 -37 -368 -91 -535 -115 -318 -47 -818 -31 -1125
36 -84 18 -326 79 -395 99 -36 10 -84 24 -107 30 -26 6 -65 30 -98 60 -129
112 -277 198 -415 241 -102 32 -268 32 -387 1 -179 -48 -401 -148 -608 -273
-66 -40 -132 -82 -146 -93 -15 -12 -65 -47 -110 -79 -46 -31 -106 -78 -134
-104 -48 -44 -49 -46 -28 -56 18 -8 33 -1 95 43 64 45 349 234 403 267 55 34
260 135 337 167 193 80 397 106 546 70 249 -61 523 -293 819 -694 373 -506
420 -562 510 -606 51 -26 59 -27 101 -15 25 6 61 24 81 40 69 55 207 139 317
195 87 43 122 56 157 56 50 0 63 9 122 84 63 80 141 111 165 67 25 -48 8 -165
-40 -266 -5 -11 -16 -51 -25 -89 -22 -98 -61 -160 -182 -288 -141 -148 -185
-211 -227 -321 -46 -116 -43 -113 -90 -121 -36 -7 -41 -5 -80 36 -22 24 -81
98 -131 164 -446 594 -731 857 -1045 966 -90 31 -102 32 -235 32 -121 0 -154
-4 -245 -28 -143 -38 -310 -102 -536 -207 -105 -49 -196 -89 -202 -89 -7 0
-12 7 -12 17 0 30 -81 122 -174 196 -174 140 -350 241 -491 282 -201 58 -263
68 -420 70 -129 1 -155 3 -185 20 -28 16 -55 20 -132 20 -85 1 -100 4 -113 20
-8 11 -15 25 -15 31 0 6 46 33 103 61 161 80 303 187 468 352 213 214 328 397
379 606 41 163 13 321 -95 537 -104 210 -167 259 -466 363 -74 26 -147 54
-164 62 -59 30 -114 68 -115 79 0 7 32 13 88 16 96 5 159 29 187 72 9 13 21
49 27 80 16 75 2 129 -103 390 -45 111 -101 254 -125 318 -95 255 -245 472
-439 633 -169 141 -366 232 -627 291 -192 43 -204 49 -258 129 -147 216 -315
322 -527 333 -92 4 -92 4 -128 66 -36 62 -90 129 -295 367 -64 74 -165 195
-225 269 -159 195 -223 256 -291 276 -62 18 -103 14 -173 -17 -24 -10 -47 -19
-52 -19 -5 0 -9 25 -9 55 0 73 -13 95 -107 186 -620 603 -1480 865 -2352 718
-342 -58 -743 -214 -1066 -417 -423 -264 -786 -632 -1122 -1137 -84 -126 -111
-171 -212 -350 -34 -60 -66 -117 -71 -125 -63 -103 -357 -790 -489 -1144 -45
-120 -53 -130 -176 -216 -202 -142 -381 -322 -528 -533 -86 -123 -197 -336
-240 -462 -58 -174 -97 -407 -97 -595 0 -145 4 -136 -125 -247 -329 -281 -661
-450 -1115 -567 -391 -101 -708 -125 -1652 -126 -488 0 -488 0 -488 -29 0 -30
0 -30 113 -33 61 -2 296 -5 522 -6 780 -5 1136 28 1550 139 157 43 423 143
560 211 189 94 440 264 564 380 27 27 54 48 59 48 13 0 22 -25 22 -58 0 -54
59 -281 103 -399 111 -296 251 -511 465 -714 249 -237 493 -368 881 -475 215
-59 479 -89 881 -99 322 -9 418 -19 557 -61 172 -52 291 -113 376 -193 82 -77
105 -110 182 -256 32 -60 87 -157 121 -215 224 -378 522 -634 979 -843 66 -30
166 -82 222 -116 217 -129 752 -396 969 -485 116 -47 343 -120 479 -154 261
-66 653 -116 990 -129 166 -6 252 -1 590 32 241 24 237 24 346 -42 126 -76
187 -97 434 -148 126 -26 264 -62 345 -90 158 -54 248 -67 298 -41 75 39 59
105 -44 189 -55 44 -79 77 -56 77 6 0 31 -9 57 -20 70 -30 197 -60 254 -60 95
0 139 77 87 153 -33 48 -33 67 -1 67 37 0 85 27 85 48 0 35 -30 118 -50 140
-18 20 -20 30 -15 95 6 67 4 75 -24 124 -68 115 -194 222 -336 285 -79 35
-258 85 -370 103 -121 20 -226 18 -370 -5 -123 -21 -275 -25 -355 -11 -25 5
-103 18 -175 31 -71 12 -198 39 -281 60 -141 35 -461 135 -529 165 -16 7 -42
16 -57 19 -16 4 -28 13 -28 22 0 13 6 15 27 9 15 -3 93 -19 173 -35 170 -34
219 -45 440 -98 457 -111 758 -130 980 -62 207 63 337 140 501 297 246 237
456 577 577 939 61 181 76 266 76 439 1 162 -10 217 -60 290 -13 20 -24 40
-24 45 0 17 144 11 252 -10 289 -56 507 -169 706 -366 81 -80 103 -107 100
-125 -2 -19 -48 -51 -213 -152 -249 -152 -371 -242 -481 -352 -96 -97 -125
-137 -199 -278 -78 -148 -107 -263 -108 -427 -1 -272 97 -511 278 -677 140
-129 301 -193 487 -193 88 0 99 -2 96 -17 -3 -17 -108 -73 -218 -116 -140 -55
-353 -73 -608 -53 -94 7 -116 7 -123 -5 -14 -22 -11 -27 24 -37 100 -31 349
-42 487 -22 223 32 470 138 635 272 38 31 103 76 145 99 83 47 198 133 333
248 97 84 403 389 493 493 33 37 64 68 69 68 6 0 21 -17 35 -38 14 -20 54 -68
90 -106 132 -139 274 -211 576 -291 206 -55 235 -65 277 -92 27 -18 63 -60
100 -116 62 -95 109 -133 200 -163 73 -24 206 -15 280 19 56 25 177 96 252
147 22 15 101 62 175 105 245 140 490 343 538 446 26 53 28 97 7 125 -20 26
-19 41 5 71 26 33 25 55 -2 109 -20 41 -20 44 -4 69 27 41 12 89 -46 149 -47
48 -49 53 -39 82 16 45 14 80 -9 124 -23 45 -91 90 -136 90 -75 0 -173 -55
-334 -186 -121 -99 -177 -137 -278 -189 -89 -45 -122 -54 -122 -35 0 6 22 54
49 108 49 96 87 146 242 314 84 91 119 151 148 249 11 35 35 111 55 168 20 57
36 121 36 142 0 85 -55 159 -117 159 -48 -1 -116 -39 -168 -94 -43 -46 -66
-61 -164 -101 -119 -51 -309 -159 -395 -227 -123 -97 -164 -80 -345 148 -53
67 -139 181 -192 255 -53 74 -151 203 -218 287 -66 84 -121 157 -121 162 0 15
42 12 111 -9 276 -83 677 -141 977 -141 396 0 736 62 1257 228 105 33 251 79
325 102 74 23 176 55 225 70 390 122 633 165 950 165 246 0 302 -7 655 -71
367 -68 480 -69 603 -7 154 77 248 273 217 451 -16 96 -65 235 -111 319 -54
100 -53 107 19 99 164 -20 219 -27 357 -46 83 -11 240 -29 350 -40 350 -35
555 -59 567 -66 19 -12 117 -231 157 -352 92 -280 121 -571 76 -759 -13 -56
-24 -83 -34 -83 -8 0 -73 11 -145 24 -325 60 -511 92 -1071 180 -685 108
-1428 165 -1785 137 -383 -31 -590 -99 -590 -196 0 -116 293 -220 1175 -419
888 -200 1648 -254 2020 -145 39 11 112 41 164 67 110 53 199 133 251 225 29
52 35 57 59 53 14 -3 130 -24 256 -46 316 -55 378 -67 545 -105 80 -18 160
-36 178 -40 85 -17 9 -53 -363 -167 -126 -39 -281 -86 -344 -104 -112 -32
-352 -114 -520 -177 -110 -40 -168 -89 -132 -112 5 -3 76 21 158 54 81 32 229
85 328 116 99 31 221 69 270 85 50 15 131 40 180 55 123 36 405 132 489 167
38 15 78 28 89 28 43 0 184 -53 230 -86 91 -66 85 -103 -24 -168 -131 -78
-385 -149 -804 -225 -217 -40 -307 -51 -805 -101 -218 -22 -450 -60 -555 -91
-79 -24 -140 -74 -129 -106 18 -48 68 -76 214 -118 197 -58 652 -100 1355
-126 186 -7 1220 -13 2723 -16 2422 -5 2422 -5 2422 30 0 36 0 36 -97 39 -54
2 -1043 2 -2198 0 -2867 -5 -3399 10 -4085 113 -120 18 -270 63 -270 81 0 12
39 29 135 58 69 21 221 42 470 66 459 45 875 108 1190 181 336 78 556 185 581
283 15 62 -52 136 -178 196 -38 18 -68 38 -68 45 0 8 15 23 34 35 84 51 122
130 92 187 -50 98 -223 171 -561 238 -290 57 -358 85 -443 180 -72 82 -105
159 -167 394 -30 115 -67 242 -81 283 -43 124 -46 112 22 104 32 -3 149 -15
259 -26 110 -11 256 -26 325 -34 194 -23 578 -47 645 -41 341 34 544 192 644
501 40 123 56 226 81 514 11 135 25 297 30 360 9 104 25 323 50 705 5 77 16
228 25 335 9 107 22 278 30 380 21 259 72 978 85 1200 6 102 20 302 30 445 11
143 27 366 35 495 9 129 20 296 26 370 62 823 82 1351 58 1486 -17 97 -59 224
-97 299 -65 124 -200 238 -345 290 -145 53 -466 85 -642 64z m331 -88 c163
-52 241 -140 281 -321 20 -89 22 -325 4 -520 -14 -157 -48 -574 -61 -745 -5
-71 -16 -213 -24 -315 -8 -102 -20 -243 -25 -315 -6 -71 -22 -301 -36 -510
-14 -209 -32 -456 -41 -550 -8 -93 -21 -271 -29 -395 -8 -124 -21 -317 -29
-430 -9 -113 -27 -374 -41 -580 -41 -602 -136 -1694 -170 -1953 -37 -285 -131
-470 -273 -541 -105 -53 -154 -59 -407 -53 -199 5 -344 17 -772 63 -61 7 -63
8 -105 61 -62 78 -161 157 -253 203 -238 117 -681 219 -1086 250 -348 27 -517
-70 -424 -244 26 -49 32 -76 15 -76 -5 0 -71 9 -147 20 -76 10 -237 33 -358
49 -737 101 -896 123 -1305 176 -146 19 -359 48 -475 64 -115 17 -281 39 -367
51 -197 26 -259 42 -328 84 -64 39 -131 128 -156 209 -31 102 -29 336 6 792 5
66 14 206 20 310 13 247 38 633 46 713 4 49 9 62 22 62 52 0 97 25 158 87 35
36 64 68 64 71 0 12 34 42 48 42 12 0 13 -9 8 -47 -3 -27 -11 -149 -16 -273
-6 -124 -24 -394 -41 -600 -38 -454 -44 -728 -16 -806 22 -63 76 -128 130
-156 59 -30 269 -64 607 -98 162 -16 354 -36 425 -45 200 -23 554 -62 830 -90
230 -23 350 -36 1005 -111 124 -14 333 -36 465 -49 132 -13 305 -31 385 -40
80 -8 213 -22 295 -30 83 -9 227 -25 320 -35 94 -11 247 -27 340 -35 94 -9
273 -27 399 -40 126 -14 251 -25 279 -25 195 0 307 77 361 248 38 123 80 496
126 1137 11 154 29 402 40 550 28 384 36 634 21 722 -14 79 -64 193 -104 235
-71 76 -246 142 -480 183 -82 14 -159 25 -173 25 -51 0 -41 36 46 165 86 128
160 180 255 179 77 -1 122 -24 222 -114 43 -39 101 -82 130 -96 47 -24 53 -24
80 -11 72 38 98 103 123 312 5 44 12 121 15 170 3 50 10 151 15 225 5 74 17
232 25 350 45 643 77 1099 91 1290 37 508 16 602 -148 686 -88 45 -209 39
-1008 -51 -118 -13 -253 -27 -300 -30 -47 -4 -143 -13 -215 -21 -71 -8 -258
-28 -415 -44 -452 -47 -729 -77 -1105 -119 -192 -22 -426 -47 -520 -56 -213
-20 -315 -30 -530 -55 -93 -11 -219 -24 -280 -29 -60 -6 -211 -21 -335 -35
-124 -14 -326 -34 -450 -46 -469 -44 -547 -68 -616 -186 -57 -98 -76 -259
-139 -1194 -8 -124 -22 -319 -30 -435 -9 -115 -22 -302 -30 -415 -8 -113 -19
-270 -25 -350 -42 -615 -38 -589 -97 -661 -97 -121 -170 -179 -224 -179 -17 0
-19 8 -19 88 0 48 5 137 10 197 5 61 19 245 30 410 11 165 24 361 30 435 5 74
17 248 25 385 8 138 26 387 40 555 14 168 29 370 35 450 47 699 68 838 152
978 42 68 129 145 204 178 89 39 203 60 505 94 293 32 528 60 974 115 154 19
327 39 385 45 58 6 348 42 645 80 297 37 608 75 690 84 203 23 609 72 835 101
102 14 250 32 330 40 80 9 375 45 655 80 281 35 526 66 545 68 19 2 112 5 206
5 143 2 181 -1 230 -17z m326 -46 c183 -77 289 -208 349 -431 28 -101 37 -407
20 -634 -12 -164 -57 -830 -66 -990 -12 -211 -36 -576 -50 -755 -8 -104 -22
-291 -30 -415 -9 -124 -23 -315 -30 -425 -8 -110 -19 -263 -25 -340 -5 -77
-17 -246 -25 -375 -9 -129 -22 -318 -30 -420 -8 -102 -24 -304 -35 -450 -66
-855 -94 -1196 -111 -1335 -24 -199 -89 -372 -181 -479 -59 -68 -144 -121
-257 -157 -83 -27 -115 -32 -233 -37 -113 -4 -138 -2 -138 9 0 8 28 25 61 37
168 65 277 233 333 514 24 118 52 394 86 833 17 220 39 492 50 605 10 113 26
302 34 420 31 431 46 650 61 890 18 275 47 695 70 995 9 110 20 259 25 330 5
72 18 249 30 395 11 146 34 443 50 660 16 217 38 499 49 625 32 372 33 395 21
515 -17 184 -54 298 -126 387 -19 23 -34 49 -34 58 0 22 19 17 132 -30z m-561
-465 c55 -15 102 -51 123 -93 25 -52 31 -200 17 -397 -6 -85 -18 -252 -26
-370 -9 -118 -20 -276 -25 -350 -5 -74 -19 -286 -30 -470 -45 -750 -73 -1085
-100 -1182 -26 -91 -71 -91 -176 0 -123 105 -155 128 -208 145 -165 56 -295
-35 -461 -320 -11 -18 -26 -33 -35 -33 -26 0 -228 71 -238 83 -5 7 -70 143
-145 302 -74 160 -163 349 -197 420 -34 72 -103 216 -152 320 -228 480 -266
552 -340 651 -43 57 -82 79 -125 70 -16 -4 -71 -40 -123 -81 -52 -41 -99 -75
-103 -75 -5 0 -21 -8 -35 -18 -54 -38 -250 -121 -342 -146 -155 -41 -307 -59
-450 -53 -137 6 -309 34 -409 68 -65 21 -228 97 -351 163 -36 20 -78 36 -93
36 -75 0 -160 -80 -224 -212 -22 -46 -82 -171 -134 -278 -182 -379 -452 -917
-537 -1070 -130 -235 -135 -241 -167 -171 -10 22 -38 60 -63 85 -57 57 -98 62
-158 17 -65 -47 -152 -218 -211 -412 -28 -91 -28 -91 -103 -85 -90 7 -161 -9
-232 -54 -27 -16 -54 -30 -59 -30 -11 0 -11 -6 1 160 5 74 14 223 20 330 13
240 26 443 45 665 8 94 21 278 30 410 9 132 25 341 35 465 10 124 22 270 25
325 12 187 44 464 58 497 39 92 101 124 304 153 111 16 732 81 1108 116 116
10 287 28 380 39 94 10 242 26 330 35 88 9 304 31 480 50 176 19 428 46 560
60 132 14 341 36 465 50 124 14 383 41 575 60 193 20 517 53 720 75 204 22
408 43 455 48 119 13 278 14 321 2z m-2046 -1306 c41 -44 181 -312 304 -583
29 -62 75 -160 103 -219 27 -59 63 -134 78 -167 16 -33 94 -197 174 -365 134
-280 156 -330 141 -330 -3 0 -58 18 -123 39 -157 53 -319 89 -423 97 -86 6
-86 6 -125 92 -51 115 -123 192 -177 192 -80 0 -168 -137 -248 -384 -24 -73
-50 -135 -65 -152 -118 -136 -169 -207 -293 -414 -183 -303 -251 -385 -335
-401 -64 -12 -109 5 -156 58 -104 119 -210 420 -305 868 -93 439 -172 719
-245 871 -138 287 -307 282 -457 -13 -68 -134 -164 -432 -267 -828 -61 -235
-150 -498 -202 -592 -30 -57 -36 -93 -14 -93 17 0 64 67 96 135 59 128 135
370 269 860 104 377 197 591 288 659 36 26 109 26 139 -1 51 -45 105 -152 164
-318 36 -101 56 -182 135 -535 94 -422 131 -568 179 -702 87 -243 167 -369
265 -414 63 -30 105 -30 164 -1 90 43 168 143 324 408 101 173 187 299 205
299 20 0 15 -35 -44 -275 -217 -891 -335 -1235 -466 -1362 -161 -156 -304 -19
-447 429 -46 145 -151 576 -216 888 -64 306 -145 527 -223 612 -73 80 -170 49
-255 -80 -61 -92 -94 -170 -218 -517 -115 -321 -189 -478 -250 -529 -114 -96
-220 72 -355 562 -25 92 -57 202 -70 245 -25 78 -25 78 86 275 90 160 620
1208 620 1226 0 6 98 203 131 264 13 24 41 59 61 78 45 40 85 44 138 14 110
-63 269 -138 364 -172 310 -110 674 -104 1001 17 148 55 252 114 420 239 70
52 97 56 130 20z m-13796 -334 c505 -35 1005 -210 1361 -478 309 -233 416
-348 396 -426 -3 -13 -38 -52 -78 -87 -40 -35 -74 -67 -76 -71 -7 -16 -31 -7
-38 15 -34 109 -437 436 -693 562 -684 338 -1493 322 -2210 -45 -352 -180
-645 -414 -917 -730 -133 -155 -208 -258 -359 -494 -138 -217 -353 -655 -489
-1001 -120 -303 -94 -269 -271 -358 -141 -71 -185 -88 -185 -70 0 11 249 630
303 753 71 161 227 474 299 599 228 396 536 791 818 1046 382 347 843 595
1327 715 158 39 443 75 613 78 36 1 125 -3 199 -8z m66 -320 c268 -22 502 -89
785 -222 77 -37 318 -194 411 -270 106 -86 289 -264 289 -282 0 -9 -12 -40
-27 -69 -19 -37 -27 -68 -27 -107 -1 -66 24 -122 174 -379 95 -162 145 -263
279 -561 30 -69 70 -138 97 -170 49 -60 50 -65 25 -180 -6 -25 -10 -98 -11
-164 0 -113 -1 -118 -20 -113 -44 11 -135 -28 -250 -108 -145 -101 -364 -247
-439 -292 -321 -195 -569 -293 -851 -337 -181 -29 -699 -66 -916 -66 -77 0
-182 -3 -232 -6 -91 -7 -91 -7 -76 -35 15 -29 15 -29 212 -29 279 0 617 21
892 56 465 58 726 173 1340 589 183 124 234 150 301 159 46 5 46 5 58 -48 14
-61 56 -153 170 -364 169 -316 176 -332 150 -332 -6 0 -30 13 -53 29 -98 68
-252 120 -319 107 -23 -4 -43 -16 -53 -31 -14 -21 -14 -27 0 -53 45 -88 213
-172 413 -207 86 -15 383 -47 553 -60 148 -11 331 -44 436 -80 162 -54 255
-107 231 -132 -4 -3 -35 2 -71 11 -77 19 -159 21 -224 4 -97 -24 -183 -153
-168 -250 23 -144 174 -251 354 -251 50 0 72 -4 72 -13 0 -22 -101 -38 -240
-38 -162 1 -321 25 -565 88 -207 54 -226 57 -324 58 -87 0 -202 -27 -281 -67
-27 -14 -102 -57 -167 -95 -153 -92 -212 -110 -357 -110 -166 0 -253 19 -451
98 -193 77 -279 95 -338 73 -82 -31 2 -151 158 -226 134 -65 209 -79 405 -80
151 0 185 3 250 22 101 29 196 75 369 178 214 126 299 152 451 140 91 -7 132
-14 253 -46 85 -23 100 -43 39 -54 -46 -7 -230 -95 -334 -158 -203 -123 -519
-252 -698 -286 -156 -28 -284 -20 -460 29 -174 49 -206 53 -315 35 -113 -18
-462 -129 -580 -185 -11 -5 -46 -20 -77 -34 -44 -19 -58 -30 -58 -45 0 -15 6
-21 23 -21 26 0 126 33 227 75 120 50 342 125 416 140 117 24 193 20 329 -19
245 -70 418 -74 613 -12 194 61 362 133 522 222 331 185 398 214 496 214 49 0
56 -3 101 -48 63 -62 108 -140 150 -260 37 -106 38 -108 17 -504 -7 -135 -2
-129 -104 -98 -173 54 -366 62 -719 29 -297 -27 -406 -23 -611 24 -298 69
-487 82 -732 51 -241 -30 -433 -84 -627 -174 -131 -61 -146 -63 -134 -17 22
87 -2 190 -66 280 -39 54 -49 125 -27 186 9 24 16 55 16 68 0 32 -50 81 -89
89 -36 8 -38 17 -11 75 11 24 20 64 20 89 0 67 -31 105 -131 161 -84 46 -84
46 -83 100 1 30 5 82 9 116 10 80 -10 137 -65 187 -48 43 -83 50 -213 44 -122
-6 -178 7 -226 54 -55 54 -78 97 -130 239 -85 234 -166 374 -290 502 -41 43
-100 97 -131 120 -136 103 -150 117 -150 153 0 103 -275 259 -560 318 -176 36
-479 45 -675 21 -123 -15 -353 -68 -459 -104 -33 -12 -65 -21 -73 -21 -21 0
-15 43 16 111 16 35 54 123 85 194 92 216 215 485 263 575 282 523 513 832
855 1140 96 86 293 235 358 271 14 8 32 19 40 26 26 20 243 130 310 157 36 15
74 31 85 36 61 27 252 91 327 109 83 20 285 56 358 64 76 8 371 6 485 -3z
m1990 -644 c43 -18 95 -72 218 -226 116 -145 181 -223 252 -300 82 -91 204
-235 246 -291 47 -63 50 -86 12 -94 -255 -54 -478 -206 -623 -423 -22 -34 -46
-62 -53 -62 -19 0 -69 91 -137 250 -84 195 -148 321 -276 541 -130 223 -147
259 -138 296 30 123 192 265 354 309 61 17 104 17 145 0z m11743 -28 c25 -28
80 -137 88 -177 6 -27 4 -29 -47 -41 -77 -19 -162 -54 -214 -89 -25 -17 -50
-31 -56 -31 -38 0 56 245 126 329 32 38 72 41 103 9z m173 -430 c28 -90 62
-199 76 -243 69 -224 129 -388 166 -459 170 -319 349 -250 552 212 24 53 49
98 57 100 8 2 22 -16 35 -45 12 -26 65 -140 118 -253 54 -113 133 -285 176
-382 71 -158 79 -184 79 -238 0 -34 -6 -74 -15 -89 -34 -67 -192 -179 -391
-279 -436 -218 -753 -329 -1174 -411 -357 -69 -544 -85 -917 -78 -301 5 -426
17 -677 63 -368 68 -823 228 -1044 368 -34 21 -42 23 -52 11 -15 -18 37 -54
195 -133 305 -154 633 -256 1029 -321 255 -43 391 -54 626 -54 577 1 1167 121
1700 348 156 66 204 88 350 163 315 160 434 274 434 412 0 65 -18 110 -193
485 -67 143 -129 276 -138 295 -9 19 -36 77 -60 128 -24 51 -43 98 -43 103 0
5 20 52 44 104 45 95 45 95 88 95 24 0 126 -18 227 -40 339 -72 414 -108 470
-222 54 -111 60 -219 36 -633 -19 -329 -86 -1126 -135 -1617 -25 -247 -52
-342 -114 -404 -87 -87 -161 -88 -853 -9 -73 8 -318 33 -545 55 -227 22 -573
58 -768 80 -195 21 -485 53 -645 70 -159 17 -387 42 -505 55 -473 54 -675 76
-1015 110 -397 40 -868 94 -1015 115 -186 27 -230 42 -273 89 -68 75 -70 180
-22 821 24 320 48 646 65 910 8 135 8 135 59 182 61 56 98 68 214 68 106 0
103 10 48 -175 -21 -71 -40 -137 -42 -145 -2 -9 4 -16 17 -18 19 -3 25 7 48
70 14 40 37 112 50 160 30 108 30 108 66 108 46 0 175 45 229 80 43 27 141
127 164 166 11 18 37 18 37 -1 0 -22 104 -377 150 -510 178 -516 379 -480 589
103 21 59 67 186 101 282 77 214 106 281 158 357 48 71 98 102 139 87 76 -26
176 -327 284 -851 37 -181 120 -506 166 -647 118 -367 240 -536 385 -536 54 0
138 50 187 110 134 166 254 531 455 1380 48 201 93 379 101 397 9 21 40 49 87
81 94 63 128 81 213 108 117 39 107 47 166 -138z m320 123 c120 -32 300 -90
336 -109 25 -14 153 -268 153 -305 0 -46 -158 -373 -220 -455 -167 -220 -290
-65 -486 611 -30 106 -62 209 -70 230 -26 70 -25 71 79 64 52 -3 142 -19 208
-36z m-3629 -78 c28 -30 88 -138 88 -158 0 -18 -83 -128 -135 -181 -52 -51
-136 -93 -206 -101 -27 -3 -49 -3 -49 0 0 24 97 283 128 340 67 126 120 157
174 100z m4163 -94 c43 -14 65 -26 65 -36 0 -25 -60 -123 -76 -123 -8 0 -14 6
-14 14 0 8 -16 44 -35 80 -19 37 -35 71 -35 76 0 15 24 12 95 -11z m-11693
-488 c129 -41 209 -110 316 -271 71 -108 141 -221 462 -740 73 -118 165 -267
205 -330 71 -114 127 -209 200 -345 119 -220 197 -335 299 -443 117 -123 249
-198 477 -272 66 -21 139 -50 162 -64 106 -62 190 -189 258 -391 31 -91 34
-111 34 -215 0 -103 -3 -125 -33 -215 -38 -114 -58 -152 -152 -285 -88 -124
-190 -233 -314 -334 -148 -120 -189 -148 -311 -209 -156 -77 -176 -81 -353
-62 -81 9 -177 23 -213 30 -84 18 -218 67 -278 102 -96 56 -251 228 -251 279
0 20 5 24 29 24 54 0 274 42 398 76 157 43 425 171 564 271 199 141 376 316
514 508 55 77 125 203 125 226 0 23 -26 1 -53 -46 -90 -153 -316 -406 -483
-540 -123 -100 -194 -146 -338 -221 -153 -79 -279 -128 -411 -159 -111 -27
-371 -62 -381 -52 -26 25 -31 181 -9 294 30 156 37 242 25 320 -13 82 -44 180
-84 262 -36 75 -34 85 16 100 162 49 299 226 285 369 -7 69 -45 150 -98 206
-48 53 -153 125 -225 156 -138 60 -394 120 -577 136 -77 7 -77 7 -134 108 -82
147 -244 396 -321 495 -88 113 -211 241 -287 298 -33 25 -63 55 -67 67 -10 34
-9 168 3 253 15 117 11 111 77 110 48 -1 71 6 152 44 98 47 284 158 355 212
111 84 166 154 186 233 12 47 12 47 88 41 42 -3 106 -15 143 -26z m-292 -1 c0
-38 -39 -98 -97 -149 -117 -103 -420 -273 -512 -287 -44 -7 -44 -7 -37 22 4
16 28 60 53 97 109 161 391 332 556 336 31 1 37 -2 37 -19z m870 -414 c41 -14
125 -39 185 -57 145 -42 211 -70 322 -136 246 -146 438 -392 573 -731 29 -74
31 -84 17 -100 -26 -30 -45 -76 -56 -138 -26 -142 59 -363 169 -441 71 -50 46
-73 -79 -73 -63 0 -131 16 -131 30 0 6 -6 10 -14 10 -8 0 -41 24 -73 54 -96
89 -183 252 -273 514 -28 80 -65 175 -82 211 -36 76 -106 149 -175 185 -73 37
-134 111 -263 317 -63 101 -140 225 -172 276 -61 97 -69 119 -40 109 9 -3 51
-17 92 -30z m-5643 -580 c180 -35 408 -129 481 -199 55 -53 32 -78 -35 -37
-45 27 -195 72 -229 68 -34 -4 -34 -8 -10 -120 20 -96 20 -176 1 -268 -27
-128 -120 -321 -159 -328 -16 -4 -18 1 -12 35 26 163 12 357 -34 470 -20 47
-24 50 -48 44 -24 -7 -29 -15 -45 -92 -36 -170 -112 -294 -302 -489 -252 -260
-310 -357 -310 -520 0 -77 4 -92 36 -160 20 -41 56 -100 80 -130 78 -97 100
-129 131 -196 40 -86 46 -162 23 -304 -32 -197 -8 -287 116 -441 64 -80 89
-125 89 -158 0 -19 -4 -21 -42 -15 -24 4 -68 13 -98 21 -257 66 -484 -26 -583
-235 -29 -60 -32 -76 -32 -158 0 -86 2 -94 43 -177 75 -152 204 -265 376 -331
130 -50 183 -60 336 -60 289 -1 451 64 518 206 29 64 30 152 1 213 -43 91 -91
78 -59 -15 34 -97 21 -167 -42 -236 -49 -54 -123 -83 -227 -90 -76 -6 -76 -6
-226 69 -82 41 -189 93 -236 115 -169 81 -239 160 -239 270 0 104 29 150 114
179 71 23 169 22 226 -4 46 -20 100 -68 134 -117 27 -41 73 -64 135 -71 108
-11 121 -15 121 -34 0 -12 -15 -24 -42 -36 -24 -10 -85 -37 -136 -61 -118 -55
-150 -57 -187 -8 -33 43 -31 71 14 167 36 77 37 83 14 92 -24 9 -44 -18 -82
-109 -36 -88 -38 -116 -10 -165 51 -91 131 -101 269 -34 47 22 106 48 131 57
33 12 55 28 74 56 25 36 26 40 12 67 -28 53 -49 64 -149 73 -51 5 -98 10 -104
10 -6 0 -16 19 -23 43 -7 23 -20 50 -29 61 -25 27 -103 64 -174 82 -201 52
-410 -96 -378 -265 26 -141 115 -222 376 -346 75 -36 155 -70 176 -77 21 -6
38 -18 38 -26 0 -12 -13 -13 -77 -7 -116 10 -198 32 -298 80 -154 74 -262 179
-305 293 -18 47 -21 74 -18 152 4 115 20 153 95 227 79 78 138 98 288 97 99 0
131 -4 185 -23 64 -23 64 -23 83 3 11 15 28 26 42 26 28 0 55 24 55 48 -1 34
-41 105 -114 202 -112 149 -123 203 -86 420 20 111 20 123 5 185 -22 97 -54
157 -155 290 -102 135 -124 187 -125 290 0 136 57 233 271 456 193 202 276
317 304 419 11 41 33 53 44 23 4 -9 9 -51 13 -93 7 -93 -26 -292 -63 -385 -15
-36 -23 -72 -20 -81 9 -24 59 10 126 88 112 129 170 228 215 368 23 72 28 102
28 195 0 61 -6 130 -12 154 -7 23 -10 46 -7 49 15 14 228 -71 311 -125 159
-103 292 -231 375 -360 49 -77 111 -212 171 -377 59 -159 123 -236 231 -278
44 -16 75 -20 181 -19 145 1 178 -9 195 -58 11 -31 3 -112 -18 -184 -22 -76
28 -146 149 -207 33 -16 65 -39 71 -51 13 -23 1 -92 -27 -167 -15 -40 -15 -43
2 -62 10 -12 39 -26 63 -32 44 -11 44 -11 38 -52 -3 -23 -10 -62 -15 -88 -12
-54 3 -117 38 -166 73 -103 87 -191 47 -304 -60 -170 -228 -327 -496 -466
-149 -77 -213 -101 -500 -192 -306 -97 -358 -134 -277 -194 26 -19 42 -21 155
-20 99 0 144 5 203 22 72 20 268 99 279 111 3 4 23 18 46 33 205 133 539 462
624 616 13 23 27 42 32 42 5 0 70 24 146 54 290 114 526 165 809 173 215 6
277 0 498 -52 268 -62 361 -66 743 -29 277 27 528 10 698 -46 78 -26 90 -53
47 -108 -25 -33 -28 -45 -27 -107 4 -233 243 -526 563 -687 184 -93 381 -141
571 -141 135 -1 231 18 326 63 148 71 205 164 180 297 -8 42 -8 42 36 48 47 7
118 -14 118 -35 0 -6 -7 -24 -15 -40 -8 -15 -28 -77 -44 -137 -34 -123 -116
-325 -202 -493 -97 -191 -271 -446 -455 -667 -316 -378 -401 -497 -434 -610
-11 -37 -17 -43 -48 -49 -50 -10 -270 3 -372 20 -47 8 -134 27 -195 41 -287
67 -530 118 -692 146 -417 70 -557 109 -753 211 -291 149 -402 243 -547 458
-79 118 -224 309 -282 373 -69 74 -192 166 -283 212 -113 55 -182 59 -207 11
-12 -21 -10 -31 13 -82 46 -100 232 -267 736 -663 72 -56 227 -209 299 -296
122 -146 147 -195 96 -195 -31 0 -104 -28 -129 -49 -10 -9 -25 -29 -33 -44
-13 -25 -13 -31 2 -53 24 -37 57 -46 107 -28 23 8 56 25 73 38 86 66 382 81
620 32 72 -15 189 -47 260 -73 396 -140 607 -199 882 -247 226 -40 266 -41
498 -16 179 20 222 22 309 13 120 -13 361 -79 461 -128 87 -42 171 -116 224
-198 68 -102 48 -139 -40 -75 -61 45 -269 148 -357 178 -72 25 -74 25 -88 6
-25 -35 18 -67 141 -107 164 -52 337 -165 416 -273 39 -53 38 -66 -8 -66 -27
0 -87 23 -203 80 -190 91 -325 143 -351 135 -20 -7 -35 -43 -22 -55 4 -5 59
-30 122 -55 147 -60 200 -87 289 -148 97 -67 132 -108 132 -154 0 -36 0 -36
-52 -30 -56 6 -183 44 -407 121 -73 25 -145 46 -160 46 -70 -1 -64 -44 12 -82
70 -35 264 -170 305 -213 49 -53 44 -65 -29 -65 -46 0 -98 12 -212 50 -84 27
-240 67 -347 89 -235 48 -302 70 -400 129 -102 62 -165 85 -215 78 -22 -3
-152 -15 -290 -27 -624 -53 -1297 27 -1821 217 -249 90 -629 274 -989 479
-354 201 -488 299 -710 519 -346 343 -461 700 -330 1024 53 131 134 229 278
335 41 31 45 42 21 51 -28 11 -116 -46 -194 -124 -74 -74 -139 -172 -174 -260
-48 -121 -58 -298 -26 -443 42 -191 212 -471 374 -617 28 -25 60 -54 72 -65
12 -11 30 -25 40 -31 11 -6 20 -19 22 -28 4 -21 -31 -22 -48 -1 -7 8 -16 15
-21 15 -16 0 -143 105 -242 200 -154 148 -254 290 -441 629 -160 290 -322 402
-728 505 -56 14 -111 34 -130 49 -43 32 -98 60 -106 53 -3 -3 0 -17 6 -31 26
-56 25 -56 -130 -50 -591 24 -854 61 -1138 160 -491 171 -882 540 -1074 1013
-53 132 -116 388 -123 500 -6 92 -6 92 54 155 139 145 313 387 429 597 112
204 277 571 394 880 97 258 98 258 154 291 142 82 300 154 446 204 183 62 373
111 482 124 116 15 588 6 685 -13z m4218 -98 c155 -157 218 -245 454 -626 28
-46 51 -88 51 -93 0 -12 -63 -10 -174 4 -90 12 -90 12 -131 107 -22 52 -84
176 -138 276 -112 209 -207 405 -207 428 0 37 41 9 145 -96z m1871 -105 c48
-49 86 -122 110 -208 17 -62 17 -65 1 -65 -7 0 -30 30 -50 68 -21 37 -60 105
-88 151 -27 46 -49 88 -49 92 0 22 35 5 76 -38z m-7866 -251 c0 -10 -9 -36
-19 -58 -10 -21 -35 -85 -55 -141 -110 -319 -333 -775 -500 -1027 -118 -180
-270 -366 -298 -366 -8 0 -9 33 -4 117 22 387 124 682 346 995 109 154 463
494 518 497 6 1 12 -7 12 -17z m8585 -109 c9 -27 41 -111 70 -188 29 -77 56
-161 60 -187 7 -47 6 -48 -18 -48 -56 0 -126 92 -159 209 -21 76 -25 230 -6
249 22 22 35 13 53 -35z m-2748 -67 c65 -17 273 -127 273 -143 0 -41 -226 27
-325 98 -76 54 -54 73 52 45z m1457 -560 c71 -31 96 -77 95 -168 -1 -91 -18
-138 -59 -166 -33 -23 -42 -24 -133 -19 -84 4 -108 10 -161 36 -52 25 -67 39
-89 80 -60 109 -14 234 96 262 57 15 191 1 251 -25z m170 -93 c19 -55 20 -114
4 -160 -22 -61 -34 -38 -34 65 1 53 -3 107 -8 120 -6 17 -5 22 7 22 9 0 21
-19 31 -47z m9421 -348 c304 -35 623 -109 840 -195 106 -42 137 -62 218 -139
94 -90 92 -96 -40 -87 -98 6 -522 52 -848 91 -71 9 -202 25 -290 35 -346 41
-339 40 -358 63 -37 45 -78 138 -75 170 8 82 193 103 553 62z m-12130 -71
c147 -58 408 -144 438 -144 18 0 27 -5 27 -16 0 -15 -15 -16 -142 -11 -121 5
-157 10 -233 34 -50 16 -113 42 -140 57 -57 32 -115 84 -115 103 0 24 72 14
165 -23z m2125 -19 c58 -8 144 -15 191 -15 86 0 86 0 122 -77 79 -172 92 -299
57 -557 -15 -116 -19 -180 -14 -237 7 -79 7 -79 -122 -78 -71 0 -141 -2 -156
-6 -25 -6 -27 -4 -34 31 -4 21 -3 101 2 178 15 246 11 351 -15 436 -26 85 -83
198 -136 267 -19 25 -35 52 -35 59 0 17 9 17 140 -1z m11203 -414 c16 -15 80
-213 127 -391 57 -219 70 -255 114 -335 98 -174 227 -253 486 -300 252 -45
379 -79 484 -132 69 -35 96 -65 96 -107 0 -40 -37 -76 -123 -120 -56 -28 -87
-32 -117 -16 -44 23 -582 137 -887 187 -173 28 -173 28 -173 58 0 17 5 49 10
71 35 151 31 314 -11 509 -29 131 -101 355 -154 473 -25 56 -45 107 -45 113 0
12 179 3 193 -10z m-10768 -702 c28 -49 74 -109 114 -148 134 -131 245 -176
619 -247 12 -2 22 -11 22 -18 0 -15 -40 -26 -165 -46 -134 -22 -446 -3 -478
29 -6 6 -18 11 -27 11 -32 0 -169 101 -241 178 -86 92 -189 252 -189 294 0 28
0 28 149 28 148 0 148 0 196 -81z m-375 -36 c49 -94 169 -251 243 -318 94 -86
233 -150 367 -171 177 -27 368 -8 624 62 129 36 129 36 177 -12 49 -48 49 -48
49 -127 0 -113 -25 -149 -139 -207 -96 -48 -312 -63 -491 -35 -434 71 -847
408 -893 728 -11 78 -3 147 16 147 7 0 28 -30 47 -67z m8781 -168 c468 -37
855 -89 1589 -211 651 -108 670 -112 670 -126 0 -23 -44 -80 -102 -132 -67
-61 -183 -126 -268 -150 -152 -43 -541 -66 -794 -47 -340 26 -802 95 -1141
170 -744 165 -1073 260 -1165 337 -35 30 -38 50 -10 59 11 3 20 10 20 15 0 23
227 74 391 89 162 14 604 12 810 -4z m-12343 -262 c-8 -42 -256 -194 -394
-241 -121 -42 -334 -52 -334 -16 0 8 33 23 88 40 283 84 434 139 547 197 79
41 98 45 93 20z m5346 -143 c58 -70 88 -249 66 -405 -31 -226 -88 -402 -206
-637 -157 -311 -343 -544 -565 -711 -128 -96 -289 -163 -421 -175 -58 -5 -58
-5 -58 29 1 77 73 185 310 465 416 491 625 844 744 1254 24 85 49 167 55 183
14 36 43 35 75 -3z m2341 -205 c110 -29 249 -102 375 -199 203 -156 333 -301
708 -789 65 -85 129 -158 152 -173 58 -39 113 -42 191 -10 155 62 251 123 541
345 86 66 123 81 197 81 57 0 61 -2 76 -31 10 -18 15 -48 13 -77 -3 -47 -3
-47 -93 -83 -99 -40 -149 -77 -139 -103 9 -24 41 -20 112 14 86 40 152 41 182
3 13 -17 20 -38 18 -57 -3 -32 0 -31 -136 -66 -24 -6 -52 -20 -63 -31 -20 -20
-20 -20 3 -48 23 -28 23 -28 70 -5 29 15 65 24 93 24 45 0 45 0 45 -38 0 -50
-17 -65 -106 -91 -72 -21 -104 -44 -104 -74 0 -9 8 -21 18 -26 17 -9 37 -4
130 35 37 15 45 16 53 3 31 -49 -19 -117 -191 -263 -129 -109 -184 -148 -315
-221 -66 -37 -158 -92 -205 -123 -47 -30 -127 -77 -178 -104 -92 -48 -92 -48
-192 -48 -154 0 -195 25 -296 177 -30 45 -69 91 -87 102 -49 30 -156 66 -314
105 -347 86 -516 193 -634 402 -23 41 -23 41 8 80 42 53 91 154 98 201 7 47
-22 99 -61 109 -39 10 -91 -22 -122 -75 -25 -42 -27 -54 -25 -136 2 -49 4
-104 5 -122 3 -29 -13 -48 -162 -205 -177 -185 -420 -420 -510 -490 -152 -121
-284 -197 -400 -233 -72 -22 -313 -32 -392 -16 -76 16 -203 79 -260 130 -51
46 -132 145 -166 204 -140 243 -148 589 -20 842 150 299 394 491 1008 798 453
227 658 295 895 296 78 1 142 -4 180 -14z m-6757 -345 c36 -17 95 -55 132 -85
76 -62 221 -231 304 -354 95 -141 81 -137 -136 38 -323 258 -438 369 -438 418
0 24 3 25 36 20 20 -3 66 -20 102 -37z m6722 -745 c0 -28 -10 -65 -27 -100
-43 -87 -69 -70 -52 34 14 90 24 111 54 111 23 0 25 -4 25 -45z m-5713 -245
c48 -28 133 -69 190 -93 143 -59 138 -71 -24 -62 -102 5 -131 10 -141 23 -36
47 -70 88 -99 121 -33 35 -42 61 -23 61 5 0 49 -23 97 -50z m-117 -254 c0 -12
-28 -25 -52 -26 -13 0 -9 28 5 33 24 10 47 7 47 -7z m-1710 -201 c0 -8 -7 -15
-15 -15 -8 0 -15 7 -15 15 0 8 7 15 15 15 8 0 15 -7 15 -15z"/>
<path d="M13995 9825 c-5 -2 -27 -6 -49 -10 -48 -8 -86 -45 -86 -82 0 -21 13
-41 48 -75 43 -41 166 -128 183 -128 4 0 56 -28 115 -63 60 -35 124 -72 143
-83 99 -57 269 -170 329 -217 121 -97 285 -270 444 -468 153 -192 211 -254
228 -244 5 3 -2 17 -15 31 -14 15 -39 49 -57 78 -91 144 -321 420 -444 532
-193 174 -300 250 -584 412 -146 83 -188 107 -249 147 -70 46 -95 80 -70 96
21 13 217 10 284 -5 159 -35 238 -64 402 -147 185 -94 192 -98 328 -200 183
-138 490 -464 618 -657 45 -68 63 -63 28 7 -82 159 -320 443 -521 619 -206
181 -526 355 -771 421 -105 28 -270 48 -304 36z"/>
<path d="M13786 9030 c-43 -13 -76 -49 -76 -82 0 -40 88 -123 263 -250 196
-141 277 -207 387 -318 233 -234 431 -569 552 -935 84 -253 113 -394 168 -820
47 -357 68 -440 127 -506 56 -61 120 -46 181 43 102 149 161 447 149 752 -14
354 -99 681 -260 1003 -218 433 -590 808 -990 998 -190 91 -415 142 -501 115z
m235 -81 c225 -56 418 -160 624 -334 213 -181 363 -351 481 -545 238 -391 346
-772 347 -1220 0 -298 -56 -552 -150 -677 -25 -35 -62 -44 -81 -20 -34 41 -73
237 -117 587 -50 409 -121 676 -258 978 -107 236 -218 413 -367 585 -101 118
-277 283 -380 357 -312 224 -380 288 -322 303 43 12 147 5 223 -14z"/>
<path d="M13442 8268 c-20 -20 -14 -37 16 -44 286 -63 623 -310 819 -599 174
-259 267 -531 288 -845 15 -224 -70 -500 -154 -500 -53 0 -107 142 -156 408
-79 433 -212 728 -410 914 -54 52 -66 56 -85 33 -11 -13 -6 -21 28 -51 65 -56
186 -223 236 -327 58 -123 98 -244 130 -393 14 -65 38 -182 54 -259 38 -181
75 -277 128 -332 33 -35 47 -43 77 -43 71 0 144 98 189 255 32 113 32 371 -1
524 -55 260 -153 477 -311 691 -195 262 -488 483 -736 555 -100 29 -96 29
-112 13z"/>
</g>
</svg>