<svg version="1.0" xmlns="http://www.w3.org/2000/svg"
 width="2816.000000pt" height="1536.000000pt" viewBox="0 0 2816.000000 1536.000000"
 preserveAspectRatio="xMidYMid meet">
    <style>
        path {
            stroke: #000000;
            stroke-width: 52px;
            stroke-dasharray: 40000;
            stroke-dashoffset: 40000;
            fill: #000000;
            fill-opacity: 0;
            animation: 
                draw 2s ease-out forwards, 
                fill 0.5s ease-in forwards 1.5s,
                thin_stroke 0.5s ease-in forwards 1.5s;
        }
        @keyframes draw {
            to {
                stroke-dashoffset: 0;
            }
        }
        @keyframes fill {
            to {
                fill-opacity: 1;
            }
        }
        @keyframes thin_stroke {
            to {
                stroke-width: 20px;
            }
        }
    </style>

<metadata>
Created by potrace 1.16, written by Peter Selinger 2001-2019
</metadata>
<g transform="translate(0.000000,1536.000000) scale(0.100000,-0.100000)">
<path d="M18738 14418 c-8 -7 -98 -121 -198 -253 -490 -642 -899 -1121 -1335
-1564 -483 -490 -860 -800 -1172 -963 -71 -36 -128 -72 -128 -78 0 -7 10 -16
22 -21 54 -20 379 180 653 401 558 451 1266 1218 1955 2120 77 100 166 216
198 256 60 77 68 98 41 108 -20 8 -18 8 -36 -6z"/>
<path d="M20702 13398 c-282 -274 -633 -576 -973 -840 -507 -392 -853 -637
-1559 -1103 -239 -158 -442 -292 -451 -299 -9 -6 -59 -40 -110 -75 -118 -80
-220 -157 -378 -285 -243 -198 -245 -199 -257 -148 -63 264 -88 319 -193 423
-63 62 -91 81 -155 108 -123 51 -196 44 -196 -18 0 -37 26 -72 142 -192 57
-58 111 -116 122 -130 57 -76 86 -212 67 -321 -29 -165 -223 -548 -328 -649
-51 -49 -171 -133 -239 -167 -52 -26 -151 -52 -201 -52 -103 0 -194 57 -235
147 -20 42 -22 65 -22 178 0 113 4 142 28 225 63 209 166 378 330 542 79 78
106 113 115 143 48 175 -72 416 -274 549 -79 53 -165 76 -305 83 -137 7 -250
-7 -403 -48 -62 -16 -215 -56 -341 -89 -360 -95 -375 -103 -654 -363 -180
-168 -215 -197 -350 -286 -72 -48 -104 -79 -172 -162 -92 -114 -178 -195 -285
-265 -84 -56 -122 -90 -141 -126 -70 -134 142 -275 358 -239 160 26 314 112
481 270 102 96 145 125 256 171 88 36 91 36 91 7 0 -55 -74 -151 -257 -332
-111 -110 -187 -192 -193 -211 -10 -28 -18 -33 -66 -43 -149 -29 -312 -34
-604 -17 -157 9 -324 16 -372 16 -88 0 -88 0 -88 63 0 159 -53 411 -113 537
-37 79 -101 170 -118 170 -24 0 -17 -35 30 -134 93 -196 120 -302 128 -492 6
-141 6 -141 -18 -147 -43 -12 -59 -8 -59 14 0 12 8 23 20 26 20 5 28 23 11 23
-5 0 -14 21 -20 48 -13 63 -84 273 -132 395 -126 317 -273 480 -467 517 -261
51 -489 -111 -548 -390 -36 -171 13 -410 141 -687 59 -125 216 -382 250 -405
5 -4 21 -4 34 -1 23 6 24 4 18 -29 -7 -43 21 -80 130 -173 116 -99 283 -175
387 -175 77 0 116 -11 116 -32 0 -60 -95 -543 -136 -689 -29 -108 -103 -284
-153 -369 -41 -68 -126 -160 -149 -160 -7 0 -95 40 -195 88 -100 49 -198 95
-217 102 -19 7 -39 17 -45 21 -16 11 -130 57 -265 105 -228 82 -414 117 -610
116 -377 -3 -646 -193 -715 -506 -48 -215 37 -499 212 -702 58 -69 211 -185
323 -246 130 -71 408 -172 558 -204 63 -13 82 -21 80 -33 -5 -23 -41 -29 -198
-30 -208 -1 -382 27 -588 95 -276 91 -460 223 -541 389 -92 186 -93 498 -4
765 28 82 70 195 83 219 36 67 240 537 240 551 0 16 33 11 106 -15 84 -31 187
-42 237 -26 46 15 94 70 103 116 15 81 -69 196 -213 294 -35 23 -63 45 -63 50
0 18 22 71 30 71 4 0 73 -33 151 -74 334 -172 441 -186 532 -73 68 83 40 181
-85 304 -83 82 -97 93 -228 185 -52 36 -112 78 -132 93 -43 30 -54 75 -18 75
10 0 23 -6 27 -13 4 -7 71 -44 147 -82 136 -69 140 -70 217 -70 69 0 80 3 104
25 69 64 72 138 11 239 -41 67 -177 209 -269 280 -31 24 -57 48 -57 53 0 11
116 235 213 413 97 177 233 391 329 517 50 65 93 120 98 123 15 9 -2 45 -21
45 -67 0 -421 -552 -622 -972 -23 -48 -46 -87 -50 -88 -5 0 -70 42 -145 93
-126 86 -184 122 -477 293 -55 32 -101 62 -103 66 -2 4 -10 8 -18 8 -8 0 -14
6 -14 14 0 11 17 15 73 15 211 2 390 54 492 143 101 89 104 188 7 237 -40 20
-87 31 -262 57 -91 13 -194 42 -490 140 -206 67 -410 130 -452 138 -107 22
-212 20 -471 -9 -353 -39 -507 -48 -696 -42 -292 9 -372 38 -916 330 -256 138
-731 435 -1070 671 -578 401 -749 492 -814 427 -49 -49 -38 -103 65 -319 99
-208 116 -267 112 -377 -3 -79 -7 -97 -30 -132 -47 -71 -156 -129 -300 -159
-191 -40 -449 -43 -1008 -13 -431 23 -760 27 -895 10 -177 -23 -287 -73 -322
-146 -15 -32 -15 -37 2 -82 47 -122 266 -278 696 -494 408 -204 709 -333 1629
-696 36 -14 139 -53 230 -85 91 -33 221 -80 290 -105 255 -92 422 -145 855
-274 33 -9 148 -42 256 -73 353 -99 467 -150 602 -270 267 -237 423 -335 727
-455 247 -98 305 -125 575 -262 509 -258 578 -291 712 -336 126 -42 143 -45
212 -41 98 6 145 29 171 83 27 56 13 102 -49 165 -56 55 -63 61 -338 221 -235
138 -324 196 -435 283 -82 64 -100 93 -50 82 15 -4 45 -16 67 -28 22 -11 61
-31 87 -44 26 -13 116 -61 200 -107 295 -162 519 -277 618 -318 85 -34 87 -38
57 -101 -13 -29 -28 -64 -32 -78 -13 -44 -88 -205 -96 -208 -5 -2 -9 -11 -9
-19 0 -9 -16 -50 -36 -92 -54 -112 -131 -311 -160 -409 -83 -288 -68 -530 46
-750 88 -170 143 -291 167 -372 22 -75 26 -110 32 -305 5 -177 10 -226 24
-251 19 -36 72 -84 93 -84 21 0 17 -16 -10 -43 -22 -22 -24 -32 -28 -178 -3
-85 -11 -167 -17 -184 -7 -16 -48 -85 -92 -153 -175 -266 -209 -411 -209 -882
0 -270 -10 -379 -40 -443 -12 -25 -57 -87 -99 -139 -99 -118 -124 -166 -123
-235 1 -101 69 -199 228 -330 55 -45 126 -110 160 -145 73 -76 234 -273 234
-286 0 -6 -167 -7 -437 -3 -683 9 -833 7 -927 -18 -141 -37 -193 -86 -232
-216 -20 -66 -22 -174 -15 -905 6 -603 -9 -639 -292 -685 -21 -3 -1914 -6
-4205 -6 -2292 0 -4177 -3 -4189 -6 -17 -4 -23 -12 -23 -34 0 -29 0 -29 4173
-29 2828 0 4199 3 4255 10 106 14 184 43 234 88 48 43 73 90 96 179 15 61 17
132 17 703 0 505 3 646 14 690 18 74 66 120 152 146 61 18 97 19 764 16 700
-3 700 -3 743 -33 87 -62 295 -144 454 -179 170 -38 285 -51 509 -57 384 -10
557 27 657 141 35 40 56 77 65 117 6 24 13 27 67 33 171 20 251 78 296 217 15
47 18 120 24 554 6 392 11 512 22 557 22 83 44 108 118 132 96 32 264 37 1251
37 977 -1 1216 5 1329 34 144 37 214 100 261 237 23 65 23 65 91 76 110 17
189 67 230 145 44 86 50 165 53 637 1 299 6 467 14 511 16 87 51 130 129 159
88 33 325 41 1212 38 682 -1 802 1 915 15 158 20 218 37 281 80 66 44 101 92
128 173 23 69 23 69 85 81 170 34 243 106 272 266 7 37 14 258 18 552 7 486 7
490 30 543 20 44 32 57 71 77 87 44 120 46 915 55 711 8 883 15 1045 40 36 6
166 19 290 30 361 32 807 97 927 136 91 29 106 70 37 103 -42 21 -255 49 -452
59 -95 6 -176 12 -179 16 -4 3 2 48 13 99 17 82 19 143 20 575 1 265 5 504 9
530 10 69 37 114 84 140 95 53 -44 51 3309 52 3112 0 3112 0 3112 35 0 35 0
35 -3122 32 -2953 -3 -3127 -4 -3198 -21 -143 -33 -200 -77 -236 -179 -16 -47
-19 -105 -25 -592 -3 -297 -9 -551 -13 -565 -4 -14 -12 -44 -18 -68 -11 -43
-11 -43 -317 -36 -168 4 -774 7 -1346 8 -1114 1 -1105 1 -1205 -49 -88 -45
-126 -103 -156 -240 -21 -99 -23 -448 -4 -835 12 -231 8 -695 -5 -708 -15 -16
-563 -22 -1045 -13 -294 6 -670 14 -835 17 -320 6 -798 -8 -905 -27 -126 -23
-200 -80 -240 -187 -35 -93 -43 -221 -34 -532 11 -359 12 -1086 1 -1096 -20
-20 -604 -26 -1319 -14 -405 6 -742 9 -747 5 -17 -10 -13 -33 8 -44 47 -25
1605 -47 1914 -27 127 8 127 8 127 -20 0 -36 -30 -101 -60 -133 -35 -36 -117
-69 -200 -81 -156 -22 -441 -27 -1300 -22 -941 5 -1100 0 -1223 -38 -110 -34
-153 -84 -188 -220 -7 -29 -14 -225 -19 -545 -5 -332 -11 -512 -19 -536 -29
-93 -99 -145 -206 -156 -57 -6 -57 -6 -48 73 8 81 9 357 2 1029 -4 340 -2 387
14 450 10 39 29 87 42 107 33 50 89 66 277 80 137 11 158 10 300 -11 259 -39
410 -19 493 66 42 43 46 86 14 144 -42 74 -138 122 -408 203 -159 48 -260 90
-298 124 -48 42 -28 123 89 357 42 83 99 202 128 265 29 63 86 187 127 274
189 406 234 543 235 721 1 278 -101 431 -427 646 -88 58 -194 125 -235 149
-187 108 -210 123 -210 139 0 10 13 30 30 46 43 41 116 154 157 242 80 174
152 445 213 803 33 194 38 210 67 210 23 0 25 -3 19 -36 -4 -19 -9 -41 -12
-47 -9 -25 34 -73 91 -102 116 -58 309 -44 465 35 33 17 66 30 75 30 8 0 37
-14 65 -31 125 -77 365 -144 508 -143 91 1 95 2 117 30 24 29 24 29 77 0 156
-84 171 -91 239 -94 42 -3 87 2 120 12 60 17 160 68 179 91 16 19 48 19 93 0
59 -24 135 -28 209 -11 74 17 462 167 554 214 152 78 257 162 470 377 182 184
295 318 414 490 46 66 106 147 134 180 137 161 266 358 266 409 0 19 -37 28
-44 10 -6 -15 -36 -20 -36 -6 0 5 8 33 17 63 12 37 17 88 17 164 0 92 -4 118
-22 159 -35 76 -101 162 -201 261 -121 119 -119 137 8 94 48 -16 78 -36 127
-81 85 -80 120 -154 145 -302 25 -149 27 -156 44 -156 8 0 15 5 15 10 0 6 7
10 15 10 10 0 15 -11 15 -35 0 -27 4 -35 18 -35 10 0 70 44 133 98 285 242
390 320 844 620 709 469 1091 730 1410 966 158 117 529 403 605 466 25 21 116
98 204 171 268 224 646 575 646 600 0 6 -7 17 -15 26 -14 14 -26 6 -113 -79z
m-14989 -989 c95 -42 264 -145 462 -282 308 -213 552 -376 767 -511 252 -158
237 -149 483 -284 372 -204 546 -280 730 -318 167 -35 496 -24 960 32 307 37
414 19 884 -145 240 -84 348 -113 531 -141 183 -28 190 -31 190 -88 0 -39 -5
-49 -37 -80 -21 -20 -65 -48 -98 -62 -107 -48 -153 -55 -380 -55 -237 1 -213
-5 -365 94 -118 78 -317 179 -368 187 -35 5 -44 3 -66 -19 -31 -32 -32 -49 -5
-93 51 -83 177 -139 444 -199 61 -14 117 -29 125 -34 8 -4 71 -41 140 -81 69
-40 184 -106 255 -148 264 -153 504 -315 505 -342 0 -28 -125 -290 -139 -290
-7 0 -66 30 -130 67 -163 94 -414 217 -561 275 -138 56 -213 67 -234 36 -26
-42 58 -112 279 -231 66 -36 197 -106 290 -158 94 -51 196 -106 227 -123 69
-37 70 -45 29 -142 -16 -38 -44 -108 -63 -156 -18 -48 -38 -88 -43 -88 -6 0
-87 43 -180 96 -94 52 -195 110 -225 127 -166 93 -459 222 -533 234 -39 6 -77
-15 -77 -42 0 -39 197 -181 450 -325 80 -45 220 -127 313 -182 139 -84 167
-104 167 -123 0 -13 -20 -74 -45 -136 -25 -62 -45 -119 -45 -126 0 -7 -7 -13
-15 -13 -20 0 -536 259 -730 367 -324 180 -415 212 -460 164 -19 -22 -19 -22
0 -58 46 -85 286 -253 698 -489 165 -94 237 -157 237 -207 0 -58 -27 -72 -128
-70 -144 4 -288 59 -697 268 -485 248 -523 266 -792 370 -254 98 -414 195
-627 383 -207 182 -285 221 -641 323 -753 215 -1002 297 -1685 554 -418 157
-959 380 -1270 523 -532 244 -850 427 -964 553 -38 42 -46 58 -46 89 0 49 28
72 118 100 147 46 437 50 1087 14 375 -20 796 -15 930 10 169 33 259 73 344
156 69 67 86 111 86 220 -1 108 -15 156 -105 345 -71 149 -110 244 -110 266 0
29 50 24 133 -12z m9966 -959 c123 -14 177 -35 232 -90 63 -63 84 -130 77
-245 -9 -131 -71 -261 -185 -385 -185 -200 -525 -385 -831 -451 -109 -23 -492
-40 -492 -22 0 6 11 30 24 54 14 24 32 68 41 96 15 45 25 58 74 91 74 51 132
134 138 199 4 42 1 52 -21 76 -29 32 -58 31 -102 -1 -36 -26 -90 -135 -114
-230 -10 -40 -16 -46 -66 -68 -30 -13 -60 -24 -66 -24 -6 0 -52 -20 -102 -45
-71 -34 -107 -60 -157 -111 -194 -198 -362 -284 -556 -284 -113 0 -165 13
-204 53 -31 31 -38 79 -16 108 7 9 51 44 99 78 131 93 214 169 304 278 83 101
92 109 266 231 57 40 177 142 267 227 234 222 275 246 532 310 79 20 221 59
316 86 156 46 314 75 418 78 22 0 78 -4 124 -9z m437 -302 c35 -67 38 -80 42
-173 4 -100 4 -100 -71 -162 -196 -161 -357 -439 -413 -714 -31 -155 -1 -300
86 -409 36 -45 130 -95 201 -105 62 -9 166 17 257 66 41 21 78 39 83 39 29 0
-9 -51 -176 -235 -154 -170 -183 -200 -280 -284 -158 -137 -260 -195 -547
-310 -237 -94 -274 -104 -372 -99 -72 4 -90 9 -159 46 -289 154 -331 199 -452
487 -48 116 -57 171 -27 183 36 15 110 5 164 -21 67 -33 121 -85 177 -170 42
-65 85 -97 129 -97 11 0 46 -10 77 -22 40 -15 60 -30 71 -50 21 -41 93 -108
115 -108 10 0 26 11 35 25 14 22 15 32 5 64 -6 21 -18 44 -26 51 -26 21 -17
35 34 54 57 20 111 16 195 -16 112 -43 160 -58 181 -58 53 0 61 61 14 115 -69
78 -200 84 -408 16 -145 -48 -156 -50 -146 -18 4 12 7 36 6 54 -1 30 2 32 36
35 26 2 42 11 57 31 18 25 19 31 8 74 -7 25 -26 63 -42 83 -36 45 -37 58 -9
62 29 4 43 29 36 60 -10 38 -88 120 -164 172 -146 98 -374 140 -553 101 -132
-29 -130 -28 -130 -14 0 12 260 269 279 277 4 1 32 -22 62 -50 98 -92 244
-167 589 -302 376 -147 398 -160 516 -293 42 -49 90 -96 106 -107 37 -24 75
-15 84 19 19 77 -79 188 -183 208 -18 4 -61 25 -96 47 -77 48 -161 87 -327
151 -311 119 -487 199 -589 268 -88 60 -82 67 47 63 402 -14 871 179 1178 483
73 72 113 121 143 175 59 108 93 219 94 308 0 49 4 72 12 72 7 0 30 -33 51
-72z m-3909 -410 c94 -35 182 -118 258 -243 55 -92 213 -511 230 -612 8 -50
12 -47 -134 -88 -167 -46 -286 -120 -452 -282 -57 -55 -65 -68 -61 -93 16
-107 -127 97 -247 351 -59 125 -115 296 -131 401 -16 96 -8 256 15 321 9 26
20 47 25 47 4 0 10 13 13 28 7 35 95 125 150 154 96 50 227 56 334 16z m2493
-15 c0 -27 -26 -93 -46 -120 -26 -35 -54 -44 -54 -18 0 16 44 110 62 133 11
13 38 17 38 5z m-5102 -80 c37 -20 69 -39 72 -43 3 -3 24 -14 48 -24 54 -24
58 -51 5 -41 -20 3 -55 15 -77 24 -23 10 -54 24 -71 30 -55 22 -135 75 -135
89 0 25 84 6 158 -35z m5075 -817 c111 -37 257 -136 257 -172 0 -22 -25 -17
-100 21 -38 19 -108 46 -156 60 -82 24 -87 24 -100 8 -7 -10 -14 -21 -14 -25
0 -11 41 -36 88 -52 124 -44 302 -185 302 -239 0 -22 -5 -27 -24 -27 -12 0
-37 10 -54 23 -151 110 -216 146 -260 147 -29 0 -47 -39 -26 -56 8 -6 14 -16
14 -23 0 -6 7 -11 16 -11 26 0 127 -60 172 -104 48 -45 72 -84 72 -116 0 -26
-23 -26 -94 1 -48 18 -63 31 -121 104 -96 123 -200 188 -301 188 -84 0 -144
-49 -144 -119 0 -28 52 -164 75 -197 18 -26 19 -47 3 -47 -15 1 -37 29 -74 96
-110 201 -205 286 -350 317 -102 21 -183 -29 -191 -120 -4 -39 2 -66 28 -133
18 -47 39 -94 46 -105 15 -23 17 -55 3 -55 -5 0 -54 25 -109 55 -127 71 -195
95 -271 95 -92 0 -162 -36 -196 -102 -19 -38 -17 -71 6 -101 32 -41 26 -50
-26 -42 -91 13 -160 7 -216 -19 -60 -28 -146 -52 -155 -43 -3 4 1 44 10 89 15
77 24 126 61 341 8 45 20 126 27 180 15 115 -34 104 371 81 320 -18 554 -14
673 11 44 9 123 35 175 57 128 55 205 68 370 64 115 -2 147 -7 213 -30z
m-4538 -38 c145 -63 335 -159 467 -236 85 -50 97 -60 98 -84 0 -18 -5 -28 -15
-28 -8 0 -106 51 -217 114 -112 62 -261 145 -333 183 -72 39 -131 78 -133 87
-2 9 0 16 5 16 4 0 62 -23 128 -52z m886 -51 c79 -68 171 -165 214 -226 31
-45 41 -96 26 -134 -26 -68 -128 -57 -306 33 -164 83 -162 81 -146 128 30 85
114 262 126 262 6 0 45 -28 86 -63z m1599 -11 c0 -8 -13 -20 -30 -28 -16 -7
-30 -17 -30 -23 0 -10 -91 -66 -117 -73 -7 -2 -13 -14 -13 -28 0 -57 97 -16
206 87 49 46 81 69 97 69 14 0 39 3 56 6 32 7 32 7 25 -37 -10 -74 -104 -632
-110 -656 -6 -21 -12 -23 -78 -23 -185 1 -352 81 -500 241 -68 73 -91 119 -65
127 8 3 45 36 83 74 150 150 267 228 394 263 63 18 82 18 82 1z m3082 -183
c20 -18 24 -43 6 -43 -16 0 -48 31 -48 47 0 18 20 16 42 -4z m-1767 -33 c70
-33 146 -115 202 -216 58 -104 100 -155 164 -198 26 -17 68 -59 94 -91 54 -71
100 -109 212 -176 46 -28 83 -57 83 -65 0 -18 -85 -61 -162 -80 -71 -19 -139
-14 -195 13 -80 37 -281 181 -348 248 -76 76 -128 164 -209 358 -58 138 -64
174 -35 211 21 26 26 28 83 24 37 -2 81 -13 111 -28z m-4103 -181 c168 -77
235 -114 626 -336 23 -13 42 -27 42 -32 0 -20 -23 -71 -32 -71 -5 0 -28 13
-51 28 -51 35 -185 114 -382 227 -239 136 -355 211 -355 230 0 8 5 15 11 15 5
0 69 -27 141 -61z m949 -24 c19 -14 82 -59 140 -100 198 -138 289 -240 289
-327 0 -33 -6 -50 -22 -65 -32 -29 -62 -43 -92 -43 -50 0 -184 51 -336 128
-146 75 -192 108 -162 119 6 3 12 12 12 21 0 15 92 261 106 284 9 14 30 9 65
-17z m2765 -78 c39 -19 94 -49 123 -66 31 -19 66 -31 86 -31 30 0 37 -5 49
-34 42 -101 149 -224 249 -286 31 -19 56 -40 57 -46 1 -29 -159 -32 -280 -4
-130 29 -253 74 -317 117 -68 45 -229 196 -267 252 -39 55 -34 100 14 124 28
15 52 17 125 14 80 -3 98 -8 161 -40z m1848 7 c16 -6 23 -34 9 -34 -25 1 -53
14 -53 26 0 15 18 18 44 8z m-386 -108 c3 -13 -1 -17 -14 -14 -11 2 -20 11
-22 22 -3 13 1 17 14 14 11 -2 20 -11 22 -22z m-1829 -117 c29 -6 61 -25 94
-54 27 -25 53 -45 58 -45 5 0 9 -8 9 -19 0 -14 -18 -24 -82 -45 -151 -50 -331
-44 -383 14 -16 17 -17 25 -7 58 16 52 37 69 108 86 71 17 143 19 203 5z
m-2586 -273 c78 -56 112 -91 131 -138 22 -51 20 -88 -6 -115 -18 -20 -31 -23
-87 -23 -40 0 -95 9 -141 24 -75 23 -75 23 -74 57 1 46 83 239 101 239 8 0 42
-20 76 -44z m10825 -462 c79 -7 88 -18 50 -55 -62 -57 -234 -119 -403 -143
-230 -33 -361 -38 -1090 -46 -798 -9 -838 -11 -950 -60 -53 -22 -83 -52 -114
-110 -43 -80 -44 -98 -51 -615 -5 -325 -11 -515 -19 -543 -27 -101 -89 -154
-198 -168 -51 -6 -51 -6 -46 217 4 145 -1 356 -12 599 -27 571 -8 800 72 872
30 27 92 49 163 58 72 10 2483 3 2598 -6z m522 -25 c151 -12 170 -16 170 -33
0 -16 -185 -47 -425 -71 -82 -8 -165 -17 -182 -20 -46 -8 -42 7 17 72 28 30
50 59 50 65 0 11 137 6 370 -13z m-10905 -179 c287 -27 466 -87 1042 -351 53
-24 70 -49 33 -49 -10 0 -86 14 -167 31 -170 35 -308 52 -373 44 -111 -14
-240 -39 -240 -47 0 -4 -6 -8 -12 -8 -25 0 -138 -60 -194 -102 -156 -117 -264
-324 -251 -477 16 -175 136 -348 334 -481 73 -48 102 -80 74 -80 -17 0 -247
72 -341 107 -303 113 -539 317 -632 545 -81 201 -75 447 17 603 31 54 129 144
197 183 93 53 228 88 353 91 28 0 100 -4 160 -9z m905 -434 c113 -28 183 -32
243 -15 36 10 45 7 110 -27 102 -53 351 -203 476 -286 202 -134 289 -232 333
-373 18 -55 22 -95 23 -190 0 -132 -21 -236 -75 -363 -74 -176 -342 -755 -448
-968 -80 -161 -99 -247 -66 -304 32 -52 200 -136 364 -179 249 -67 370 -134
370 -207 0 -31 0 -31 -282 -37 -413 -8 -575 -21 -715 -56 -294 -73 -387 -63
-435 46 -32 73 -22 160 35 303 25 63 52 140 61 170 19 71 36 235 36 359 0 197
31 444 70 569 31 98 137 296 168 316 6 3 54 17 108 31 121 31 191 69 217 119
23 43 18 59 -25 86 -66 42 -192 -3 -282 -100 -52 -57 -52 -57 -143 -63 -108
-8 -424 20 -560 49 -19 4 -23 0 -23 -20 0 -14 8 -30 18 -35 43 -23 333 -61
485 -64 63 -1 107 -6 107 -12 0 -5 -29 -68 -65 -140 -102 -205 -124 -320 -145
-750 -12 -253 -25 -328 -84 -479 -56 -140 -70 -203 -63 -272 6 -61 27 -106 71
-152 64 -69 152 -91 267 -67 40 8 75 13 77 10 3 -2 -4 -26 -16 -52 -40 -95
-46 -156 -47 -443 0 -151 4 -423 9 -605 6 -240 5 -365 -3 -460 -7 -71 -14
-132 -17 -134 -16 -16 -357 -22 -623 -12 -257 11 -296 10 -309 -3 -26 -26 -7
-44 55 -52 32 -4 237 -8 455 -8 219 -1 398 -5 398 -9 0 -20 -42 -87 -70 -110
-86 -73 -346 -107 -659 -88 -295 19 -499 57 -670 127 -47 20 -94 38 -103 41
-10 3 -18 11 -18 18 0 14 111 25 255 25 144 0 213 29 235 96 25 73 -29 137
-160 190 -36 14 -79 34 -96 45 -56 34 -136 216 -184 419 -37 160 -21 267 103
660 36 113 86 266 112 340 26 74 64 185 85 246 56 162 86 222 194 393 54 84
115 190 136 235 59 127 81 198 175 551 14 55 30 109 35 120 17 39 52 200 54
244 1 37 -2 46 -18 49 -28 6 -62 -17 -91 -59 -70 -107 -211 -244 -309 -301
-145 -85 -239 -108 -481 -118 -110 -4 -212 -11 -227 -15 -22 -6 -32 -2 -52 20
-38 41 -46 84 -46 245 0 162 -19 310 -50 397 -43 118 -40 122 43 69 29 -19 71
-42 93 -51 272 -118 455 -168 675 -185 264 -19 465 27 446 102 -11 43 -96 126
-204 199 -141 95 -249 203 -294 294 -32 67 -34 75 -34 181 0 110 0 111 42 195
77 156 223 270 407 320 61 16 96 19 256 15 156 -3 202 -8 290 -30z m530 -1071
c0 -16 -119 -75 -152 -75 -37 0 -14 35 42 62 62 31 110 36 110 13z m5045 -125
c380 -10 666 -8 893 6 109 7 109 6 63 -92 -47 -100 -96 -123 -309 -151 -122
-16 -237 -18 -1037 -18 -937 -1 -1020 -4 -1125 -44 -86 -33 -138 -87 -167
-176 -14 -42 -18 -126 -23 -550 -8 -536 -11 -577 -62 -647 -26 -38 -92 -68
-165 -75 -55 -6 -55 -6 -47 68 12 111 9 531 -6 824 -15 294 -9 589 14 676 40
152 85 175 376 189 193 10 1010 4 1595 -10z m-6115 -266 c0 -4 -20 -77 -44
-163 -24 -86 -54 -199 -66 -251 -48 -204 -112 -352 -242 -558 -51 -81 -118
-203 -149 -272 -53 -116 -196 -524 -270 -770 -116 -388 -111 -368 -112 -485
-1 -127 15 -198 90 -385 78 -197 112 -234 271 -299 41 -16 80 -38 88 -48 20
-26 18 -80 -3 -91 -10 -5 -121 -12 -248 -16 -126 -4 -244 -9 -260 -12 -27 -5
-37 1 -87 53 -31 32 -88 99 -126 148 -87 113 -162 191 -277 285 -141 115 -190
179 -201 262 -9 63 16 114 109 222 143 165 156 220 157 636 0 288 8 397 35
506 26 101 83 225 145 314 86 123 117 192 129 283 6 43 8 96 5 117 -4 22 -3
59 0 84 8 54 2 52 210 66 159 11 318 39 405 71 117 43 300 171 377 263 33 40
64 59 64 40z"/>
<path d="M12185 13455 c-218 -26 -405 -101 -522 -209 -38 -35 -88 -77 -113
-95 -60 -43 -194 -174 -241 -236 -127 -169 -199 -409 -199 -665 0 -203 40
-368 134 -553 46 -90 145 -250 165 -267 4 -3 23 -28 43 -56 77 -106 170 -174
237 -174 47 0 54 -51 20 -151 -12 -33 -19 -63 -16 -66 3 -2 61 -9 129 -13 68
-5 161 -18 208 -30 156 -39 371 -159 518 -288 37 -32 74 -57 82 -55 23 5 57
63 65 111 4 23 11 42 17 42 5 0 50 -13 99 -30 109 -36 189 -50 294 -50 140 1
188 21 237 101 19 30 30 64 34 107 6 56 10 65 35 78 54 27 102 79 131 139 24
51 28 73 28 145 1 85 1 85 53 110 38 18 57 35 70 62 25 51 16 83 -45 165 -96
129 -98 157 -27 366 65 194 79 300 55 422 -20 106 -20 115 3 115 11 0 27 10
35 22 48 68 -29 288 -153 435 -225 268 -618 465 -1031 518 -134 17 -195 17
-345 0z m305 -65 c211 -16 399 -68 595 -165 154 -75 256 -146 356 -245 134
-133 208 -264 217 -382 6 -75 -13 -78 -57 -9 -43 67 -175 191 -269 252 -149
98 -367 193 -547 238 -318 79 -576 59 -830 -63 -244 -117 -384 -280 -479 -556
-40 -115 -40 -115 -40 -305 -1 -204 7 -249 70 -427 28 -80 33 -90 128 -294 36
-78 66 -147 66 -154 0 -9 -11 -11 -42 -6 -51 8 -86 39 -167 146 -227 300 -315
531 -315 830 0 359 120 624 374 830 51 41 120 99 154 128 79 67 179 116 302
148 157 40 294 49 484 34z m232 -359 c201 -43 425 -137 580 -243 145 -99 267
-222 244 -245 -3 -4 -52 17 -108 46 -110 56 -188 81 -253 81 -47 0 -130 -37
-162 -71 -36 -40 -71 -129 -87 -224 -32 -183 -47 -205 -185 -275 -117 -58
-153 -87 -180 -143 -25 -52 -29 -148 -6 -167 20 -17 35 -4 35 33 1 58 21 122
48 151 15 15 73 50 128 77 151 72 189 124 219 299 28 165 50 210 119 241 78
35 153 19 345 -73 159 -77 156 -73 155 -268 -1 -135 -1 -135 -52 -287 -77
-224 -73 -275 34 -415 33 -42 44 -65 44 -92 0 -34 -3 -38 -52 -60 -75 -32 -83
-45 -80 -129 3 -120 -30 -197 -107 -246 -71 -46 -81 -61 -93 -141 -15 -104
-39 -128 -138 -141 -91 -13 -209 0 -335 36 -143 42 -147 44 -183 118 -46 92
-110 168 -168 198 -27 13 -55 30 -62 37 -7 6 -25 12 -39 12 -25 0 -25 -2 -20
-45 4 -25 15 -62 26 -83 24 -45 109 -130 182 -181 46 -32 55 -43 62 -80 5 -23
6 -49 3 -57 -8 -21 -40 -17 -62 7 -33 38 -166 134 -251 183 -154 89 -340 145
-477 146 -69 0 -69 0 -62 46 3 26 6 68 6 93 0 45 2 48 40 65 45 20 100 80 139
153 17 32 33 49 49 51 12 2 22 -1 22 -7 0 -6 13 -11 29 -11 15 0 74 -22 130
-50 56 -27 106 -50 112 -50 5 0 21 -7 34 -16 20 -13 25 -14 25 -3 0 8 13 23
29 33 103 70 70 201 -67 262 -70 32 -69 59 3 91 91 42 100 48 119 86 16 33 17
44 6 85 -24 95 -87 160 -180 182 -40 10 -58 9 -102 -4 -172 -50 -225 -290
-104 -472 53 -79 48 -101 -13 -66 -30 16 -32 16 -68 -3 -25 -14 -50 -42 -79
-90 -47 -76 -94 -125 -123 -125 -13 0 -34 34 -80 128 -142 287 -201 474 -216
677 -14 180 38 410 125 556 99 167 267 299 465 367 52 18 85 25 205 46 63 11
339 -4 432 -23z m-402 -1070 c46 -24 70 -67 73 -132 2 -53 2 -53 -51 -73 -29
-12 -69 -34 -88 -50 -33 -26 -36 -32 -30 -66 6 -37 6 -37 -44 -44 -28 -4 -55
-4 -60 -1 -5 3 -19 38 -31 77 -38 124 -14 235 61 285 42 29 120 31 170 4z m42
-450 c32 -29 42 -71 25 -114 -18 -47 -143 0 -197 75 -46 64 -43 68 55 68 79 0
87 -2 117 -29z m155 -513 c33 -32 44 -68 20 -68 -7 0 -28 16 -45 36 -56 63
-34 90 25 32z"/>
</g>
</svg>