<svg version="1.0" xmlns="http://www.w3.org/2000/svg"
 width="1024.000000pt" height="687.000000pt" viewBox="0 0 1024.000000 687.000000"
 preserveAspectRatio="xMidYMid meet">
    <style>
        path {
            stroke: #000000;
            stroke-width: 20px; 
            stroke-dasharray: 40000;
            stroke-dashoffset: 40000;
            fill: #000000;
            fill-opacity: 0;
            animation: draw 2s ease-out forwards, fill 0.5s ease-in forwards 1.5s;
        }
        @keyframes draw {
            to {
                stroke-dashoffset: 0;
            }
        }
        @keyframes fill {
            to {
                fill-opacity: 1;
            }
        }
    </style>

<metadata>
Created by potrace 1.16, written by Peter Selinger 2001-2019
</metadata>
<g transform="translate(0.000000,687.000000) scale(0.100000,-0.100000)"
>
<path d="M6537 5485 c-42 -13 -105 -39 -139 -57 -134 -71 -268 -234 -308 -374
-60 -208 14 -471 160 -574 27 -19 50 -41 50 -48 0 -24 59 -127 104 -184 55
-69 150 -150 217 -183 27 -14 77 -31 111 -38 54 -10 65 -16 78 -42 18 -36 18
-159 1 -224 -20 -70 -24 -39 -7 44 9 43 16 89 15 104 -3 80 -69 -354 -96 -629
-23 -245 -37 -238 -49 25 -7 144 5 261 43 410 19 77 73 215 84 215 15 0 10 37
-6 50 -11 10 -28 6 -87 -21 -77 -34 -101 -49 -80 -49 7 0 35 11 62 25 27 14
52 25 55 25 3 0 -4 -19 -16 -42 -102 -199 -134 -467 -94 -773 6 -48 5 -51 -24
-67 -114 -63 -81 -238 49 -264 20 -4 29 -11 26 -20 -3 -7 -8 -86 -11 -176 -3
-90 -8 -183 -12 -208 -5 -44 -6 -44 -39 75 -71 253 -107 403 -119 505 -9 77
-13 91 -14 54 -2 -78 33 -248 101 -489 34 -121 63 -222 65 -224 11 -14 17 27
24 171 5 90 11 195 14 235 6 67 8 72 36 83 39 16 76 61 90 110 21 68 -24 149
-95 173 -8 3 9 187 40 437 8 63 14 119 14 124 0 6 12 -4 28 -21 37 -42 102
-65 187 -66 80 0 144 21 219 72 l47 33 -14 -34 c-23 -52 -61 -134 -111 -241
-62 -134 -137 -322 -175 -441 -85 -267 -156 -613 -122 -591 5 3 31 45 57 93
115 212 236 383 409 577 59 66 120 139 136 162 47 68 42 88 -59 222 l-23 31
23 9 c13 5 57 12 98 16 41 4 86 14 99 22 26 17 25 -10 6 328 l-4 70 15 -45
c59 -182 15 -545 -104 -861 -36 -98 -40 -103 -68 -104 -26 0 -31 -5 -43 -47
l-14 -48 -86 3 -85 2 -9 -50 c-4 -27 -15 -111 -25 -185 l-17 -134 -55 -28
c-61 -30 -352 -108 -404 -108 -33 0 -81 27 -145 82 -23 20 -31 35 -31 59 0 26
-14 47 -82 118 -46 47 -86 88 -90 91 -11 9 -85 126 -109 172 -12 23 -21 55
-22 72 -1 40 29 86 57 86 32 1 128 43 170 75 85 65 136 180 136 306 0 84 13
166 35 214 22 49 38 158 31 208 -4 25 -18 66 -31 91 -15 29 -20 46 -12 49 16
5 -25 66 -68 100 -20 16 -66 42 -103 59 -81 38 -80 37 -62 48 22 14 -33 32
-117 38 -77 5 -140 -7 -206 -40 -46 -23 -56 -18 -33 18 35 52 -12 38 -59 -18
-26 -31 -31 -33 -81 -30 -58 4 -74 -11 -24 -21 41 -9 38 -23 -8 -31 -44 -7
-123 -56 -146 -91 -16 -24 -16 -25 9 -25 l26 0 -22 -22 c-43 -46 -71 -124 -71
-201 0 -40 4 -84 10 -99 9 -21 8 -27 -3 -32 -27 -10 -48 -67 -42 -115 2 -25 7
-53 11 -61 4 -11 -4 -22 -26 -34 -63 -38 -277 -217 -341 -286 -110 -118 -155
-223 -164 -377 -5 -78 -2 -102 16 -160 23 -71 40 -98 81 -126 37 -26 52 -20
25 9 -13 14 -34 46 -46 71 -18 38 -21 56 -17 131 7 119 35 189 103 256 76 74
152 109 240 110 71 1 134 -19 125 -39 -3 -5 -51 -10 -110 -10 -94 0 -110 -3
-155 -27 -27 -14 -60 -37 -72 -50 -110 -120 -108 -384 4 -511 37 -41 37 -35
-2 -166 -20 -68 -24 -75 -56 -85 -43 -14 -48 -42 -14 -78 14 -15 25 -29 25
-32 0 -3 -17 -4 -37 -3 -34 2 -38 -1 -41 -24 -2 -17 6 -37 22 -57 33 -38 33
-54 1 -46 -35 9 -42 -17 -15 -63 20 -36 20 -41 6 -103 -8 -36 -26 -117 -40
-180 -14 -63 -34 -152 -46 -197 -23 -91 -18 -118 25 -150 l26 -19 -21 -82
c-19 -75 -51 -283 -49 -321 1 -40 17 32 28 129 10 95 42 244 54 257 3 2 36
-11 75 -31 160 -81 348 -125 616 -146 234 -18 400 -8 443 26 16 13 11 14 -52
11 -38 -3 -119 -10 -179 -18 -87 -10 -128 -10 -205 -1 -134 17 -208 41 -427
138 -189 83 -249 99 -260 69 -9 -21 -27 -19 -52 8 -28 30 -28 44 7 196 16 69
39 171 51 226 34 155 32 152 66 113 10 -11 39 -34 63 -50 53 -33 49 -35 -15
-8 -119 51 -56 -67 79 -148 142 -85 291 -130 507 -153 63 -7 138 -20 165 -30
l51 -19 12 -92 c13 -105 19 -113 90 -122 26 -3 70 -8 98 -11 l51 -6 -13 -40
c-39 -111 -41 -334 -4 -334 22 0 42 114 44 253 1 117 2 123 21 118 11 -3 119
-10 240 -16 400 -21 842 20 1095 102 162 52 276 143 378 301 177 273 291 598
352 997 12 80 26 159 31 175 13 46 2 -401 -16 -610 -25 -289 -30 -718 -11
-1019 9 -143 18 -261 21 -264 7 -8 6 25 -10 293 -21 339 -18 538 10 950 25
364 33 729 16 740 -13 7 -20 -19 -31 -111 -52 -458 -182 -854 -375 -1144 -158
-239 -300 -311 -733 -372 -138 -20 -200 -22 -512 -23 -281 0 -389 4 -520 18
-91 11 -172 23 -181 28 -18 9 -29 59 -29 133 0 47 1 48 18 32 11 -9 24 -34 31
-56 21 -70 95 -105 163 -77 44 18 51 46 36 142 -13 86 -4 276 20 405 l17 95
45 -2 c530 -23 661 -9 811 88 48 30 87 36 120 19 11 -6 45 -50 76 -98 102
-157 201 -234 211 -165 7 47 -86 174 -187 256 -18 15 -31 31 -27 34 3 3 45 -9
93 -26 49 -18 120 -45 160 -59 59 -22 74 -25 85 -14 32 32 -63 108 -174 138
-29 7 -83 14 -120 14 -59 0 -68 2 -68 18 0 10 14 31 31 48 41 38 72 88 92 147
9 26 28 62 42 78 27 33 32 55 13 61 -7 3 -3 15 12 35 16 22 21 39 16 57 -3 14
0 40 8 58 7 18 22 60 32 92 17 54 31 72 145 187 131 132 220 242 258 318 46
90 -16 71 -120 -36 -72 -74 -219 -277 -219 -302 0 -5 -7 -15 -17 -22 -15 -13
-16 -9 -10 51 21 202 186 531 330 656 59 51 152 94 207 95 33 0 40 3 25 9 -52
21 -177 -35 -264 -120 -109 -107 -206 -275 -271 -470 -32 -97 -52 -250 -33
-250 5 0 -5 -30 -24 -66 -18 -37 -33 -73 -33 -81 0 -8 -4 -12 -8 -9 -5 3 -5
31 -1 63 4 32 8 84 8 116 1 53 -1 58 -25 67 -14 6 -46 10 -71 10 -32 0 -44 4
-40 13 59 132 140 384 173 537 29 130 27 416 -3 525 -12 43 -20 81 -18 83 2 2
20 -8 42 -21 21 -14 103 -62 183 -108 262 -149 396 -245 450 -324 61 -88 107
-249 139 -486 15 -102 19 -121 20 -79 1 79 -16 221 -41 325 -60 258 -135 331
-605 602 l-203 117 -37 64 c-60 103 -171 180 -243 168 l-38 -6 -41 85 c-42 86
-96 234 -88 241 2 3 18 -9 35 -25 18 -16 43 -32 57 -35 71 -18 180 58 223 154
30 66 41 205 23 290 -25 121 -95 218 -173 242 -34 10 -42 9 -68 -10 l-29 -22
-43 82 c-76 146 -211 253 -358 287 -80 19 -217 12 -303 -14z m282 5 c76 -14
192 -72 246 -121 90 -83 168 -223 170 -304 4 -123 29 -395 37 -395 20 0 32 62
32 170 1 96 -3 126 -22 182 -13 37 -22 80 -20 95 3 24 8 28 41 31 49 4 97 -25
136 -84 49 -75 66 -137 66 -249 0 -124 -21 -190 -78 -252 -51 -55 -84 -73
-138 -73 -36 0 -48 6 -80 40 -21 22 -41 40 -44 40 -12 0 -4 -54 19 -123 38
-116 107 -246 175 -332 21 -26 23 -37 18 -100 -7 -102 -81 -275 -139 -329 -71
-64 -131 -89 -226 -94 -93 -5 -153 11 -192 53 -24 26 -24 26 5 135 19 70 17
192 -4 213 -19 19 -12 35 18 42 73 16 157 99 210 210 51 103 75 214 69 311
l-5 73 31 3 c87 9 100 243 16 288 -44 23 -72 -4 -85 -82 -3 -22 -12 -38 -19
-38 -8 0 -36 16 -62 35 -90 64 -117 72 -265 79 -154 6 -231 26 -319 79 l-55
33 4 131 c4 139 -4 165 -35 117 -25 -38 -30 -124 -10 -184 15 -45 15 -56 2
-108 -9 -31 -36 -102 -60 -157 -53 -116 -58 -170 -26 -266 12 -34 19 -63 17
-66 -7 -6 -69 74 -101 129 -35 62 -66 187 -66 269 0 85 31 206 71 276 135 235
415 371 668 323z m-469 -249 c0 -65 -12 -161 -20 -156 -16 10 -21 98 -10 146
14 59 30 64 30 10z m932 -260 c15 -68 17 -229 2 -254 -8 -14 -14 23 -23 149
-7 92 -15 175 -18 183 -3 12 0 11 11 -3 8 -10 21 -44 28 -75z m-799 -81 c34
-16 111 -44 171 -61 108 -31 192 -71 181 -88 -2 -5 -25 -12 -50 -16 -132 -19
-201 -98 -146 -166 15 -18 28 -23 59 -23 42 1 102 30 110 52 2 7 -13 1 -33
-13 -82 -55 -175 -11 -135 65 16 30 74 60 136 71 84 14 87 16 75 37 -15 28
-97 67 -206 97 -101 28 -176 60 -227 98 -43 32 -33 41 15 13 72 -42 143 -57
297 -64 156 -8 161 -9 269 -87 59 -43 91 -31 91 36 0 40 34 73 60 59 33 -17
51 -65 51 -135 1 -86 -23 -131 -69 -129 l-31 2 6 -87 c13 -199 -102 -438 -242
-502 -66 -30 -80 -26 -105 32 -25 59 -22 80 20 143 28 41 37 66 25 66 -3 0
-22 -11 -43 -25 -21 -14 -61 -32 -90 -40 -29 -9 -52 -20 -52 -25 0 -15 63 -12
104 5 39 16 44 11 21 -19 -21 -28 -18 -83 6 -123 12 -19 20 -36 17 -38 -9 -9
-97 18 -151 47 -108 58 -258 221 -297 322 -9 26 -9 27 12 20 36 -12 98 -6 125
11 14 9 22 19 20 22 -3 3 -16 -2 -29 -11 -12 -9 -37 -16 -55 -16 -31 0 -113
27 -113 37 0 37 89 93 148 93 66 0 91 -37 132 -197 8 -31 17 -44 33 -47 32 -7
86 -2 80 7 -3 4 -17 7 -31 6 -54 -4 -61 0 -72 44 -24 90 -43 139 -67 167 -21
26 -32 30 -75 30 -56 0 -80 -10 -125 -52 -29 -28 -32 -29 -41 -12 -6 11 -18
46 -27 78 -23 80 -15 138 34 239 21 45 44 103 50 127 7 25 14 51 17 59 3 9 18
-2 45 -32 24 -28 65 -58 102 -77z m298 -644 c-13 -15 -94 -46 -120 -46 -9 0
11 11 43 25 32 13 64 29 69 34 15 15 22 4 8 -13z m632 -67 c66 -34 102 -66
143 -125 49 -71 37 -80 -16 -13 -49 62 -79 86 -149 119 -51 23 -65 40 -36 40
9 0 35 -10 58 -21z m64 -116 c57 -43 75 -63 82 -92 11 -43 32 -435 25 -455 -3
-8 -27 -17 -57 -21 -170 -21 -195 -36 -151 -91 48 -59 84 -117 84 -134 0 -28
-53 -101 -164 -225 -177 -197 -313 -390 -409 -577 -22 -44 -43 -75 -45 -69 -4
12 25 159 60 301 71 291 196 607 413 1045 81 163 105 257 80 319 -9 22 -30 57
-46 77 -41 52 -36 57 14 14 23 -20 75 -61 114 -92z m-1490 57 c-15 -40 -5 -46
35 -22 54 33 163 55 233 47 76 -8 99 -20 55 -28 -42 -9 -31 -23 25 -30 56 -8
146 -53 203 -102 44 -38 52 -55 27 -55 -21 0 -19 -7 10 -42 52 -62 68 -191 33
-275 -11 -27 -12 -25 -20 36 -9 65 -44 161 -58 161 -5 0 -18 -16 -30 -35 -19
-31 -68 -75 -84 -75 -4 0 3 12 14 28 22 30 41 87 32 96 -3 3 -20 -12 -39 -33
-31 -36 -103 -79 -161 -96 -22 -6 -22 -4 11 43 34 49 53 99 43 109 -3 3 -35
-22 -72 -56 -75 -68 -150 -108 -221 -118 l-48 -6 22 24 c12 13 29 41 38 62 14
35 14 38 -2 44 -26 10 -91 -70 -153 -190 -30 -59 -61 -109 -70 -112 -9 -4 -21
2 -30 15 -36 53 -59 70 -93 70 -31 0 -35 4 -41 31 -22 110 5 214 75 294 l34
38 -27 -6 c-16 -4 -28 -4 -28 1 0 26 111 91 157 92 32 0 37 16 11 34 l-22 16
22 0 c13 0 32 -4 42 -10 15 -8 20 -6 25 9 7 24 44 71 55 71 4 0 3 -13 -3 -30z
m1498 -30 c11 -18 -10 -10 -40 16 l-30 25 32 -15 c17 -9 35 -20 38 -26z m128
-148 c8 -15 22 -63 33 -107 26 -109 26 -364 0 -480 -49 -221 -153 -530 -185
-549 -14 -9 -5 43 16 99 162 424 197 763 107 1059 -9 27 13 11 29 -22z m-856
-79 c-19 -48 -40 -106 -47 -128 -24 -85 -50 -284 -50 -384 0 -140 18 -281 36
-281 8 0 14 -5 14 -11 0 -5 -4 -8 -9 -5 -5 3 -12 -2 -15 -11 -12 -30 -24 1
-40 103 -30 194 -17 434 34 604 30 100 90 224 102 212 7 -7 0 -37 -25 -99z
m-473 -85 c-9 -18 -30 -48 -48 -67 l-31 -34 42 6 c53 6 123 40 164 78 18 16
33 28 36 26 2 -2 -12 -27 -31 -56 -19 -28 -29 -51 -23 -51 23 0 86 45 111 78
l25 34 14 -29 c30 -58 48 -212 31 -258 -6 -14 -9 -13 -30 6 -17 16 -40 24 -79
27 -48 4 -59 1 -81 -18 -32 -31 -44 -79 -33 -130 11 -49 6 -60 -26 -60 -13 0
-27 -4 -30 -10 -9 -15 51 -12 64 3 7 9 8 37 5 78 -6 60 -5 67 22 98 26 31 31
33 76 29 33 -4 57 -13 74 -29 26 -24 26 -26 22 -139 -6 -138 -30 -202 -103
-275 -131 -132 -324 -135 -493 -7 -68 51 -97 88 -136 174 -48 105 -105 149
-176 135 -26 -6 -30 -3 -40 29 -15 43 -7 99 16 125 23 26 34 15 34 -32 0 -32
7 -47 31 -71 21 -21 33 -28 41 -20 17 17 -1 68 -38 102 -24 22 -33 35 -26 42
19 19 61 -1 87 -42 31 -50 58 -56 126 -32 30 11 89 32 131 47 108 39 176 24
181 -40 2 -25 -1 -29 -18 -27 -74 13 -91 12 -110 -3 l-20 -17 20 8 c45 16 76
16 101 -1 22 -14 28 -15 35 -4 15 25 10 57 -15 86 -22 26 -30 28 -88 27 -48
-1 -87 -11 -165 -42 -95 -37 -117 -41 -94 -17 5 6 24 39 42 75 66 132 149 241
149 194 0 -9 -16 -38 -36 -65 l-36 -49 44 0 c23 1 66 8 93 18 57 20 155 90
181 130 23 35 30 12 8 -30z m-571 -302 c11 -20 17 -40 13 -43 -10 -11 -44 29
-52 61 -10 41 14 30 39 -18z m5 -110 c42 -22 68 -55 101 -127 44 -98 114 -168
214 -218 46 -22 105 -43 135 -47 53 -7 60 -12 41 -31 -6 -6 -12 -30 -14 -54
-2 -24 -4 -45 -4 -45 -1 -1 -20 2 -43 8 -54 11 -137 54 -256 131 -71 46 -91
64 -86 76 14 33 16 120 4 157 -21 66 -45 91 -91 97 -41 5 -93 42 -83 58 8 14
52 11 82 -5z m-87 -22 c19 -24 65 -44 98 -44 25 0 32 -7 50 -42 27 -57 35
-113 23 -167 -6 -24 -8 -49 -6 -55 16 -36 298 -191 367 -201 38 -6 50 -13 57
-31 5 -13 21 -41 35 -64 l26 -41 -28 18 c-15 9 33 -45 107 -120 107 -109 135
-143 135 -165 0 -24 -3 -27 -29 -24 -23 3 -38 -6 -82 -51 -73 -76 -126 -183
-123 -248 2 -40 -2 -53 -21 -74 -13 -14 -30 -25 -38 -25 -38 0 -282 195 -346
277 -105 133 -104 346 2 456 37 37 122 77 167 77 42 0 38 20 -9 41 -26 11 -80
26 -121 34 -132 26 -166 59 -131 132 9 20 16 37 14 38 -3 3 -119 -125 -147
-161 -16 -20 2 -67 40 -104 42 -40 49 -64 23 -74 -30 -12 -60 -6 -96 19 -20
14 -42 25 -47 25 -32 0 4 -84 87 -207 70 -103 78 -126 43 -131 -21 -3 -45 17
-133 108 -59 61 -108 107 -108 102 0 -15 66 -108 137 -191 107 -126 121 -194
29 -146 -16 9 -31 13 -33 11 -8 -7 54 -36 77 -36 24 0 35 21 26 53 -3 12 -31
52 -61 90 -31 37 -52 67 -48 67 5 0 20 -11 32 -24 12 -13 37 -32 56 -42 28
-15 36 -16 50 -4 24 20 12 52 -57 154 -59 87 -104 173 -95 182 3 3 22 -6 42
-21 40 -26 83 -32 116 -15 28 16 23 35 -20 78 -55 54 -60 83 -26 131 14 22 35
47 45 56 17 15 19 14 30 -20 15 -44 42 -59 158 -84 50 -11 104 -27 119 -35
l28 -15 -26 -1 c-55 0 -124 -33 -170 -81 -114 -117 -114 -317 -1 -467 68 -90
309 -282 354 -282 9 0 30 11 47 25 l30 26 41 -26 c22 -14 46 -38 51 -53 10
-24 6 -139 -5 -149 -2 -2 -41 1 -86 6 -96 12 -128 7 -140 -24 l-9 -23 -63 30
c-48 23 -88 55 -163 132 -92 93 -111 107 -238 174 -148 78 -180 85 -185 40 -5
-39 21 -81 78 -129 27 -23 50 -48 50 -56 0 -7 5 -13 10 -13 21 0 7 21 -60 88
-51 51 -70 77 -70 96 0 15 6 29 14 32 8 3 74 -25 148 -62 124 -63 140 -74 234
-169 69 -71 118 -110 158 -130 67 -33 79 -50 66 -96 -13 -46 -40 -281 -40
-346 l0 -53 -47 19 c-27 10 -97 24 -158 31 -230 24 -392 74 -530 162 -48 30
-115 97 -115 115 0 17 -3 17 71 -16 75 -34 139 -53 139 -41 0 4 -30 25 -67 45
-38 20 -92 55 -120 76 -46 34 -53 44 -53 74 0 43 11 50 44 24 37 -29 196 -102
204 -93 4 3 2 9 -4 11 -19 7 -168 101 -197 125 -25 21 -27 27 -21 66 4 23 9
41 13 40 91 -48 223 -110 226 -106 3 3 -32 27 -77 53 -46 26 -97 58 -114 71
-30 22 -31 25 -21 64 6 22 16 40 22 40 5 0 48 -16 95 -36 107 -45 196 -74 223
-73 12 0 0 7 -27 14 -103 29 -295 110 -295 125 0 8 11 51 24 95 25 84 30 88
73 54 34 -26 82 -26 82 1 0 25 1 25 44 -1 65 -38 136 -8 93 39 -9 9 -16 22
-17 27 -1 10 -179 195 -187 195 -15 0 45 -78 120 -157 49 -50 86 -97 82 -102
-22 -36 -127 21 -215 117 -38 43 -70 70 -70 62 0 -13 26 -48 119 -161 22 -28
23 -29 4 -29 -51 0 -169 124 -197 208 -27 76 -30 161 -12 246 21 94 59 147
136 190 52 29 61 31 164 31 121 0 135 7 122 60 -8 32 -69 95 -92 95 -8 0 -14
5 -14 10 0 6 4 10 10 10 21 0 120 -42 144 -61 30 -24 50 -17 40 14 -19 67
-102 143 -127 118 -7 -7 2 -25 29 -57 27 -34 33 -45 19 -40 -65 28 -96 35
-142 36 -64 0 -68 -12 -10 -27 55 -15 109 -52 125 -87 8 -15 12 -29 10 -32 -3
-2 -22 6 -44 17 -32 17 -52 20 -111 16 -108 -6 -201 -60 -278 -161 -65 -86
-88 -256 -46 -351 23 -52 23 -69 -1 -33 -39 60 -53 122 -52 223 2 204 83 339
319 533 82 67 196 152 205 152 4 0 13 -7 21 -16z m32 -224 c26 -30 43 -68 34
-76 -6 -6 -97 102 -97 115 0 17 33 -3 63 -39z m2387 -13 c0 -36 -225 -310
-304 -371 -20 -15 -36 -25 -36 -22 0 8 57 100 102 166 51 75 135 170 183 208
44 35 55 39 55 19z m-1294 -43 c73 -48 72 -165 -2 -223 -55 -44 -77 -6 -24 41
25 22 30 34 30 71 0 29 -7 53 -20 70 -18 23 -27 57 -15 57 3 0 17 -7 31 -16z
m-106 -14 c0 -5 -11 -20 -25 -34 -15 -15 -25 -36 -25 -54 0 -39 35 -82 66 -82
20 0 24 -5 24 -30 0 -26 -3 -30 -29 -30 -36 0 -79 34 -97 76 -18 43 -18 68 1
108 22 46 85 80 85 46z m54 -46 c17 -45 -1 -114 -31 -114 -44 0 -73 86 -41
118 17 17 65 15 72 -4z m36 -3 c13 -26 13 -54 -2 -86 -18 -39 -23 -30 -23 40
0 67 7 79 25 46z m695 -167 c0 -33 -4 -40 -22 -42 -19 -3 -23 1 -23 23 0 34
18 67 33 62 7 -2 12 -21 12 -43z m-99 -54 c27 0 34 -4 34 -19 0 -10 7 -25 16
-32 14 -12 20 -9 40 16 22 28 27 29 95 27 39 -1 75 -5 81 -8 7 -5 8 -37 4 -93
-11 -135 -12 -135 -67 -158 l-48 -21 31 38 c31 40 33 70 3 70 -20 0 -79 -30
-151 -76 -31 -20 -58 -33 -61 -30 -3 2 1 28 8 55 26 104 -34 92 -110 -21 -25
-37 -46 -66 -47 -65 -3 3 34 275 41 306 6 22 9 23 52 17 25 -3 61 -6 79 -6z
m82 -17 c-5 -25 -28 -28 -28 -4 0 12 6 21 16 21 9 0 14 -7 12 -17z m-101 -175
c-3 -13 -11 -42 -18 -66 -6 -23 -9 -46 -5 -49 7 -8 48 12 135 67 116 72 138
44 36 -46 -36 -32 -63 -59 -60 -62 2 -2 42 17 90 42 74 41 86 45 92 30 9 -24
-6 -44 -68 -87 -30 -21 -56 -43 -58 -49 -5 -14 37 0 72 24 33 24 40 20 31 -17
-4 -16 -23 -37 -48 -53 -22 -14 -43 -27 -45 -29 -2 -2 -2 -6 2 -9 3 -3 20 1
36 9 30 15 31 15 31 -7 0 -42 -68 -82 -205 -121 -33 -9 -91 -34 -130 -55 -148
-81 -173 -93 -290 -140 -163 -65 -220 -77 -296 -61 -62 12 -214 79 -287 124
l-42 27 58 78 c61 79 142 212 142 231 0 20 18 11 85 -39 81 -61 99 -62 275
-20 239 58 291 83 341 163 18 29 48 71 66 95 38 46 69 57 60 20z m263 -152 c0
-3 -4 -8 -10 -11 -5 -3 -10 -1 -10 4 0 6 5 11 10 11 6 0 10 -2 10 -4z m11 -39
c-10 -9 -11 -8 -5 6 3 10 9 15 12 12 3 -3 0 -11 -7 -18z m-1107 -6 c12 -19
-181 -311 -205 -311 -20 0 -7 70 25 135 58 122 155 217 180 176z m1096 -85 c0
-2 -7 -9 -15 -16 -13 -11 -14 -10 -9 4 5 14 24 23 24 12z m-72 -118 c-15 -43
-33 -72 -86 -136 -56 -66 -48 -82 42 -82 112 0 275 -65 284 -113 5 -26 -27
-21 -135 22 -80 32 -196 71 -210 71 -15 0 11 -33 90 -112 97 -98 152 -187 130
-209 -24 -24 -106 59 -198 199 -51 78 -91 108 -133 97 -14 -3 -55 -24 -91 -46
-73 -44 -101 -53 -216 -71 -89 -13 -434 -14 -534 -1 l-65 8 0 86 -1 85 100
-45 c93 -42 106 -45 185 -46 119 0 234 41 494 178 70 37 156 75 190 84 33 8
81 26 106 39 59 30 61 30 48 -8z m-2272 -120 c-3 -13 -6 -31 -6 -40 0 -26 -17
-22 -36 7 -13 20 -14 28 -4 40 7 8 21 15 32 15 16 0 19 -5 14 -22z m-27 -104
c2 -2 0 -20 -3 -40 l-7 -36 -25 23 c-23 22 -31 49 -17 62 6 6 42 0 52 -9z m46
-140 l40 -35 -47 28 c-26 15 -48 31 -48 36 0 14 15 6 55 -29z m-78 18 c8 -5
10 -17 4 -37 -7 -29 -8 -30 -19 -8 -22 40 -14 63 15 45z m1182 -38 c3 -2 -4
-46 -15 -97 -15 -75 -19 -133 -19 -312 l0 -219 -25 -13 c-33 -17 -55 -16 -96
3 -26 13 -38 28 -55 72 -20 55 -21 67 -14 296 4 132 11 251 16 264 10 25 10
25 106 18 54 -4 99 -9 102 -12z m-235 -236 c-4 -73 -7 -164 -6 -201 2 -66 1
-67 -19 -56 -19 10 -20 16 -15 92 9 105 26 257 32 280 13 44 16 7 8 -115z
m-737 -470 c87 -39 190 -82 228 -95 l70 -23 -59 5 c-114 10 -296 64 -410 122
-72 36 -79 42 -64 60 18 22 60 10 235 -69z m950 -140 c-9 -173 -44 -311 -49
-195 -3 78 3 151 18 225 23 107 38 93 31 -30z m-157 6 c-30 -8 -66 -13 -80
-11 -34 4 51 25 100 25 30 0 28 -2 -20 -14z"/>
<path d="M6686 4287 c3 -10 9 -15 12 -12 3 3 0 11 -7 18 -10 9 -11 8 -5 -6z"/>
<path d="M6435 3450 c-16 -7 -12 -9 19 -9 22 -1 48 -8 58 -18 10 -9 18 -11 18
-5 0 11 -51 43 -67 41 -4 0 -17 -4 -28 -9z"/>
<path d="M6150 3257 c0 -23 28 -58 60 -76 38 -21 113 -28 138 -12 7 4 -12 6
-43 3 -47 -4 -61 -1 -95 22 -44 29 -56 63 -17 52 12 -4 64 -9 115 -13 50 -3
92 -8 92 -11 0 -3 -8 -15 -17 -26 l-18 -21 23 19 c42 36 25 51 -58 52 -41 0
-99 4 -127 9 -29 4 -53 5 -53 2z"/>
<path d="M6111 2816 c10 -9 69 -36 69 -32 0 6 -55 36 -66 36 -4 0 -5 -2 -3 -4z"/>
<path d="M5825 4671 c-38 -23 -62 -57 -70 -105 -6 -32 -25 -52 -25 -26 0 5
-19 23 -42 40 -47 35 -96 39 -121 12 -57 -62 33 -187 191 -266 48 -24 52 -29
52 -61 0 -25 4 -35 15 -35 21 0 31 29 17 51 -9 14 -6 31 14 81 62 152 78 243
53 291 -22 42 -40 45 -84 18z m69 -23 c29 -42 18 -106 -51 -280 -10 -26 -22
-50 -25 -53 -8 -8 -120 56 -174 100 -81 66 -108 166 -49 181 37 9 81 -13 124
-64 l38 -44 8 48 c8 59 27 97 57 118 31 22 54 20 72 -6z m-54 -387 c0 -6 -4
-13 -10 -16 -5 -3 -10 1 -10 9 0 9 5 16 10 16 6 0 10 -4 10 -9z"/>
</g>
</svg>